# This file uses centimeters as units for non-parametric coordinates.

mtllib box.mtl
g default
v 2.698141 -0.001286 -2.616112
v 2.625178 -0.001282 -2.689323
v 2.625259 0.050401 -2.740985
v -2.616277 -0.000957 -2.698296
v -2.689478 -0.000953 -2.625328
v 2.615957 -0.001274 2.698311
v 2.689158 -0.001278 2.625313
v 2.615860 0.050409 2.749982
v -2.698461 -0.000945 2.616096
v -2.625483 -0.000950 2.689339
v -2.163744 0.039408 2.095405
v -2.102935 0.039404 2.156410
v -2.174828 -0.000978 2.240211
v -2.247806 -0.000974 2.167000
v -2.156553 0.039402 -2.102776
v -2.240369 -0.000980 -2.174675
v -2.167167 -0.000985 -2.247643
v -2.095536 0.039398 -2.163567
v 2.102615 0.039138 -2.156396
v 2.174523 -0.001253 -2.240196
v 2.247485 -0.001257 -2.166985
v 2.163439 0.039135 -2.095361
v 2.095231 0.039145 2.163612
v 2.156248 0.039141 2.102790
v 2.240048 -0.001251 2.174690
v 2.166847 -0.001247 2.247658
v -2.112492 0.094677 -2.058549
v -2.051474 0.094673 -2.119370
v -2.028594 0.135058 -2.035387
v -2.119533 0.094683 2.051345
v -2.035553 0.135064 2.028456
v -2.058709 0.094679 2.112350
v 2.051169 0.094425 2.119399
v 2.028305 0.134813 2.035414
v 2.112202 0.094421 2.058578
v 2.058404 0.094419 -2.112321
v 2.119228 0.094415 -2.051316
v 2.035264 0.134807 -2.028429
v 2.741190 5.541393 2.625410
v 2.689509 5.593081 2.625323
v 2.616308 5.593088 2.698321
v 2.616211 5.541403 2.749983
v -2.625147 5.593409 2.689349
v -2.698110 5.593415 2.616107
v -2.749807 5.541733 2.616011
v 2.625514 5.593081 -2.689344
v 2.698492 5.593074 -2.616132
v 2.750174 5.541389 -2.616015
v 2.625611 5.541399 -2.740985
v -2.689127 5.593408 -2.625349
v -2.615926 5.593401 -2.698316
v -2.615844 5.541719 -2.749957
v -2.156217 5.552990 -2.102795
v -2.095200 5.552988 -2.163617
v -2.166816 5.593377 -2.247663
v -2.240017 5.593379 -2.174695
v -2.163408 5.552994 2.095356
v -2.247455 5.593387 2.166980
v -2.174507 5.593381 2.240191
v -2.102600 5.552988 2.156391
v 2.095566 5.552732 2.163563
v 2.167183 5.593112 2.247638
v 2.240399 5.593110 2.174670
v 2.156584 5.552727 2.102772
v 2.102966 5.552725 -2.156415
v 2.163775 5.552723 -2.095410
v 2.247837 5.593102 -2.167005
v 2.174859 5.593108 -2.240217
v -2.119197 5.497714 2.051311
v -2.058373 5.497712 2.112346
v -2.035233 5.457320 2.028454
v -2.112171 5.497706 -2.058553
v -2.028274 5.457316 -2.035389
v -2.051138 5.497704 -2.119374
v 2.058740 5.497451 -2.112324
v 2.035584 5.457067 -2.028431
v 2.119564 5.497449 -2.051320
v 2.051505 5.497455 2.119396
v 2.112523 5.497453 2.058574
v 2.028625 5.457070 2.035412
v 2.740839 0.050399 2.625410
v 2.792536 0.102078 2.625506
v 2.792424 0.175168 2.698616
v 2.792745 5.416620 2.698627
v 2.792857 5.489710 2.625497
v 2.801630 0.175162 -2.689019
v 2.801519 0.102072 -2.615949
v 2.749822 0.050393 -2.616015
v 2.801855 5.489702 -2.615929
v 2.801952 5.416613 -2.689038
v 2.750367 5.416619 -2.740796
v 2.760531 4.955894 -2.094348
v 2.760635 4.894973 -2.155259
v 2.801156 4.966730 -2.239135
v 2.801044 5.039820 -2.166056
v 2.753340 4.955897 2.103803
v 2.793607 5.039824 2.175619
v 2.793495 4.966738 2.248719
v 2.753235 4.894980 2.164718
v 2.752975 0.696811 2.164715
v 2.793220 0.625050 2.248713
v 2.793332 0.551960 2.175634
v 2.753080 0.635893 2.103804
v 2.760375 0.696807 -2.155263
v 2.760271 0.635888 -2.094347
v 2.800769 0.551955 -2.166041
v 2.800896 0.625045 -2.239141
v 2.698140 4.911761 2.059577
v 2.698035 4.850844 2.120492
v 2.657791 4.827835 2.036467
v 2.705166 4.911757 -2.050317
v 2.664750 4.827831 -2.027376
v 2.705270 4.850840 -2.111228
v 2.705010 0.740949 -2.111250
v 2.664490 0.763964 -2.027378
v 2.704906 0.680031 -2.050335
v 2.697775 0.740954 2.120470
v 2.697880 0.680035 2.059559
v 2.657531 0.763969 2.036496
v -2.801488 5.490057 2.615914
v -2.801600 5.416964 2.689045
v -2.801936 0.175514 2.689034
v -2.801825 0.102424 2.615924
v -2.750143 0.050739 2.616011
v -2.792393 5.416960 -2.698621
v -2.792505 5.490053 -2.625511
v -2.740808 5.541728 -2.625415
v -2.792841 0.102418 -2.625532
v -2.792715 0.175508 -2.698601
v -2.741160 0.050733 -2.625415
v -2.753309 0.636230 -2.103777
v -2.753205 0.697148 -2.164693
v -2.793465 0.625391 -2.248724
v -2.793576 0.552301 -2.175624
v -2.760500 0.636235 2.094374
v -2.801013 0.552306 2.166051
v -2.801125 0.625396 2.239130
v -2.760605 0.697152 2.155285
v -2.760345 4.895322 2.155288
v -2.800865 4.967081 2.239137
v -2.800738 5.040171 2.166037
v -2.760240 4.956239 2.094373
v -2.752945 4.895318 -2.164719
v -2.753050 4.956235 -2.103778
v -2.793301 5.040167 -2.175638
v -2.793189 4.967081 -2.248718
v -2.705135 0.680370 2.050313
v -2.705240 0.741288 2.111223
v -2.664720 0.764298 2.027371
v -2.698109 0.680364 -2.059582
v -2.657760 0.764293 -2.036472
v -2.698005 0.741283 -2.120497
v -2.697745 4.851175 -2.120475
v -2.657500 4.828160 -2.036501
v -2.697849 4.912096 -2.059564
v -2.704980 4.851179 2.111246
v -2.704875 4.912099 2.050330
v -2.664460 4.828164 2.027373
v 2.698781 5.416617 -2.792584
v 2.625692 5.489717 -2.792686
v -2.615748 5.490038 -2.801659
v -2.688838 5.416955 -2.801801
v -2.740616 5.416958 -2.750196
v 2.625355 0.102083 -2.792707
v 2.698460 0.175169 -2.792565
v 2.750045 0.175166 -2.740777
v -2.689159 0.175502 -2.801781
v -2.616085 0.102407 -2.801679
v -2.616181 0.050725 -2.749957
v -2.740937 0.175505 -2.750176
v -2.155390 0.697110 -2.760487
v -2.094477 0.636188 -2.760363
v -2.166179 0.552262 -2.800899
v -2.239253 0.625356 -2.801031
v -2.155130 4.895279 -2.760484
v -2.238993 4.967044 -2.801025
v -2.165888 5.040128 -2.800913
v -2.094202 4.956190 -2.760364
v 2.103949 4.955935 -2.753192
v 2.175786 5.039859 -2.793467
v 2.248876 4.966767 -2.793334
v 2.164862 4.895012 -2.753068
v 2.103689 0.635929 -2.753191
v 2.164602 0.696843 -2.753072
v 2.248601 0.625079 -2.793341
v 2.175511 0.551994 -2.793453
v -2.111101 4.851138 -2.705131
v -2.050173 4.912053 -2.705041
v -2.027238 4.828120 -2.664614
v -2.111346 0.741246 -2.705153
v -2.027483 0.764253 -2.664615
v -2.050433 0.680324 -2.705029
v 2.059446 0.680070 -2.698010
v 2.036375 0.764003 -2.657657
v 2.120374 0.740984 -2.697890
v 2.059706 4.911796 -2.697992
v 2.120619 4.850877 -2.697898
v 2.036620 4.827870 -2.657656
v 2.740645 0.175172 2.750191
v 2.688867 0.175175 2.801765
v 2.615778 0.102090 2.801654
v -2.625662 0.102414 2.792682
v -2.698752 0.175508 2.792549
v -2.750337 0.175512 2.740791
v -2.625581 0.050731 2.741010
v 2.616114 5.489721 2.801644
v 2.689188 5.416625 2.801777
v 2.740966 5.416622 2.750202
v -2.698431 5.416959 2.792560
v -2.625341 5.490042 2.792672
v -2.625245 5.541727 2.741011
v -2.750016 5.416962 2.740803
v -2.164587 4.895287 2.753128
v -2.103659 4.956202 2.753156
v -2.175482 5.040135 2.793448
v -2.248571 4.967048 2.793336
v -2.164832 0.697117 2.753124
v -2.248846 0.625363 2.793360
v -2.175757 0.552268 2.793432
v -2.103919 0.636195 2.753157
v 2.094232 0.635935 2.760359
v 2.165918 0.552000 2.800878
v 2.239023 0.625085 2.801051
v 2.155160 0.696850 2.760509
v 2.094507 4.955938 2.760358
v 2.155420 4.895020 2.760513
v 2.239283 4.966774 2.801026
v 2.166193 5.039866 2.800894
v -2.120605 0.741253 2.697863
v -2.059676 0.680331 2.698018
v -2.036590 0.764260 2.657681
v -2.120345 4.851141 2.697855
v -2.036346 4.828124 2.657652
v -2.059416 4.912060 2.698005
v 2.050462 4.911804 2.705024
v 2.027512 4.827874 2.664610
v 2.111375 4.850885 2.705118
v 2.050202 0.680077 2.705037
v 2.111131 0.740991 2.705126
v 2.027268 0.764009 2.664639
vt 0.985273 0.375070
vt 0.373354 0.039223
vt 0.373367 0.295292
vt 0.990901 0.645015
vt 0.045007 0.614645
vt 0.682537 0.362310
vt 0.977095 0.378014
vt 0.295030 0.372151
vt 0.296005 0.290674
vt 0.926193 0.046214
vt 0.970155 0.659022
vt 0.297018 0.043959
vt 0.617233 0.386504
vt 0.382956 0.634792
vt 0.974700 0.003457
vt 0.611670 0.045606
vt 0.006710 0.643999
vt 0.645618 0.340385
vt 0.924203 0.374879
vt 0.003632 0.317642
vt 0.995585 0.377768
vt 0.685698 0.617176
vt 0.926193 0.288911
vt 0.974757 0.659022
vt 0.041631 0.284525
vt 0.348043 0.670563
vt 0.335016 0.003538
vt 0.325294 0.651253
vt 0.639338 0.337245
vt 0.011091 0.651253
vt 0.325294 0.648248
vt 0.338135 0.006563
vt 0.958059 0.335638
vt 0.651439 0.334105
vt 0.000513 0.643999
vt 0.656699 0.328439
vt 0.350366 0.341411
vt 0.006751 0.317642
vt 0.992164 0.000513
vt 0.686914 0.038566
vt 0.011163 0.003538
vt 0.414132 0.836122
vt 0.344236 0.352132
vt 0.621989 0.375022
vt 0.982878 0.280488
vt 0.373354 0.301675
vt 0.932190 0.362310
vt 0.988564 0.656079
vt 0.294024 0.366043
vt 0.973674 0.280493
vt 0.686663 0.623404
vt 0.938473 0.297207
vt 0.296005 0.037809
vt 0.678524 0.297207
vt 0.377493 0.647672
vt 0.985273 0.655047
vt 0.609767 0.039223
vt 0.979302 0.003457
vt 0.608240 0.298993
vt 0.046387 0.609766
vt 0.970098 0.003457
vt 0.925526 0.620787
vt 0.992221 0.658070
vt 0.291378 0.368609
vt 0.690525 0.374879
vt 0.690803 0.046214
vt 0.045307 0.040393
vt 0.989875 0.652105
vt 0.382361 0.382803
vt 0.617233 0.636190
vt 0.981697 0.652104
vt 0.608240 0.041905
vt 0.329676 0.339256
vt 0.338135 0.317642
vt 0.958059 0.655052
vt 0.651439 0.006793
vt 0.510519 0.904859
vt 0.960297 0.006686
vt 0.000513 0.006563
vt 0.327486 0.324945
vt 0.332774 0.332001
vt 0.656699 0.006686
vt 0.640234 0.000513
vt 0.045307 0.288090
vt 0.011091 0.332001
vt 0.351263 0.678143
vt 0.638442 0.006793
vt 0.656699 0.000513
vt 0.978276 0.280495
vt 0.613197 0.297974
vt 0.994559 0.375070
vt 0.294024 0.617212
vt 0.646364 0.329665
vt 0.033678 0.617842
vt 0.011163 0.324945
vt 0.678524 0.037918
vt 0.978333 0.936059
vt 0.038967 0.041375
vt 0.976068 0.655054
vt 0.377403 0.383822
vt 0.620678 0.383823
vt 0.364496 0.302333
vt 0.993248 0.656079
vt 0.931567 0.619793
vt 0.302707 0.365412
vt 0.678334 0.624047
vt 0.996848 0.000513
vt 0.930082 0.296559
vt 0.304747 0.037175
vt 0.967891 0.378016
vt 0.931054 0.044840
vt 0.978333 0.656079
vt 0.038967 0.287108
vt 0.989875 0.378014
vt 0.613803 0.382803
vt 0.972493 0.378016
vt 0.378930 0.636190
vt 0.974700 0.277551
vt 0.611670 0.295292
vt 0.289998 0.609766
vt 0.997149 0.909963
vt 0.929029 0.373515
vt 0.992221 0.926026
vt 0.045007 0.368609
vt 0.970098 0.277549
vt 0.689201 0.620787
vt 0.983904 0.003457
vt 0.685942 0.290285
vt 0.974757 0.933115
vt 0.041631 0.043959
vt 0.335016 0.324945
vt 0.325294 0.332001
vt 0.611807 0.634792
vt 0.981697 0.378014
vt 0.376798 0.041905
vt 0.335016 0.317642
vt 0.332774 0.339256
vt 0.646364 0.011233
vt 0.652465 0.324074
vt 0.344983 0.341411
vt 0.969072 0.367993
vt 0.331897 0.317642
vt 0.648528 0.003653
vt 0.965557 0.000513
vt 0.510519 0.901345
vt 0.293341 0.288090
vt 0.348043 0.352131
vt 0.638442 0.334105
vt 0.011091 0.654258
vt 0.613108 0.306774
vt 0.302707 0.617842
vt 0.982935 0.936056
vt 0.928064 0.367286
vt 0.966864 0.655052
vt 0.038710 0.369584
vt 0.973674 0.000513
vt 0.928064 0.623404
vt 0.992164 0.274223
vt 0.930082 0.038566
vt 0.038313 0.032896
vt 0.377493 0.375022
vt 0.626105 0.643231
vt 0.369923 0.042924
vt 0.613108 0.034124
vt 0.041356 0.611104
vt 0.963288 0.378016
vt 0.982935 0.656079
vt 0.686663 0.367286
vt 0.289998 0.373489
vt 0.973731 0.936057
vt 0.299681 0.287108
vt 0.988507 0.004277
vt 0.689470 0.041202
vt 0.038313 0.295587
vt 0.611807 0.387902
vt 0.983961 0.933114
vt 0.382361 0.639891
vt 0.607644 0.047004
vt 0.011091 0.335006
vt 0.350366 0.681283
vt 0.979359 0.933112
vt 0.925526 0.369903
vt 0.960297 0.331526
vt 0.003632 0.324945
vt 0.690525 0.615811
vt 0.993191 0.270458
vt 0.689470 0.293923
vt 0.046696 0.283178
vt 0.651439 0.670563
vt 0.327486 0.327970
vt 0.329676 0.328997
vt 0.339162 0.011233
vt 0.011162 0.000513
vt 0.652465 0.650719
vt 0.340430 0.352131
vt 0.329675 0.643999
vt 0.338135 0.010842
vt 0.652465 0.339972
vt 0.976068 0.375072
vt 0.340429 0.670563
vt 0.351263 0.344551
vt 0.656699 0.331526
vt 0.327486 0.006563
vt 0.335872 0.648248
vt 0.987480 0.280493
vt 0.683385 0.042204
vt 0.011162 0.006563
vt 0.418021 0.840132
vt 0.986299 0.655049
vt 0.380834 0.380121
vt 0.626104 0.379463
vt 0.368612 0.306774
vt 0.994559 0.648779
vt 0.042361 0.617212
vt 0.936393 0.366644
vt 0.038060 0.361163
vt 0.682537 0.628380
vt 0.938473 0.037918
vt 0.300336 0.032897
vt 0.987480 0.000513
vt 0.683385 0.292921
vt 0.987537 0.656079
vt 0.617247 0.642573
vt 0.368612 0.034124
vt 0.979302 0.277544
vt 0.376798 0.298993
vt 0.990901 0.377062
vt 0.291378 0.614645
vt 0.678334 0.366644
vt 0.963289 0.652108
vt 0.041355 0.372151
vt 0.300336 0.295587
vt 0.983904 0.277549
vt 0.685942 0.044840
vt 0.293341 0.040393
vt 0.382956 0.387902
vt 0.983961 0.659022
vt 0.613803 0.639891
vt 0.373367 0.045606
vt 0.003612 0.339256
vt 0.342073 0.678143
vt 0.962262 0.650719
vt 0.650171 0.011233
vt 0.964531 0.324074
vt 0.000513 0.317642
vt 0.327486 0.321920
vt 0.993191 0.002505
vt 0.927526 0.293923
vt 0.970155 0.933113
vt 0.297018 0.284525
vt 0.647323 0.347691
vt 0.006751 0.327970
vt 0.960297 0.334612
vt 0.343278 0.334105
vt 0.325294 0.654258
vt 0.642558 0.329665
vt 0.980670 0.655051
vt 0.297676 0.613670
vt 0.962262 0.339972
vt 0.650171 0.329665
vt 0.966864 0.375072
vt 0.038710 0.613670
vt 0.335016 0.010842
vt 0.332773 0.643999
vt 0.682757 0.033554
vt 0.003632 0.010842
vt 0.414132 0.845803
vt 0.373377 0.379463
vt 0.620678 0.638872
vt 0.369923 0.297974
vt 0.936393 0.624047
vt 0.980670 0.375070
vt 0.297676 0.369584
vt 0.999487 0.375070
vt 0.683160 0.619793
vt 0.971466 0.655052
vt 0.933611 0.292921
vt 0.973731 0.656079
vt 0.299682 0.041375
vt 0.682757 0.301572
vt 0.042644 0.290674
vt 0.987537 0.936058
vt 0.380834 0.642573
vt 0.978276 0.000513
vt 0.613197 0.042924
vt 0.378794 0.293894
vt 0.977095 0.652107
vt 0.295030 0.611104
vt 0.997149 0.658776
vt 0.929029 0.617176
vt 0.046387 0.373489
vt 0.979359 0.659022
vt 0.689201 0.369903
vt 0.690803 0.288911
vt 0.291952 0.045306
vt 0.647323 0.675003
vt 0.325294 0.328997
vt 0.343278 0.006793
vt 0.960297 0.000513
vt 0.006751 0.000513
vt 0.378794 0.047004
vt 0.011091 0.648248
vt 0.640234 0.340385
vt 0.656668 0.335638
vt 0.339162 0.675003
vt 0.000513 0.339256
vt 0.964531 0.011051
vt 0.000513 0.010842
vt 0.331897 0.010842
vt 0.335872 0.643999
vt 0.342072 0.344551
vt 0.965557 0.367993
vt 0.877989 0.901345
vt 0.291952 0.283178
vt 0.352159 0.675003
vt 0.011091 0.328997
vt 0.642558 0.011233
vt 0.982878 0.000513
vt 0.609767 0.301675
vt 0.298326 0.622092
vt 0.648528 0.337245
vt 0.003611 0.643999
vt 0.033678 0.365412
vt 0.011163 0.321920
vt 0.934239 0.033554
vt 0.042644 0.037809
vt 0.986299 0.375070
vt 0.617247 0.380121
vt 0.621989 0.647672
vt 0.364496 0.038565
vt 0.617224 0.038565
vt 0.298326 0.361163
vt 0.999487 0.631648
vt 0.683160 0.370898
vt 0.934239 0.301572
vt 0.304747 0.291309
vt 0.988506 0.272232
vt 0.927526 0.041202
vt 0.033902 0.291308
vt 0.373377 0.643231
vt 0.972493 0.652110
vt 0.378930 0.386504
vt 0.607644 0.293894
vt 0.006710 0.339256
vt 0.344983 0.681283
vt 0.924203 0.615811
vt 0.960297 0.328439
vt 0.000513 0.321920
vt 0.995585 0.628950
vt 0.685698 0.373515
vt 0.967891 0.652108
vt 0.931054 0.290285
vt 0.046696 0.045306
vt 0.651439 0.352131
vt 0.011162 0.327970
vt 0.339162 0.329665
vt 0.329675 0.654258
vt 0.327486 0.000513
vt 0.656668 0.655052
vt 0.877989 0.904859
vt 0.339162 0.347691
vt 0.325294 0.335006
vt 0.338135 0.321920
vt 0.344236 0.670563
vt 0.003632 0.003538
vt 0.960297 0.003600
vt 0.332773 0.651253
vt 0.327486 0.003538
vt 0.652465 0.011051
vt 0.645618 0.000513
vt 0.969072 0.000513
vt 0.006751 0.010842
vt 0.418021 0.845803
vt 0.352159 0.347691
vt 0.656699 0.334612
vt 0.639338 0.003653
vt 0.656699 0.003600
vt 0.617223 0.302333
vt 0.038060 0.622092
vt 0.993248 0.912660
vt 0.931567 0.370898
vt 0.988564 0.929790
vt 0.042361 0.366043
vt 0.932190 0.628380
vt 0.971466 0.375072
vt 0.933611 0.042204
vt 0.033902 0.037175
vt 0.996848 0.274222
vt 0.686914 0.296559
vt 0.377403 0.638872
vn -0.000062 -1.000000 0.000001
vn -0.000062 -1.000000 0.000001
vn -0.000062 -1.000000 0.000001
vn -0.000062 -1.000000 0.000001
vn -0.000062 -1.000000 0.000001
vn -0.000062 -1.000000 0.000001
vn -0.000062 -1.000000 0.000001
vn -0.000062 -1.000000 0.000001
vn -0.000062 -1.000000 0.000002
vn -0.000062 -1.000000 0.000002
vn -0.000062 -1.000000 0.000002
vn -0.000062 -1.000000 0.000002
vn -0.000062 -1.000000 0.000001
vn -0.000062 -1.000000 0.000001
vn -0.000062 -1.000000 0.000001
vn -0.000062 -1.000000 0.000001
vn -0.000062 -1.000000 0.000001
vn -0.000062 -1.000000 0.000001
vn -0.000062 -1.000000 0.000001
vn -0.000062 -1.000000 0.000001
vn 0.001299 -0.623973 -0.781445
vn 0.001299 -0.623973 -0.781445
vn 0.001299 -0.623973 -0.781445
vn 0.001299 -0.623973 -0.781445
vn -0.001376 -0.623975 0.781443
vn -0.001376 -0.623975 0.781443
vn -0.001376 -0.623975 0.781443
vn -0.001376 -0.623975 0.781443
vn -0.781481 -0.623928 -0.001337
vn -0.781481 -0.623928 -0.001337
vn -0.781481 -0.623928 -0.001337
vn -0.781481 -0.623928 -0.001337
vn 0.781403 -0.624025 0.001339
vn 0.781403 -0.624025 0.001339
vn 0.781403 -0.624025 0.001339
vn 0.781403 -0.624025 0.001339
vn -0.576404 -0.577310 -0.578335
vn -0.576404 -0.577310 -0.578335
vn -0.576404 -0.577310 -0.578335
vn -0.576404 -0.577310 -0.578335
vn 0.576332 -0.577372 0.578345
vn 0.576332 -0.577372 0.578345
vn 0.576332 -0.577372 0.578345
vn 0.576332 -0.577372 0.578345
vn -0.578381 -0.577301 0.576368
vn -0.578381 -0.577301 0.576368
vn -0.578381 -0.577301 0.576368
vn -0.578381 -0.577301 0.576368
vn 0.243894 -0.938835 -0.243114
vn 0.243894 -0.938835 -0.243114
vn 0.243894 -0.938835 -0.243114
vn 0.243894 -0.938835 -0.243114
vn 0.243059 -0.938834 0.243953
vn 0.243059 -0.938834 0.243953
vn 0.243059 -0.938834 0.243953
vn 0.243059 -0.938834 0.243953
vn -0.244009 -0.938804 0.243118
vn -0.244009 -0.938804 0.243118
vn -0.244009 -0.938804 0.243118
vn -0.244009 -0.938804 0.243118
vn -0.243175 -0.938805 -0.243949
vn -0.243175 -0.938805 -0.243949
vn -0.243175 -0.938805 -0.243949
vn -0.243175 -0.938805 -0.243949
vn 0.332489 -0.882102 0.333688
vn 0.332489 -0.882102 0.333688
vn 0.332489 -0.882102 0.333688
vn 0.333631 -0.882103 -0.332541
vn 0.333631 -0.882103 -0.332541
vn 0.333631 -0.882103 -0.332541
vn -0.332600 -0.882060 -0.333687
vn -0.332600 -0.882060 -0.333687
vn -0.332600 -0.882060 -0.333687
vn -0.333738 -0.882062 0.332545
vn -0.333738 -0.882062 0.332545
vn -0.333738 -0.882062 0.332545
vn 0.001167 -0.707110 -0.707103
vn 0.001167 -0.707110 -0.707103
vn 0.001167 -0.707110 -0.707103
vn 0.001167 -0.707110 -0.707103
vn -0.707159 -0.707053 -0.001210
vn -0.707159 -0.707053 -0.001210
vn -0.707159 -0.707053 -0.001210
vn -0.707159 -0.707053 -0.001210
vn -0.001254 -0.707099 0.707114
vn -0.001254 -0.707099 0.707114
vn -0.001254 -0.707099 0.707114
vn -0.001254 -0.707099 0.707114
vn 0.707072 -0.707141 0.001211
vn 0.707072 -0.707141 0.001211
vn 0.707072 -0.707141 0.001211
vn 0.707072 -0.707141 0.001211
vn 0.433547 -0.901131 0.000744
vn 0.433547 -0.901131 0.000744
vn 0.433547 -0.901131 0.000744
vn 0.433547 -0.901131 0.000744
vn 0.000687 -0.901104 -0.433603
vn 0.000687 -0.901104 -0.433603
vn 0.000687 -0.901104 -0.433603
vn 0.000687 -0.901104 -0.433603
vn -0.000798 -0.901104 0.433603
vn -0.000798 -0.901104 0.433603
vn -0.000798 -0.901104 0.433603
vn -0.000798 -0.901104 0.433603
vn -0.433658 -0.901077 -0.000741
vn -0.433658 -0.901077 -0.000741
vn -0.433658 -0.901077 -0.000741
vn -0.433658 -0.901077 -0.000741
vn -0.000062 -1.000000 0.000001
vn -0.000062 -1.000000 0.000001
vn -0.000062 -1.000000 0.000001
vn -0.000062 -1.000000 0.000001
vn -0.000062 -1.000000 0.000001
vn -0.000062 -1.000000 0.000001
vn -0.000062 -1.000000 0.000001
vn -0.000062 -1.000000 0.000001
vn -0.000062 -1.000000 0.000001
vn -0.000062 -1.000000 0.000001
vn -0.000062 -1.000000 0.000001
vn -0.000062 -1.000000 0.000001
vn -0.000062 -1.000000 0.000001
vn -0.000062 -1.000000 0.000001
vn -0.000062 -1.000000 0.000001
vn -0.000062 -1.000000 0.000001
vn 0.433547 -0.901131 0.000743
vn 0.433547 -0.901131 0.000743
vn 0.433547 -0.901131 0.000743
vn 0.433547 -0.901131 0.000743
vn 0.000687 -0.901105 -0.433601
vn 0.000687 -0.901105 -0.433601
vn 0.000687 -0.901105 -0.433601
vn 0.000687 -0.901105 -0.433601
vn -0.000798 -0.901104 0.433603
vn -0.000798 -0.901104 0.433603
vn -0.000798 -0.901104 0.433603
vn -0.000798 -0.901104 0.433603
vn -0.433659 -0.901077 -0.000741
vn -0.433659 -0.901077 -0.000741
vn -0.433659 -0.901077 -0.000741
vn -0.433659 -0.901077 -0.000741
vn 0.467938 -0.748676 0.469593
vn 0.467938 -0.748676 0.469593
vn 0.467938 -0.748676 0.469593
vn 0.467938 -0.748676 0.469593
vn 0.469546 -0.748675 -0.467987
vn 0.469546 -0.748675 -0.467987
vn 0.469546 -0.748675 -0.467987
vn 0.469546 -0.748675 -0.467987
vn -0.468032 -0.748617 -0.469594
vn -0.468032 -0.748617 -0.469594
vn -0.468032 -0.748617 -0.469594
vn -0.468032 -0.748617 -0.469594
vn -0.469636 -0.748619 0.467986
vn -0.469636 -0.748619 0.467986
vn -0.469636 -0.748619 0.467986
vn -0.469636 -0.748619 0.467986
vn 0.578310 -0.577378 -0.576361
vn 0.578310 -0.577378 -0.576361
vn 0.578310 -0.577378 -0.576361
vn 0.578310 -0.577378 -0.576361
vn 0.000062 1.000000 -0.000001
vn 0.000062 1.000000 -0.000001
vn 0.000062 1.000000 -0.000001
vn 0.000062 1.000000 -0.000001
vn 0.000062 1.000000 -0.000001
vn 0.000062 1.000000 -0.000001
vn 0.000062 1.000000 -0.000001
vn 0.000062 1.000000 -0.000001
vn 0.000062 1.000000 -0.000001
vn 0.000062 1.000000 -0.000001
vn 0.000062 1.000000 -0.000001
vn 0.000062 1.000000 -0.000001
vn 0.000062 1.000000 -0.000001
vn 0.000062 1.000000 -0.000001
vn 0.000062 1.000000 -0.000001
vn 0.000062 1.000000 -0.000001
vn 0.000062 1.000000 -0.000001
vn 0.000062 1.000000 -0.000001
vn 0.000062 1.000000 -0.000001
vn 0.000062 1.000000 -0.000001
vn -0.001299 0.623975 0.781444
vn -0.001299 0.623975 0.781444
vn -0.001299 0.623975 0.781444
vn -0.001299 0.623975 0.781444
vn 0.001376 0.623974 -0.781444
vn 0.001376 0.623974 -0.781444
vn 0.001376 0.623974 -0.781444
vn 0.001376 0.623974 -0.781444
vn -0.781406 0.624021 -0.001338
vn -0.781406 0.624021 -0.001338
vn -0.781406 0.624021 -0.001338
vn -0.781406 0.624021 -0.001338
vn 0.781484 0.623924 0.001337
vn 0.781484 0.623924 0.001337
vn 0.781484 0.623924 0.001337
vn 0.781484 0.623924 0.001337
vn -0.578304 0.577378 0.576367
vn -0.578304 0.577378 0.576367
vn -0.578304 0.577378 0.576367
vn -0.578304 0.577378 0.576367
vn 0.578376 0.577308 -0.576366
vn 0.578376 0.577308 -0.576366
vn 0.578376 0.577308 -0.576366
vn 0.578376 0.577308 -0.576366
vn -0.576333 0.577375 -0.578341
vn -0.576333 0.577375 -0.578341
vn -0.576333 0.577375 -0.578341
vn -0.576333 0.577375 -0.578341
vn 0.243175 0.938805 0.243949
vn 0.243175 0.938805 0.243949
vn 0.243175 0.938805 0.243949
vn 0.243175 0.938805 0.243949
vn 0.244008 0.938805 -0.243117
vn 0.244008 0.938805 -0.243117
vn 0.244008 0.938805 -0.243117
vn 0.244008 0.938805 -0.243117
vn -0.243058 0.938835 -0.243951
vn -0.243058 0.938835 -0.243951
vn -0.243058 0.938835 -0.243951
vn -0.243058 0.938835 -0.243951
vn -0.243893 0.938835 0.243116
vn -0.243893 0.938835 0.243116
vn -0.243893 0.938835 0.243116
vn -0.243893 0.938835 0.243116
vn 0.333739 0.882064 -0.332539
vn 0.333739 0.882064 -0.332539
vn 0.333739 0.882064 -0.332539
vn 0.332598 0.882061 0.333688
vn 0.332598 0.882061 0.333688
vn 0.332598 0.882061 0.333688
vn -0.333628 0.882102 0.332548
vn -0.333628 0.882102 0.332548
vn -0.333628 0.882102 0.332548
vn -0.332490 0.882103 -0.333684
vn -0.332490 0.882103 -0.333684
vn -0.332490 0.882103 -0.333684
vn -0.001167 0.707098 0.707115
vn -0.001167 0.707098 0.707115
vn -0.001167 0.707098 0.707115
vn -0.001167 0.707098 0.707115
vn -0.707070 0.707142 -0.001211
vn -0.707070 0.707142 -0.001211
vn -0.707070 0.707142 -0.001211
vn -0.707070 0.707142 -0.001211
vn 0.001254 0.707104 -0.707109
vn 0.001254 0.707104 -0.707109
vn 0.001254 0.707104 -0.707109
vn 0.001254 0.707104 -0.707109
vn 0.707152 0.707061 0.001210
vn 0.707152 0.707061 0.001210
vn 0.707152 0.707061 0.001210
vn 0.707152 0.707061 0.001210
vn 0.433657 0.901078 0.000741
vn 0.433657 0.901078 0.000741
vn 0.433657 0.901078 0.000741
vn 0.433657 0.901078 0.000741
vn -0.000687 0.901105 0.433601
vn -0.000687 0.901105 0.433601
vn -0.000687 0.901105 0.433601
vn -0.000687 0.901105 0.433601
vn 0.000798 0.901103 -0.433605
vn 0.000798 0.901103 -0.433605
vn 0.000798 0.901103 -0.433605
vn 0.000798 0.901103 -0.433605
vn -0.433546 0.901131 -0.000743
vn -0.433546 0.901131 -0.000743
vn -0.433546 0.901131 -0.000743
vn -0.433546 0.901131 -0.000743
vn 0.000062 1.000000 -0.000001
vn 0.000062 1.000000 -0.000001
vn 0.000062 1.000000 -0.000001
vn 0.000062 1.000000 -0.000001
vn 0.000061 1.000000 -0.000001
vn 0.000061 1.000000 -0.000001
vn 0.000061 1.000000 -0.000001
vn 0.000061 1.000000 -0.000001
vn 0.000062 1.000000 -0.000001
vn 0.000062 1.000000 -0.000001
vn 0.000062 1.000000 -0.000001
vn 0.000062 1.000000 -0.000001
vn 0.000061 1.000000 -0.000001
vn 0.000061 1.000000 -0.000001
vn 0.000061 1.000000 -0.000001
vn 0.000061 1.000000 -0.000001
vn 0.433659 0.901077 0.000741
vn 0.433659 0.901077 0.000741
vn 0.433659 0.901077 0.000741
vn 0.433659 0.901077 0.000741
vn -0.000687 0.901105 0.433601
vn -0.000687 0.901105 0.433601
vn -0.000687 0.901105 0.433601
vn -0.000687 0.901105 0.433601
vn 0.000798 0.901103 -0.433603
vn 0.000798 0.901103 -0.433603
vn 0.000798 0.901103 -0.433603
vn 0.000798 0.901103 -0.433603
vn -0.433547 0.901131 -0.000743
vn -0.433547 0.901131 -0.000743
vn -0.433547 0.901131 -0.000743
vn -0.433547 0.901131 -0.000743
vn 0.469637 0.748617 -0.467989
vn 0.469637 0.748617 -0.467989
vn 0.469637 0.748617 -0.467989
vn 0.469637 0.748617 -0.467989
vn 0.468033 0.748619 0.469590
vn 0.468033 0.748619 0.469590
vn 0.468033 0.748619 0.469590
vn 0.468033 0.748619 0.469590
vn -0.469545 0.748677 0.467986
vn -0.469545 0.748677 0.467986
vn -0.469545 0.748677 0.467986
vn -0.469545 0.748677 0.467986
vn -0.467940 0.748676 -0.469592
vn -0.467940 0.748676 -0.469592
vn -0.467940 0.748676 -0.469592
vn -0.467940 0.748676 -0.469592
vn 0.576397 0.577313 0.578339
vn 0.576397 0.577313 0.578339
vn 0.576397 0.577313 0.578339
vn 0.576397 0.577313 0.578339
vn 0.999999 -0.000061 0.001712
vn 0.999999 -0.000061 0.001712
vn 0.999999 -0.000061 0.001712
vn 0.999999 -0.000061 0.001712
vn 0.999999 -0.000062 0.001712
vn 0.999999 -0.000062 0.001712
vn 0.999999 -0.000062 0.001712
vn 0.999999 -0.000062 0.001712
vn 0.999999 -0.000062 0.001712
vn 0.999999 -0.000062 0.001712
vn 0.999999 -0.000062 0.001712
vn 0.999999 -0.000062 0.001712
vn 0.999999 -0.000062 0.001712
vn 0.999999 -0.000062 0.001712
vn 0.999999 -0.000062 0.001712
vn 0.999999 -0.000062 0.001712
vn 0.999999 -0.000062 0.001712
vn 0.999999 -0.000062 0.001712
vn 0.999999 -0.000062 0.001712
vn 0.999999 -0.000062 0.001712
vn 0.622634 -0.000038 0.782513
vn 0.622634 -0.000038 0.782513
vn 0.622634 -0.000038 0.782513
vn 0.622634 -0.000038 0.782513
vn 0.625313 -0.000039 -0.780374
vn 0.625313 -0.000039 -0.780374
vn 0.625313 -0.000039 -0.780374
vn 0.625313 -0.000039 -0.780374
vn 0.624022 0.781406 0.001067
vn 0.624022 0.781406 0.001067
vn 0.624022 0.781406 0.001067
vn 0.624022 0.781406 0.001067
vn 0.623930 -0.781479 0.001069
vn 0.623930 -0.781479 0.001069
vn 0.623930 -0.781479 0.001069
vn 0.623930 -0.781479 0.001069
vn 0.576404 0.577310 0.578336
vn 0.576404 0.577310 0.578336
vn 0.576404 0.577310 0.578336
vn 0.576404 0.577310 0.578336
vn 0.578308 -0.577389 -0.576352
vn 0.578308 -0.577389 -0.576352
vn 0.578308 -0.577389 -0.576352
vn 0.578308 -0.577389 -0.576352
vn 0.578380 0.577308 -0.576361
vn 0.578380 0.577308 -0.576361
vn 0.578380 0.577308 -0.576361
vn 0.578380 0.577308 -0.576361
vn 0.938386 -0.243592 0.245142
vn 0.938386 -0.243592 0.245142
vn 0.938386 -0.243592 0.245142
vn 0.938386 -0.243592 0.245142
vn 0.939220 -0.243592 -0.241926
vn 0.939220 -0.243592 -0.241926
vn 0.939220 -0.243592 -0.241926
vn 0.939220 -0.243592 -0.241926
vn 0.939250 0.243475 -0.241927
vn 0.939250 0.243475 -0.241927
vn 0.939250 0.243475 -0.241927
vn 0.939250 0.243475 -0.241927
vn 0.938417 0.243476 0.245141
vn 0.938417 0.243476 0.245141
vn 0.938417 0.243476 0.245141
vn 0.938417 0.243476 0.245141
vn 0.882630 -0.333172 -0.331604
vn 0.882630 -0.333172 -0.331604
vn 0.882630 -0.333172 -0.331604
vn 0.881491 -0.333168 0.334624
vn 0.881491 -0.333168 0.334624
vn 0.881491 -0.333168 0.334624
vn 0.881533 0.333055 0.334626
vn 0.881533 0.333055 0.334626
vn 0.881533 0.333055 0.334626
vn 0.882674 0.333055 -0.331604
vn 0.882674 0.333055 -0.331604
vn 0.882674 0.333055 -0.331604
vn 0.705896 -0.000043 0.708316
vn 0.705896 -0.000043 0.708316
vn 0.705896 -0.000043 0.708316
vn 0.705896 -0.000043 0.708316
vn 0.707163 0.707050 0.001210
vn 0.707163 0.707050 0.001210
vn 0.707163 0.707050 0.001210
vn 0.707163 0.707050 0.001210
vn 0.708323 -0.000044 -0.705888
vn 0.708323 -0.000044 -0.705888
vn 0.708323 -0.000044 -0.705888
vn 0.708323 -0.000044 -0.705888
vn 0.707063 -0.707149 0.001211
vn 0.707063 -0.707149 0.001211
vn 0.707063 -0.707149 0.001211
vn 0.707063 -0.707149 0.001211
vn 0.901075 -0.433660 0.001543
vn 0.901075 -0.433660 0.001543
vn 0.901075 -0.433660 0.001543
vn 0.901075 -0.433660 0.001543
vn 0.900361 -0.000055 0.435144
vn 0.900361 -0.000055 0.435144
vn 0.900361 -0.000055 0.435144
vn 0.900361 -0.000055 0.435144
vn 0.901845 -0.000056 -0.432059
vn 0.901845 -0.000056 -0.432059
vn 0.901845 -0.000056 -0.432059
vn 0.901845 -0.000056 -0.432059
vn 0.901129 0.433548 0.001542
vn 0.901129 0.433548 0.001542
vn 0.901129 0.433548 0.001542
vn 0.901129 0.433548 0.001542
vn 0.999999 -0.000064 0.001712
vn 0.999999 -0.000064 0.001712
vn 0.999999 -0.000064 0.001712
vn 0.999999 -0.000064 0.001712
vn 0.999999 -0.000062 0.001712
vn 0.999999 -0.000062 0.001712
vn 0.999999 -0.000062 0.001712
vn 0.999999 -0.000062 0.001712
vn 0.999999 -0.000062 0.001712
vn 0.999999 -0.000062 0.001712
vn 0.999999 -0.000062 0.001712
vn 0.999999 -0.000062 0.001712
vn 0.999999 -0.000062 0.001712
vn 0.999999 -0.000062 0.001712
vn 0.999999 -0.000062 0.001712
vn 0.999999 -0.000062 0.001712
vn 0.901076 -0.433659 0.001543
vn 0.901076 -0.433659 0.001543
vn 0.901076 -0.433659 0.001543
vn 0.901076 -0.433659 0.001543
vn 0.900361 -0.000055 0.435144
vn 0.900361 -0.000055 0.435144
vn 0.900361 -0.000055 0.435144
vn 0.900361 -0.000055 0.435144
vn 0.901845 -0.000056 -0.432059
vn 0.901845 -0.000056 -0.432059
vn 0.901845 -0.000056 -0.432059
vn 0.901845 -0.000056 -0.432059
vn 0.901131 0.433545 0.001542
vn 0.901131 0.433545 0.001542
vn 0.901131 0.433545 0.001542
vn 0.901131 0.433545 0.001542
vn 0.749421 -0.468836 -0.467505
vn 0.749421 -0.468836 -0.467505
vn 0.749421 -0.468836 -0.467505
vn 0.749421 -0.468836 -0.467505
vn 0.747816 -0.468835 0.470069
vn 0.747816 -0.468835 0.470069
vn 0.747816 -0.468835 0.470069
vn 0.747816 -0.468835 0.470069
vn 0.747871 0.468745 0.470071
vn 0.747871 0.468745 0.470071
vn 0.747871 0.468745 0.470071
vn 0.747871 0.468745 0.470071
vn 0.749477 0.468745 -0.467506
vn 0.749477 0.468745 -0.467506
vn 0.749477 0.468745 -0.467506
vn 0.749477 0.468745 -0.467506
vn 0.576322 -0.577388 0.578339
vn 0.576322 -0.577388 0.578339
vn 0.576322 -0.577388 0.578339
vn 0.576322 -0.577388 0.578339
vn -0.999999 0.000061 -0.001712
vn -0.999999 0.000061 -0.001712
vn -0.999999 0.000061 -0.001712
vn -0.999999 0.000061 -0.001712
vn -0.999999 0.000062 -0.001712
vn -0.999999 0.000062 -0.001712
vn -0.999999 0.000062 -0.001712
vn -0.999999 0.000062 -0.001712
vn -0.999999 0.000062 -0.001712
vn -0.999999 0.000062 -0.001712
vn -0.999999 0.000062 -0.001712
vn -0.999999 0.000062 -0.001712
vn -0.999999 0.000062 -0.001712
vn -0.999999 0.000062 -0.001712
vn -0.999999 0.000062 -0.001712
vn -0.999999 0.000062 -0.001712
vn -0.999999 0.000062 -0.001712
vn -0.999999 0.000062 -0.001712
vn -0.999999 0.000062 -0.001712
vn -0.999999 0.000062 -0.001712
vn -0.625309 0.000039 0.780377
vn -0.625309 0.000039 0.780377
vn -0.625309 0.000039 0.780377
vn -0.625309 0.000039 0.780377
vn -0.622638 0.000038 -0.782510
vn -0.622638 0.000038 -0.782510
vn -0.622638 0.000038 -0.782510
vn -0.622638 0.000038 -0.782510
vn -0.624027 -0.781402 -0.001067
vn -0.624027 -0.781402 -0.001067
vn -0.624027 -0.781402 -0.001067
vn -0.624027 -0.781402 -0.001067
vn -0.623926 0.781483 -0.001069
vn -0.623926 0.781483 -0.001069
vn -0.623926 0.781483 -0.001069
vn -0.623926 0.781483 -0.001069
vn -0.578371 -0.577318 0.576360
vn -0.578371 -0.577318 0.576360
vn -0.578371 -0.577318 0.576360
vn -0.578371 -0.577318 0.576360
vn -0.576336 0.577383 -0.578331
vn -0.576336 0.577383 -0.578331
vn -0.576336 0.577383 -0.578331
vn -0.576336 0.577383 -0.578331
vn -0.576400 -0.577319 -0.578330
vn -0.576400 -0.577319 -0.578330
vn -0.576400 -0.577319 -0.578330
vn -0.576400 -0.577319 -0.578330
vn -0.939220 0.243592 0.241926
vn -0.939220 0.243592 0.241926
vn -0.939220 0.243592 0.241926
vn -0.939220 0.243592 0.241926
vn -0.938386 0.243592 -0.245141
vn -0.938386 0.243592 -0.245141
vn -0.938386 0.243592 -0.245141
vn -0.938386 0.243592 -0.245141
vn -0.938417 -0.243474 -0.245140
vn -0.938417 -0.243474 -0.245140
vn -0.938417 -0.243474 -0.245140
vn -0.938417 -0.243474 -0.245140
vn -0.939250 -0.243476 0.241928
vn -0.939250 -0.243476 0.241928
vn -0.939250 -0.243476 0.241928
vn -0.939250 -0.243476 0.241928
vn -0.881492 0.333165 -0.334624
vn -0.881492 0.333165 -0.334624
vn -0.881492 0.333165 -0.334624
vn -0.882631 0.333169 0.331605
vn -0.882631 0.333169 0.331605
vn -0.882631 0.333169 0.331605
vn -0.882672 -0.333058 0.331605
vn -0.882672 -0.333058 0.331605
vn -0.882672 -0.333058 0.331605
vn -0.881530 -0.333063 -0.334626
vn -0.881530 -0.333063 -0.334626
vn -0.881530 -0.333063 -0.334626
vn -0.708317 0.000045 0.705895
vn -0.708317 0.000045 0.705895
vn -0.708317 0.000045 0.705895
vn -0.708317 0.000045 0.705895
vn -0.707151 -0.707062 -0.001210
vn -0.707151 -0.707062 -0.001210
vn -0.707151 -0.707062 -0.001210
vn -0.707151 -0.707062 -0.001210
vn -0.705912 0.000043 -0.708300
vn -0.705912 0.000043 -0.708300
vn -0.705912 0.000043 -0.708300
vn -0.705912 0.000043 -0.708300
vn -0.707069 0.707143 -0.001211
vn -0.707069 0.707143 -0.001211
vn -0.707069 0.707143 -0.001211
vn -0.707069 0.707143 -0.001211
vn -0.901075 0.433660 -0.001543
vn -0.901075 0.433660 -0.001543
vn -0.901075 0.433660 -0.001543
vn -0.901075 0.433660 -0.001543
vn -0.901845 0.000056 0.432059
vn -0.901845 0.000056 0.432059
vn -0.901845 0.000056 0.432059
vn -0.901845 0.000056 0.432059
vn -0.900361 0.000055 -0.435144
vn -0.900361 0.000055 -0.435144
vn -0.900361 0.000055 -0.435144
vn -0.900361 0.000055 -0.435144
vn -0.901129 -0.433548 -0.001542
vn -0.901129 -0.433548 -0.001542
vn -0.901129 -0.433548 -0.001542
vn -0.901129 -0.433548 -0.001542
vn -0.999999 0.000064 -0.001712
vn -0.999999 0.000064 -0.001712
vn -0.999999 0.000064 -0.001712
vn -0.999999 0.000064 -0.001712
vn -0.999999 0.000062 -0.001712
vn -0.999999 0.000062 -0.001712
vn -0.999999 0.000062 -0.001712
vn -0.999999 0.000062 -0.001712
vn -0.999999 0.000062 -0.001712
vn -0.999999 0.000062 -0.001712
vn -0.999999 0.000062 -0.001712
vn -0.999999 0.000062 -0.001712
vn -0.999999 0.000062 -0.001712
vn -0.999999 0.000062 -0.001712
vn -0.999999 0.000062 -0.001712
vn -0.999999 0.000062 -0.001712
vn -0.901077 0.433657 -0.001543
vn -0.901077 0.433657 -0.001543
vn -0.901077 0.433657 -0.001543
vn -0.901077 0.433657 -0.001543
vn -0.901845 0.000056 0.432059
vn -0.901845 0.000056 0.432059
vn -0.901845 0.000056 0.432059
vn -0.901845 0.000056 0.432059
vn -0.900361 0.000055 -0.435144
vn -0.900361 0.000055 -0.435144
vn -0.900361 0.000055 -0.435144
vn -0.900361 0.000055 -0.435144
vn -0.901129 -0.433548 -0.001542
vn -0.901129 -0.433548 -0.001542
vn -0.901129 -0.433548 -0.001542
vn -0.901129 -0.433548 -0.001542
vn -0.747815 0.468837 -0.470070
vn -0.747815 0.468837 -0.470070
vn -0.747815 0.468837 -0.470070
vn -0.747815 0.468837 -0.470070
vn -0.749418 0.468839 0.467507
vn -0.749418 0.468839 0.467507
vn -0.749418 0.468839 0.467507
vn -0.749418 0.468839 0.467507
vn -0.749480 -0.468739 0.467508
vn -0.749480 -0.468739 0.467508
vn -0.749480 -0.468739 0.467508
vn -0.749480 -0.468739 0.467508
vn -0.747874 -0.468743 -0.470067
vn -0.747874 -0.468743 -0.470067
vn -0.747874 -0.468743 -0.470067
vn -0.747874 -0.468743 -0.470067
vn -0.578309 0.577381 0.576359
vn -0.578309 0.577381 0.576359
vn -0.578309 0.577381 0.576359
vn -0.578309 0.577381 0.576359
vn -0.576401 -0.577320 -0.578329
vn -0.576401 -0.577320 -0.578329
vn -0.576401 -0.577320 -0.578329
vn 0.001712 -0.000001 -0.999999
vn 0.001712 -0.000001 -0.999999
vn 0.001712 -0.000001 -0.999999
vn 0.001712 -0.000001 -0.999999
vn 0.001712 -0.000001 -0.999999
vn 0.001712 -0.000001 -0.999999
vn 0.001712 -0.000001 -0.999999
vn 0.001712 -0.000001 -0.999999
vn 0.001712 -0.000001 -0.999999
vn 0.001712 -0.000001 -0.999999
vn 0.001712 -0.000001 -0.999999
vn 0.001712 -0.000001 -0.999999
vn 0.001712 -0.000001 -0.999999
vn 0.001712 -0.000001 -0.999999
vn 0.001712 -0.000001 -0.999999
vn 0.001712 -0.000001 -0.999999
vn 0.001712 -0.000001 -0.999999
vn 0.001712 -0.000001 -0.999999
vn 0.001712 -0.000001 -0.999999
vn 0.001712 -0.000001 -0.999999
vn 0.001116 0.781444 -0.623974
vn 0.001116 0.781444 -0.623974
vn 0.001116 0.781444 -0.623974
vn 0.001116 0.781444 -0.623974
vn 0.001020 -0.781446 -0.623973
vn 0.001020 -0.781446 -0.623973
vn 0.001020 -0.781446 -0.623973
vn 0.001020 -0.781446 -0.623973
vn -0.780377 0.000048 -0.625310
vn -0.780377 0.000048 -0.625310
vn -0.780377 0.000048 -0.625310
vn -0.780377 0.000048 -0.625310
vn 0.782513 -0.000049 -0.622634
vn 0.782513 -0.000049 -0.622634
vn 0.782513 -0.000049 -0.622634
vn 0.782513 -0.000049 -0.622634
vn -0.576327 0.577388 -0.578334
vn -0.576327 0.577388 -0.578334
vn -0.576327 0.577388 -0.578334
vn -0.576327 0.577388 -0.578334
vn 0.578303 -0.577392 -0.576355
vn 0.578303 -0.577392 -0.576355
vn 0.578303 -0.577392 -0.576355
vn 0.578303 -0.577392 -0.576355
vn -0.576396 -0.577316 -0.578336
vn -0.576396 -0.577316 -0.578336
vn -0.576396 -0.577316 -0.578336
vn -0.576396 -0.577316 -0.578336
vn 0.245156 0.243519 -0.938401
vn 0.245156 0.243519 -0.938401
vn 0.245156 0.243519 -0.938401
vn 0.245156 0.243519 -0.938401
vn 0.245127 -0.243551 -0.938401
vn 0.245127 -0.243551 -0.938401
vn 0.245127 -0.243551 -0.938401
vn 0.245127 -0.243551 -0.938401
vn -0.241941 -0.243521 -0.939235
vn -0.241941 -0.243521 -0.939235
vn -0.241941 -0.243521 -0.939235
vn -0.241941 -0.243521 -0.939235
vn -0.241912 0.243549 -0.939235
vn -0.241912 0.243549 -0.939235
vn -0.241912 0.243549 -0.939235
vn -0.241912 0.243549 -0.939235
vn 0.334600 -0.333140 -0.881511
vn 0.334600 -0.333140 -0.881511
vn 0.334600 -0.333140 -0.881511
vn 0.334646 0.333094 -0.881510
vn 0.334646 0.333094 -0.881510
vn 0.334646 0.333094 -0.881510
vn -0.331582 0.333138 -0.882651
vn -0.331582 0.333138 -0.882651
vn -0.331582 0.333138 -0.882651
vn -0.331623 -0.333097 -0.882651
vn -0.331623 -0.333097 -0.882651
vn -0.331623 -0.333097 -0.882651
vn 0.001254 0.707108 -0.707104
vn 0.001254 0.707108 -0.707104
vn 0.001254 0.707108 -0.707104
vn 0.001254 0.707108 -0.707104
vn -0.705895 0.000043 -0.708316
vn -0.705895 0.000043 -0.708316
vn -0.705895 0.000043 -0.708316
vn -0.705895 0.000043 -0.708316
vn 0.001167 -0.707115 -0.707097
vn 0.001167 -0.707115 -0.707097
vn 0.001167 -0.707115 -0.707097
vn 0.001167 -0.707115 -0.707097
vn 0.708326 -0.000044 -0.705886
vn 0.708326 -0.000044 -0.705886
vn 0.708326 -0.000044 -0.705886
vn 0.708326 -0.000044 -0.705886
vn 0.435146 -0.000028 -0.900360
vn 0.435146 -0.000028 -0.900360
vn 0.435146 -0.000028 -0.900360
vn 0.435146 -0.000028 -0.900360
vn 0.001569 0.433603 -0.901103
vn 0.001569 0.433603 -0.901103
vn 0.001569 0.433603 -0.901103
vn 0.001569 0.433603 -0.901103
vn 0.001516 -0.433604 -0.901102
vn 0.001516 -0.433604 -0.901102
vn 0.001516 -0.433604 -0.901102
vn 0.001516 -0.433604 -0.901102
vn -0.432061 0.000026 -0.901844
vn -0.432061 0.000026 -0.901844
vn -0.432061 0.000026 -0.901844
vn -0.432061 0.000026 -0.901844
vn 0.001712 -0.000001 -0.999999
vn 0.001712 -0.000001 -0.999999
vn 0.001712 -0.000001 -0.999999
vn 0.001712 -0.000001 -0.999999
vn 0.001708 -0.000001 -0.999999
vn 0.001708 -0.000001 -0.999999
vn 0.001708 -0.000001 -0.999999
vn 0.001708 -0.000001 -0.999999
vn 0.001714 -0.000001 -0.999999
vn 0.001714 -0.000001 -0.999999
vn 0.001714 -0.000001 -0.999999
vn 0.001714 -0.000001 -0.999999
vn 0.001712 -0.000001 -0.999999
vn 0.001712 -0.000001 -0.999999
vn 0.001712 -0.000001 -0.999999
vn 0.001712 -0.000001 -0.999999
vn 0.435145 -0.000028 -0.900360
vn 0.435145 -0.000028 -0.900360
vn 0.435145 -0.000028 -0.900360
vn 0.435145 -0.000028 -0.900360
vn 0.001569 0.433603 -0.901103
vn 0.001569 0.433603 -0.901103
vn 0.001569 0.433603 -0.901103
vn 0.001569 0.433603 -0.901103
vn 0.001516 -0.433605 -0.901102
vn 0.001516 -0.433605 -0.901102
vn 0.001516 -0.433605 -0.901102
vn 0.001516 -0.433605 -0.901102
vn -0.432060 0.000026 -0.901845
vn -0.432060 0.000026 -0.901845
vn -0.432060 0.000026 -0.901845
vn -0.432060 0.000026 -0.901845
vn 0.470042 -0.468819 -0.747843
vn 0.470042 -0.468819 -0.747843
vn 0.470042 -0.468819 -0.747843
vn 0.470042 -0.468819 -0.747843
vn 0.470101 0.468759 -0.747843
vn 0.470101 0.468759 -0.747843
vn 0.470101 0.468759 -0.747843
vn 0.470101 0.468759 -0.747843
vn -0.467477 0.468819 -0.749449
vn -0.467477 0.468819 -0.749449
vn -0.467477 0.468819 -0.749449
vn -0.467477 0.468819 -0.749449
vn -0.467539 -0.468760 -0.749448
vn -0.467539 -0.468760 -0.749448
vn -0.467539 -0.468760 -0.749448
vn -0.467539 -0.468760 -0.749448
vn 0.578379 0.577315 -0.576355
vn 0.578379 0.577315 -0.576355
vn 0.578379 0.577315 -0.576355
vn 0.578379 0.577315 -0.576355
vn -0.001711 0.000001 0.999999
vn -0.001711 0.000001 0.999999
vn -0.001711 0.000001 0.999999
vn -0.001711 0.000001 0.999999
vn -0.001712 0.000001 0.999999
vn -0.001712 0.000001 0.999999
vn -0.001712 0.000001 0.999999
vn -0.001712 0.000001 0.999999
vn -0.001712 0.000001 0.999999
vn -0.001712 0.000001 0.999999
vn -0.001712 0.000001 0.999999
vn -0.001712 0.000001 0.999999
vn -0.001712 0.000001 0.999999
vn -0.001712 0.000001 0.999999
vn -0.001712 0.000001 0.999999
vn -0.001712 0.000001 0.999999
vn -0.001712 0.000001 0.999999
vn -0.001712 0.000001 0.999999
vn -0.001712 0.000001 0.999999
vn -0.001712 0.000001 0.999999
vn -0.001117 -0.781446 0.623972
vn -0.001117 -0.781446 0.623972
vn -0.001117 -0.781446 0.623972
vn -0.001117 -0.781446 0.623972
vn -0.001020 0.781443 0.623976
vn -0.001020 0.781443 0.623976
vn -0.001020 0.781443 0.623976
vn -0.001020 0.781443 0.623976
vn -0.782508 0.000049 0.622640
vn -0.782508 0.000049 0.622640
vn -0.782508 0.000049 0.622640
vn -0.782508 0.000049 0.622640
vn 0.780372 -0.000048 0.625315
vn 0.780372 -0.000048 0.625315
vn 0.780372 -0.000048 0.625315
vn 0.780372 -0.000048 0.625315
vn -0.578373 -0.577315 0.576361
vn -0.578373 -0.577315 0.576361
vn -0.578373 -0.577315 0.576361
vn -0.578373 -0.577315 0.576361
vn 0.576394 0.577311 0.578344
vn 0.576394 0.577311 0.578344
vn 0.576394 0.577311 0.578344
vn 0.576394 0.577311 0.578344
vn -0.578302 0.577388 0.576360
vn -0.578302 0.577388 0.576360
vn -0.578302 0.577388 0.576360
vn -0.578302 0.577388 0.576360
vn 0.241911 -0.243548 0.939235
vn 0.241911 -0.243548 0.939235
vn 0.241911 -0.243548 0.939235
vn 0.241911 -0.243548 0.939235
vn 0.241939 0.243519 0.939236
vn 0.241939 0.243519 0.939236
vn 0.241939 0.243519 0.939236
vn 0.241939 0.243519 0.939236
vn -0.245124 0.243549 0.938402
vn -0.245124 0.243549 0.938402
vn -0.245124 0.243549 0.938402
vn -0.245124 0.243549 0.938402
vn -0.245156 -0.243518 0.938402
vn -0.245156 -0.243518 0.938402
vn -0.245156 -0.243518 0.938402
vn -0.245156 -0.243518 0.938402
vn 0.331627 0.333098 0.882649
vn 0.331627 0.333098 0.882649
vn 0.331627 0.333098 0.882649
vn 0.331587 -0.333135 0.882650
vn 0.331587 -0.333135 0.882650
vn 0.331587 -0.333135 0.882650
vn -0.334646 -0.333096 0.881510
vn -0.334646 -0.333096 0.881510
vn -0.334646 -0.333096 0.881510
vn -0.334605 0.333138 0.881509
vn -0.334605 0.333138 0.881509
vn -0.334605 0.333138 0.881509
vn -0.001254 -0.707103 0.707109
vn -0.001254 -0.707103 0.707109
vn -0.001254 -0.707103 0.707109
vn -0.001254 -0.707103 0.707109
vn -0.708315 0.000045 0.705897
vn -0.708315 0.000045 0.705897
vn -0.708315 0.000045 0.705897
vn -0.708315 0.000045 0.705897
vn -0.001167 0.707102 0.707110
vn -0.001167 0.707102 0.707110
vn -0.001167 0.707102 0.707110
vn -0.001167 0.707102 0.707110
vn 0.705894 -0.000043 0.708318
vn 0.705894 -0.000043 0.708318
vn 0.705894 -0.000043 0.708318
vn 0.705894 -0.000043 0.708318
vn 0.432061 -0.000026 0.901844
vn 0.432061 -0.000026 0.901844
vn 0.432061 -0.000026 0.901844
vn 0.432061 -0.000026 0.901844
vn -0.001569 -0.433601 0.901104
vn -0.001569 -0.433601 0.901104
vn -0.001569 -0.433601 0.901104
vn -0.001569 -0.433601 0.901104
vn -0.001516 0.433602 0.901103
vn -0.001516 0.433602 0.901103
vn -0.001516 0.433602 0.901103
vn -0.001516 0.433602 0.901103
vn -0.435146 0.000028 0.900360
vn -0.435146 0.000028 0.900360
vn -0.435146 0.000028 0.900360
vn -0.435146 0.000028 0.900360
vn -0.001712 0.000001 0.999999
vn -0.001712 0.000001 0.999999
vn -0.001712 0.000001 0.999999
vn -0.001712 0.000001 0.999999
vn -0.001712 0.000000 0.999999
vn -0.001712 0.000000 0.999999
vn -0.001712 0.000000 0.999999
vn -0.001712 0.000000 0.999999
vn -0.001712 0.000000 0.999999
vn -0.001712 0.000000 0.999999
vn -0.001712 0.000000 0.999999
vn -0.001712 0.000000 0.999999
vn -0.001712 0.000001 0.999999
vn -0.001712 0.000001 0.999999
vn -0.001712 0.000001 0.999999
vn -0.001712 0.000001 0.999999
vn 0.432062 -0.000026 0.901844
vn 0.432062 -0.000026 0.901844
vn 0.432062 -0.000026 0.901844
vn 0.432062 -0.000026 0.901844
vn -0.001569 -0.433604 0.901102
vn -0.001569 -0.433604 0.901102
vn -0.001569 -0.433604 0.901102
vn -0.001569 -0.433604 0.901102
vn -0.001516 0.433604 0.901102
vn -0.001516 0.433604 0.901102
vn -0.001516 0.433604 0.901102
vn -0.001516 0.433604 0.901102
vn -0.435147 0.000028 0.900360
vn -0.435147 0.000028 0.900360
vn -0.435147 0.000028 0.900360
vn -0.435147 0.000028 0.900360
vn 0.467535 0.468762 0.749448
vn 0.467535 0.468762 0.749448
vn 0.467535 0.468762 0.749448
vn 0.467535 0.468762 0.749448
vn 0.467480 -0.468816 0.749449
vn 0.467480 -0.468816 0.749449
vn 0.467480 -0.468816 0.749449
vn 0.467480 -0.468816 0.749449
vn -0.470099 -0.468762 0.747843
vn -0.470099 -0.468762 0.747843
vn -0.470099 -0.468762 0.747843
vn -0.470099 -0.468762 0.747843
vn -0.470042 0.468819 0.747844
vn -0.470042 0.468819 0.747844
vn -0.470042 0.468819 0.747844
vn -0.470042 0.468819 0.747844
vn 0.576324 -0.577380 0.578345
vn 0.576324 -0.577380 0.578345
vn 0.576324 -0.577380 0.578345
vn 0.576324 -0.577380 0.578345
vn 0.578376 0.577310 -0.576363
vn 0.578376 0.577310 -0.576363
vn 0.578376 0.577310 -0.576363
vn -0.576327 0.577388 -0.578334
vn -0.576327 0.577388 -0.578334
vn -0.576327 0.577388 -0.578334
vn -0.578297 0.577384 0.576368
vn -0.578297 0.577384 0.576368
vn -0.578297 0.577384 0.576368
vn -0.578374 -0.577313 0.576363
vn -0.578374 -0.577313 0.576363
vn -0.578374 -0.577313 0.576363
vn 0.576330 -0.577383 0.578335
vn 0.576330 -0.577383 0.578335
vn 0.576330 -0.577383 0.578335
vn 0.578304 -0.577391 -0.576354
vn 0.578304 -0.577391 -0.576354
vn 0.578304 -0.577391 -0.576354
vn 0.576400 0.577308 0.578342
vn 0.576400 0.577308 0.578342
vn 0.576400 0.577308 0.578342
s off
g Crate
usemtl CubeFBXASC046082SG
f 1/179/1 7/362/2 25/332/3 21/216/4
f 9/31/5 5/302/6 16/379/7 14/320/8
f 6/73/9 10/196/10 13/151/11 26/105/12
f 4/17/13 2/344/14 20/323/15 17/94/16
f 31/120/17 29/60/18 38/291/19 34/169/20
f 23/272/21 12/257/22 32/287/23 33/7/24
f 18/261/25 19/154/26 36/230/27 28/166/28
f 22/382/29 24/48/30 35/63/31 37/123/32
f 11/91/33 15/213/34 27/4/35 30/227/36
f 4/18/37 5/303/38 130/29/39 169/321/40
f 6/74/41 7/363/42 81/131/43 8/136/44
f 9/32/45 10/197/46 205/263/47 124/27/48
f 11/92/49 12/258/50 13/151/51 14/320/52
f 15/214/53 16/379/54 17/94/55 18/262/56
f 19/155/57 20/323/58 21/216/59 22/383/60
f 23/273/61 24/49/62 25/332/63 26/105/64
f 27/5/65 28/165/66 29/60/67
f 30/228/68 31/120/69 32/288/70
f 33/8/71 34/169/72 35/64/73
f 36/231/74 37/124/75 38/291/76
f 2/344/77 4/17/78 169/322/79 3/240/80
f 5/302/81 9/31/82 124/28/83 130/30/84
f 10/197/85 6/74/86 8/136/87 205/263/88
f 7/362/89 1/179/90 88/85/91 81/132/92
f 15/214/93 11/92/94 14/320/95 16/379/96
f 12/258/97 23/273/98 26/105/99 13/151/100
f 19/155/101 18/262/102 17/94/103 20/323/104
f 24/49/105 22/383/106 21/216/107 25/332/108
f 13/151/109 10/196/110 9/31/111 14/320/112
f 4/17/113 17/94/114 16/379/115 5/302/116
f 1/179/117 21/216/118 20/323/119 2/344/120
f 6/73/121 26/105/122 25/332/123 7/362/124
f 29/60/125 31/120/126 30/228/127 27/5/128
f 31/120/129 34/169/130 33/8/131 32/288/132
f 38/291/133 29/60/134 28/165/135 36/231/136
f 34/169/137 38/291/138 37/124/139 35/64/140
f 18/262/141 28/165/142 27/5/143 15/214/144
f 32/288/145 12/258/146 11/92/147 30/228/148
f 35/64/149 24/49/150 23/273/151 33/8/152
f 22/383/153 37/124/154 36/231/155 19/155/156
f 3/241/157 88/86/158 1/180/159 2/345/160
f 40/347/161 47/36/162 67/280/163 63/335/164
f 50/82/165 44/78/166 58/325/167 56/265/168
f 46/139/169 51/369/170 55/96/171 68/54/172
f 43/307/173 41/244/174 62/52/175 59/218/176
f 73/66/177 71/10/178 80/23/179 76/294/180
f 65/220/181 54/205/182 74/233/183 75/127/184
f 60/385/185 61/276/186 78/351/187 70/110/188
f 64/107/189 66/388/190 77/186/191 79/247/192
f 53/39/193 57/158/194 69/337/195 72/172/196
f 43/308/197 44/79/198 45/365/199 211/266/200
f 46/140/201 47/37/202 48/201/203 49/311/204
f 50/83/205 51/370/206 52/143/207 127/376/208
f 53/40/209 54/206/210 55/96/211 56/265/212
f 57/159/213 58/325/214 59/218/215 60/386/216
f 61/277/217 62/52/218 63/335/219 64/108/220
f 65/221/221 66/389/222 67/280/223 68/54/224
f 69/338/225 70/111/226 71/10/227
f 72/173/228 73/66/229 74/234/230
f 75/128/231 76/294/232 77/187/233
f 78/352/234 79/248/235 80/23/236
f 41/245/237 43/308/238 211/266/239 42/20/240
f 44/78/241 50/82/242 127/377/243 45/366/244
f 51/371/245 46/141/246 49/312/247 52/144/248
f 47/36/249 40/347/250 39/183/251 48/202/252
f 57/159/253 53/40/254 56/265/255 58/325/256
f 54/206/257 65/221/258 68/54/259 55/96/260
f 61/277/261 60/386/262 59/218/263 62/52/264
f 66/389/265 64/108/266 63/335/267 67/280/268
f 55/96/269 51/369/270 50/82/271 56/265/272
f 43/307/273 59/218/274 58/325/275 44/78/276
f 40/347/277 63/335/278 62/52/279 41/244/280
f 46/139/281 68/54/282 67/280/283 47/36/284
f 71/10/285 73/66/286 72/173/287 69/338/288
f 73/66/289 76/294/290 75/128/291 74/234/292
f 80/23/293 71/10/294 70/111/295 78/352/296
f 76/294/297 80/23/298 79/248/299 77/187/300
f 60/386/301 70/111/302 69/338/303 57/159/304
f 74/234/305 54/206/306 53/40/307 72/173/308
f 77/187/309 66/389/310 65/221/311 75/128/312
f 64/108/313 79/248/314 78/352/315 61/277/316
f 42/20/317 39/184/318 40/348/319 41/245/320
f 82/296/321 87/315/322 106/55/323 102/329/324
f 89/374/325 85/251/326 97/44/327 95/161/328
f 86/26/329 90/147/330 94/268/331 107/340/332
f 84/354/333 83/189/334 101/162/335 98/211/336
f 112/236/337 110/175/338 119/133/339 115/14/340
f 104/199/341 93/99/342 113/341/343 114/116/344
f 99/101/345 100/269/346 117/70/347 109/13/348
f 103/222/349 105/282/350 116/176/351 118/237/352
f 92/209/353 96/327/354 108/114/355 111/68/356
f 84/355/357 85/252/358 39/184/359 208/95/360
f 86/26/361 87/315/362 88/86/363 166/364/364
f 89/374/365 90/147/366 91/43/367 48/201/368
f 92/210/369 93/100/370 94/268/371 95/161/372
f 96/328/373 97/44/374 98/211/375 99/101/376
f 100/269/377 101/162/378 102/329/379 103/223/380
f 104/390/381 105/283/382 106/55/383 107/340/384
f 108/115/385 109/13/386 110/175/387
f 111/69/388 112/236/389 113/342/390
f 114/117/391 115/14/392 116/177/393
f 117/70/394 118/238/395 119/133/396
f 83/190/397 84/355/398 208/95/399 199/80/400
f 85/253/401 89/375/402 48/202/403 39/183/404
f 90/147/405 86/26/406 166/364/407 91/43/408
f 87/316/409 82/297/410 81/132/411 88/85/412
f 96/328/413 92/210/414 95/161/415 97/44/416
f 93/100/417 104/390/418 107/340/419 94/268/420
f 100/269/421 99/101/422 98/211/423 101/162/424
f 105/283/425 103/223/426 102/329/427 106/55/428
f 94/268/429 90/147/430 89/374/431 95/161/432
f 84/354/433 98/211/434 97/44/435 85/251/436
f 82/296/437 102/329/438 101/162/439 83/189/440
f 86/26/441 107/340/442 106/55/443 87/315/444
f 110/175/445 112/236/446 111/69/447 108/115/448
f 112/236/449 115/14/450 114/117/451 113/342/452
f 119/133/453 110/175/454 109/13/455 117/70/456
f 115/14/457 119/133/458 118/238/459 116/177/460
f 99/101/461 109/13/462 108/115/463 96/328/464
f 113/342/465 93/100/466 92/210/467 111/69/468
f 116/177/469 105/283/470 104/390/471 114/117/472
f 103/223/473 118/238/474 117/70/475 100/269/476
f 199/81/477 81/132/478 82/297/479 83/191/480
f 120/298/481 126/87/482 145/164/483 141/224/484
f 128/148/485 123/254/486 136/212/487 134/150/488
f 125/317/489 129/256/490 133/378/491 146/331/492
f 122/356/493 121/192/494 140/330/495 137/102/496
f 151/343/497 149/286/498 158/301/499 154/178/500
f 143/284/501 132/89/502 152/118/503 153/15/504
f 138/270/505 139/163/506 156/239/507 148/3/508
f 142/1/509 144/56/510 155/71/511 157/134/512
f 131/318/513 135/45/514 147/225/515 150/58/516
f 122/357/517 123/255/518 124/28/519 204/367/520
f 125/317/521 126/87/522 127/376/523 163/138/524
f 128/148/525 129/256/526 170/93/527 130/29/528
f 131/319/529 132/90/530 133/378/531 134/150/532
f 135/46/533 136/212/534 137/102/535 138/270/536
f 139/163/537 140/330/538 141/224/539 142/2/540
f 143/285/541 144/57/542 145/164/543 146/331/544
f 147/226/545 148/3/546 149/286/547
f 150/59/548 151/343/549 152/119/550
f 153/16/551 154/178/552 155/72/553
f 156/239/554 157/135/555 158/301/556
f 121/193/557 122/358/558 204/368/559 212/41/560
f 123/255/561 128/149/562 130/30/563 124/28/564
f 129/256/565 125/317/566 163/138/567 170/93/568
f 126/88/569 120/299/570 45/366/571 127/377/572
f 135/46/573 131/319/574 134/150/575 136/212/576
f 132/90/577 143/285/578 146/331/579 133/378/580
f 139/163/581 138/270/582 137/102/583 140/330/584
f 144/57/585 142/2/586 141/224/587 145/164/588
f 133/378/589 129/256/590 128/148/591 134/150/592
f 122/356/593 137/102/594 136/212/595 123/254/596
f 120/298/597 141/224/598 140/330/599 121/192/600
f 125/317/601 146/331/602 145/164/603 126/87/604
f 149/286/605 151/343/606 150/59/607 147/226/608
f 151/343/609 154/178/610 153/16/611 152/119/612
f 158/301/613 149/286/614 148/3/615 156/239/616
f 154/178/617 158/301/618 157/135/619 155/72/620
f 138/270/621 148/3/622 147/226/623 135/46/624
f 152/119/625 132/90/626 131/319/627 150/59/628
f 155/72/629 144/57/630 143/285/631 153/16/632
f 142/2/633 157/135/634 156/239/635 139/163/636
f 212/41/637 45/365/638 120/300/639 121/193/640
f 130/29/641 170/93/642 169/321/643
f 159/194/644 165/198/645 185/229/646 181/106/647
f 167/259/648 162/242/649 176/271/650 174/215/651
f 164/304/652 168/33/653 173/47/654 186/6/655
f 161/75/656 160/359/657 180/217/658 177/384/659
f 191/19/660 189/346/661 198/185/662 194/65/663
f 183/167/664 172/152/665 192/181/666 193/292/667
f 178/156/668 179/50/669 196/125/670 188/61/671
f 182/274/672 184/333/673 195/349/674 197/21/675
f 171/380/676 175/103/677 187/289/678 190/121/679
f 161/76/680 162/243/681 163/138/682 52/143/683
f 164/305/684 165/200/685 166/364/686 3/241/687
f 167/260/688 168/34/689 169/321/690 170/93/691
f 171/381/692 172/153/693 173/47/694 174/215/695
f 175/104/696 176/271/697 177/384/698 178/157/699
f 179/51/700 180/217/701 181/106/702 182/275/703
f 183/168/704 184/334/705 185/229/706 186/6/707
f 187/290/708 188/62/709 189/346/710
f 190/122/711 191/19/712 192/182/713
f 193/293/714 194/65/715 195/350/716
f 196/126/717 197/22/718 198/185/719
f 160/360/720 161/77/721 52/145/722 49/313/723
f 162/243/724 167/260/725 170/93/726 163/138/727
f 168/35/728 164/306/729 3/240/730 169/322/731
f 165/200/732 159/195/733 91/43/734 166/364/735
f 175/104/736 171/381/737 174/215/738 176/271/739
f 172/153/740 183/168/741 186/6/742 173/47/743
f 179/51/744 178/157/745 177/384/746 180/217/747
f 184/334/748 182/275/749 181/106/750 185/229/751
f 173/47/752 168/33/753 167/259/754 174/215/755
f 161/75/756 177/384/757 176/271/758 162/242/759
f 159/194/760 181/106/761 180/217/762 160/359/763
f 164/304/764 186/6/765 185/229/766 165/198/767
f 189/346/768 191/19/769 190/122/770 187/290/771
f 191/19/772 194/65/773 193/293/774 192/182/775
f 198/185/776 189/346/777 188/62/778 196/126/779
f 194/65/780 198/185/781 197/22/782 195/350/783
f 178/157/784 188/62/785 187/290/786 175/104/787
f 192/182/788 172/153/789 171/381/790 190/122/791
f 195/350/792 184/334/793 183/168/794 193/293/795
f 182/275/796 197/22/797 196/126/798 179/51/799
f 49/311/800 91/43/801 159/195/802 160/361/803
f 200/246/804 207/324/805 227/174/806 223/232/807
f 209/207/808 203/203/809 218/219/810 216/160/811
f 206/38/812 210/372/813 215/387/814 228/339/815
f 202/309/816 201/142/817 222/336/818 219/109/819
f 233/353/820 231/295/821 240/314/822 236/188/823
f 225/112/824 214/97/825 234/129/826 235/24/827
f 220/278/828 221/170/829 238/249/830 230/11/831
f 224/9/832 226/281/833 237/84/834 239/146/835
f 213/326/836 217/53/837 229/235/838 232/67/839
f 202/310/840 203/204/841 204/367/842 205/264/843
f 206/38/844 207/324/845 208/95/846 42/20/847
f 209/208/848 210/373/849 211/267/850 212/42/851
f 213/326/852 214/98/853 215/387/854 216/160/855
f 217/53/856 218/219/857 219/109/858 220/279/859
f 221/171/860 222/336/861 223/232/862 224/9/863
f 225/113/864 226/281/865 227/174/866 228/339/867
f 229/235/868 230/12/869 231/295/870
f 232/67/871 233/353/872 234/130/873
f 235/25/874 236/188/875 237/84/876
f 238/250/877 239/146/878 240/314/879
f 201/142/880 202/309/881 205/263/882 8/136/883
f 203/203/884 209/207/885 212/41/886 204/368/887
f 210/372/888 206/38/889 42/20/890 211/266/891
f 207/324/892 200/246/893 199/80/894 208/95/895
f 217/53/896 213/326/897 216/160/898 218/219/899
f 214/98/900 225/113/901 228/339/902 215/387/903
f 221/171/904 220/279/905 219/109/906 222/336/907
f 226/281/908 224/9/909 223/232/910 227/174/911
f 215/387/912 210/372/913 209/207/914 216/160/915
f 202/309/916 219/109/917 218/219/918 203/203/919
f 200/246/920 223/232/921 222/336/922 201/142/923
f 206/38/924 228/339/925 227/174/926 207/324/927
f 231/295/928 233/353/929 232/67/930 229/235/931
f 233/353/932 236/188/933 235/25/934 234/130/935
f 240/314/936 231/295/937 230/12/938 238/250/939
f 236/188/940 240/314/941 239/146/942 237/84/943
f 220/279/944 230/12/945 229/235/946 217/53/947
f 234/130/948 214/98/949 213/326/950 232/67/951
f 237/84/952 226/281/953 225/113/954 235/25/955
f 224/9/956 239/146/957 238/250/958 221/171/959
f 8/136/960 199/80/961 200/246/962 201/142/963
f 48/201/964 91/43/965 49/311/966
f 52/143/967 163/138/968 127/376/969
f 212/41/970 211/266/971 45/365/972
f 204/367/973 124/28/974 205/264/975
f 81/132/976 199/81/977 8/137/978
f 3/241/979 166/364/980 88/86/981
f 208/95/982 39/184/983 42/20/984
