# This file uses centimeters as units for non-parametric coordinates.

mtllib floor_3.mtl
g default
v -10.750427 1.160747 -10.750440
v -10.750427 0.085704 -10.750463
v -10.750427 1.160750 10.750537
v -10.750427 0.085707 10.750513
v 10.750452 1.160747 -10.750440
v 10.750452 0.085704 -10.750463
v 10.750435 1.160750 10.750537
v 10.750435 0.085707 10.750513
vt 0.847897 0.315487
vt 0.718410 0.612067
vt 0.000371 0.666296
vt 0.789863 0.034706
vt 0.665655 0.998914
vt 0.760532 0.315487
vt 0.701780 0.944659
vt 0.665655 0.667958
vt 0.760532 0.034706
vt 0.332963 0.333704
vt 0.803902 0.034706
vt 0.774572 0.315487
vt 0.718410 0.944659
vt 0.332963 0.666296
vt 0.774572 0.034706
vt 0.334700 0.998914
vt 0.789863 0.315487
vt 0.833858 0.034706
vt 0.701780 0.612067
vt 0.833858 0.315487
vt 0.334700 0.667958
vt 0.847897 0.034706
vt 0.000371 0.333704
vt 0.803902 0.315487
vn -0.000000 0.000000 1.000000
vn -0.000000 0.000000 1.000000
vn -0.000000 0.000000 1.000000
vn -0.000000 0.000000 1.000000
vn -1.000000 0.000000 0.000000
vn -1.000000 0.000000 0.000000
vn -1.000000 0.000000 0.000000
vn -1.000000 0.000000 0.000000
vn 0.000000 -1.000000 0.000000
vn 0.000000 -1.000000 0.000000
vn 0.000000 -1.000000 0.000000
vn 0.000000 -1.000000 0.000000
vn -0.000000 1.000000 -0.000000
vn -0.000000 1.000000 -0.000000
vn -0.000000 1.000000 -0.000000
vn -0.000000 1.000000 -0.000000
vn 1.000000 0.000000 0.000001
vn 1.000000 0.000000 0.000001
vn 1.000000 0.000000 0.000001
vn 1.000000 0.000000 0.000001
vn 0.000000 -0.000000 -1.000000
vn 0.000000 -0.000000 -1.000000
vn 0.000000 -0.000000 -1.000000
vn 0.000000 -0.000000 -1.000000
s off
g FloorFBXASC046195
usemtl TorusFBXASC046007SG
f 4/20/1 8/18/2 7/22/3 3/1/4
f 4/19/5 3/2/6 1/13/7 2/7/8
f 6/5/9 8/16/10 4/21/11 2/8/12
f 3/3/13 7/23/14 5/10/15 1/14/16
f 8/17/17 6/4/18 5/11/19 7/24/20
f 6/6/21 2/9/22 1/15/23 5/12/24
