# This file uses centimeters as units for non-parametric coordinates.

mtllib floor_1.mtl
g default
v -10.750430 1.092726 -10.750423
v -10.750430 0.017683 -10.750429
v -10.750430 1.092729 10.750435
v -10.750430 0.017686 10.750429
v 10.750448 1.092726 -10.750423
v 10.750448 0.017683 -10.750429
v 10.750428 1.092729 10.750435
v 10.750428 0.017686 10.750429
vt 0.789237 0.315487
vt 0.818567 0.034706
vt 0.333704 0.332962
vt 0.667037 0.612067
vt 0.332963 0.999629
vt 0.802770 0.666296
vt 0.804528 0.315487
vt 0.332963 0.667037
vt 0.802770 0.333704
vt 0.666296 0.000371
vt 0.683667 0.612067
vt 0.819399 0.666296
vt 0.818567 0.315487
vt 0.666296 0.332963
vt 0.819399 0.333704
vt 0.000371 0.999629
vt 0.667038 0.944659
vt 0.775198 0.034706
vt 0.804528 0.034706
vt 0.775198 0.315487
vt 0.000371 0.667038
vt 0.789237 0.034706
vt 0.333704 0.000371
vt 0.683667 0.944659
vn -0.000000 0.000000 1.000000
vn -0.000000 0.000000 1.000000
vn -0.000000 0.000000 1.000000
vn -0.000000 0.000000 1.000000
vn -1.000000 0.000000 0.000000
vn -1.000000 0.000000 0.000000
vn -1.000000 0.000000 0.000000
vn -1.000000 0.000000 0.000000
vn 0.000000 -1.000000 0.000000
vn 0.000000 -1.000000 0.000000
vn 0.000000 -1.000000 0.000000
vn 0.000000 -1.000000 0.000000
vn -0.000000 1.000000 -0.000000
vn -0.000000 1.000000 -0.000000
vn -0.000000 1.000000 -0.000000
vn -0.000000 1.000000 -0.000000
vn 1.000000 0.000000 0.000001
vn 1.000000 0.000000 0.000001
vn 1.000000 0.000000 0.000001
vn 1.000000 0.000000 0.000001
vn 0.000000 -0.000000 -1.000000
vn 0.000000 -0.000000 -1.000000
vn 0.000000 -0.000000 -1.000000
vn 0.000000 -0.000000 -1.000000
s off
g FloorFBXASC046199
usemtl TorusFBXASC046007SG
f 4/20/1 8/18/2 7/22/3 3/1/4
f 4/19/5 3/2/6 1/13/7 2/7/8
f 6/5/9 8/16/10 4/21/11 2/8/12
f 3/3/13 7/23/14 5/10/15 1/14/16
f 8/17/17 6/4/18 5/11/19 7/24/20
f 6/6/21 2/9/22 1/15/23 5/12/24
