# This file uses centimeters as units for non-parametric coordinates.

mtllib floor_2.mtl
g default
v -10.750488 1.121942 -10.750440
v -10.750488 0.046898 -10.750402
v -10.750488 1.121944 10.750415
v -10.750488 0.046902 10.750452
v 10.750429 1.121942 -10.750440
v 10.750429 0.046898 -10.750402
v 10.750427 1.121945 10.750415
v 10.750427 0.046902 10.750452
vt 0.833232 0.315487
vt 0.735781 0.612067
vt 0.000371 0.332962
vt 0.684409 0.612067
vt 0.666296 0.666296
vt 0.745867 0.315487
vt 0.719151 0.944659
vt 0.666296 0.333704
vt 0.745867 0.034706
vt 0.332963 0.000371
vt 0.701038 0.612067
vt 0.759906 0.315487
vt 0.735781 0.944659
vt 0.332963 0.332963
vt 0.759906 0.034706
vt 0.333704 0.666296
vt 0.684409 0.944659
vt 0.819193 0.034706
vt 0.719151 0.612067
vt 0.819193 0.315487
vt 0.333704 0.333704
vt 0.833232 0.034706
vt 0.000371 0.000371
vt 0.701038 0.944659
vn -0.000000 0.000000 1.000000
vn -0.000000 0.000000 1.000000
vn -0.000000 0.000000 1.000000
vn -0.000000 0.000000 1.000000
vn -1.000000 0.000000 0.000000
vn -1.000000 0.000000 0.000000
vn -1.000000 0.000000 0.000000
vn -1.000000 0.000000 0.000000
vn 0.000000 -1.000000 0.000000
vn 0.000000 -1.000000 0.000000
vn 0.000000 -1.000000 0.000000
vn 0.000000 -1.000000 0.000000
vn -0.000000 1.000000 -0.000000
vn -0.000000 1.000000 -0.000000
vn -0.000000 1.000000 -0.000000
vn -0.000000 1.000000 -0.000000
vn 1.000000 0.000000 0.000001
vn 1.000000 0.000000 0.000001
vn 1.000000 0.000000 0.000001
vn 1.000000 0.000000 0.000001
vn 0.000000 -0.000000 -1.000000
vn 0.000000 -0.000000 -1.000000
vn 0.000000 -0.000000 -1.000000
vn 0.000000 -0.000000 -1.000000
s off
g FloorFBXASC046196
usemtl TorusFBXASC046007SG
f 4/20/1 8/18/2 7/22/3 3/1/4
f 4/19/5 3/2/6 1/13/7 2/7/8
f 6/5/9 8/16/10 4/21/11 2/8/12
f 3/3/13 7/23/14 5/10/15 1/14/16
f 8/17/17 6/4/18 5/11/19 7/24/20
f 6/6/21 2/9/22 1/15/23 5/12/24
