# This file uses centimeters as units for non-parametric coordinates.

mtllib wall.mtl
g default
v -1.739465 22.641450 -10.750429
v -1.739465 24.749168 -10.750426
v -1.236983 22.641450 -10.750429
v -1.236983 24.749168 -10.750426
v -1.739465 23.258058 -10.750426
v -2.354534 24.132561 -10.750429
v -1.236983 1.221985 -10.750423
v -1.236983 31.092033 -10.750429
v -1.063747 31.265271 -10.750429
v -1.236983 2.755178 -10.750423
v -2.354534 1.221985 -10.750423
v -2.354534 2.138573 -10.750423
v -3.465545 1.221985 -10.750423
v -1.739465 22.641457 10.750419
v -1.739465 24.749168 10.750419
v -1.236983 24.749168 -0.000003
v -1.236983 22.641457 10.750419
v -1.236983 24.749168 10.750419
v -1.739465 24.132567 10.750419
v -1.236983 23.258065 -0.000003
v -1.236983 24.132561 -0.000003
v -2.354534 23.258065 10.750419
v -2.354534 24.132567 10.750419
v -1.236983 1.221988 0.000000
v -1.236983 1.221988 10.750423
v -1.236983 31.092040 -0.000005
v -1.063747 31.265277 10.750418
v -1.739465 2.755181 0.000000
v -1.236983 2.755181 0.000000
v -1.236983 2.755181 10.750423
v -2.354534 1.221988 10.750423
v -1.739465 2.138576 10.750422
v -2.354534 2.138576 0.000000
v -3.465545 1.221988 0.000000
v -3.465545 1.221988 10.750423
v -3.465545 0.000482 10.750423
v -3.465545 0.000478 0.000000
v -3.465545 0.000478 -10.750423
v 1.739465 22.641450 -10.750429
v 1.739465 24.749168 -10.750426
v 1.236983 22.641450 -10.750429
v 1.236983 24.749168 -10.750426
v 1.739465 23.258058 -10.750426
v 2.354534 23.258058 -10.750426
v 2.354534 24.132561 -10.750429
v 1.236983 1.221985 -10.750423
v -0.000000 31.265271 -10.750429
v 1.063747 31.265271 -10.750429
v 1.739465 2.755178 -10.750423
v 1.236983 2.755178 -10.750423
v 2.354534 1.221985 -10.750423
v 1.739465 2.138573 -10.750423
v 2.354534 2.138573 -10.750423
v 1.739465 22.641457 -0.000003
v 1.739465 24.749168 -0.000003
v 1.236983 24.749168 -0.000003
v 1.236983 22.641457 10.750419
v 1.236983 24.749168 10.750419
v 1.739465 24.132567 10.750419
v 1.236983 23.258065 -0.000003
v 1.236983 24.132561 -0.000003
v 2.354534 23.258065 -0.000003
v 1.236983 1.221988 0.000000
v 1.236983 1.221988 10.750423
v -0.000000 31.265271 -0.000005
v -0.000000 31.265277 10.750418
v 1.739465 2.755181 0.000000
v 1.236983 2.755181 0.000000
v 1.236983 2.755181 10.750423
v 2.354534 1.221988 0.000000
v 1.739465 2.138576 0.000000
v 2.354534 1.221988 10.750423
v 2.354534 2.138576 0.000000
v 3.465545 1.221988 0.000000
v 3.465545 1.221988 10.750423
v 3.465545 0.000482 10.750423
v 3.465545 0.000478 0.000000
v 3.465545 0.000478 -10.750423
v -1.739465 24.132561 -0.000003
v -1.739465 24.749168 -0.000003
v -1.739465 22.641457 -0.000003
v -1.236983 22.641457 -0.000003
v -1.739465 23.258065 -0.000003
v -1.739465 24.132561 -10.750429
v -2.354534 23.258065 -0.000003
v -2.354534 24.132561 -0.000003
v -2.354534 23.258058 -10.750426
v -1.063747 31.265271 -0.000005
v -1.739465 2.755178 -10.750423
v -1.739465 2.138573 -10.750423
v -1.739465 2.138576 0.000000
v -2.354534 1.221988 0.000000
v -1.739465 23.258065 10.750419
v -1.236983 31.092040 10.750418
v -1.739465 2.755181 10.750423
v -2.354534 2.138576 10.750422
v 1.739465 24.132561 -0.000003
v 1.236983 22.641457 -0.000003
v 1.739465 23.258065 -0.000003
v 1.739465 24.132561 -10.750429
v 2.354534 24.132561 -0.000003
v 1.063747 31.265271 -0.000005
v 1.236983 31.092033 -10.750429
v 1.236983 31.092040 -0.000005
v 3.465545 1.221985 -10.750423
v 1.739465 22.641457 10.750419
v 1.739465 24.749168 10.750419
v 1.739465 23.258065 10.750419
v 2.354534 23.258065 10.750419
v 2.354534 24.132567 10.750419
v 1.063747 31.265277 10.750418
v 1.236983 31.092040 10.750418
v 1.739465 2.755181 10.750423
v 1.739465 2.138576 10.750422
v 2.354534 2.138576 10.750422
v -4.731185 0.000478 -6.019243
v -3.678211 3.357547 -7.072216
v -2.176546 11.792411 -8.573884
v 2.176546 11.792411 -8.573884
v -4.731185 2.522538 -6.019245
v -3.678211 0.000478 -7.072219
v -3.678211 2.522538 -7.072216
v -4.731185 31.734841 -6.019251
v -2.176546 30.064135 -8.573887
v -3.678211 30.064135 -7.072223
v -4.731185 30.720066 -6.019248
v -3.678211 31.734834 -7.072223
v -3.678211 30.720059 -7.072219
v -3.678211 0.000478 -10.750429
v -3.678211 3.357543 -10.750429
v -2.176546 3.357543 -10.750429
v 2.176546 3.357543 -10.750429
v -2.176546 11.792411 -10.750429
v 2.176546 11.792411 -10.750429
v -3.678211 2.522538 -10.750429
v -4.731185 0.000478 -10.750429
v -4.731185 2.522538 -10.750429
v -3.678211 31.734834 -10.750432
v -3.678211 30.064135 -10.750436
v -2.176546 30.064135 -10.750436
v 2.176546 30.064135 -10.750436
v -2.176546 19.942905 -10.750432
v 2.176546 19.942905 -10.750432
v -3.678211 30.720059 -10.750432
v -4.731185 31.734834 -10.750432
v -4.731185 30.720059 -10.750432
v 3.054194 25.003513 -7.696242
v -3.054194 25.003513 -7.696242
v -2.176546 25.003520 -10.750432
v -3.054194 22.473213 -7.696238
v 2.176546 22.473213 -8.573884
v -2.176546 22.473213 -10.750432
v 2.176546 22.473213 -10.750432
v -3.054194 22.473213 -10.750432
v -3.054194 25.003520 -10.750432
v -2.176546 25.003520 -8.573887
v 3.730774 24.251836 -7.019658
v -3.730775 23.224890 -10.750432
v -3.730775 24.251836 -10.750432
v -3.730775 23.224890 -7.019658
v -2.176546 23.224890 -10.750432
v -2.176546 24.251836 -10.750432
v 2.176546 23.224890 -10.750432
v 3.054194 24.251836 -10.750432
v -3.054194 23.224890 -10.750432
v 3.054194 23.224890 -7.696238
v 4.731185 0.000478 -6.019243
v 2.176546 3.357543 -8.573884
v -2.176546 3.357543 -8.573884
v 3.678211 3.357547 -7.072216
v 4.731185 2.522538 -6.019245
v 3.678211 0.000478 -7.072219
v 3.678211 2.522538 -7.072216
v 4.731185 31.734841 -6.019251
v 2.176546 30.064135 -8.573887
v 3.678211 30.064135 -7.072223
v 2.176546 19.942905 -8.573887
v -2.176546 19.942905 -8.573887
v 4.731185 30.720066 -6.019248
v 3.678211 31.734834 -7.072223
v 3.678211 30.720059 -7.072219
v 3.678211 0.000478 -10.750429
v 3.678211 3.357543 -10.750429
v 3.678211 2.522538 -10.750429
v 4.731185 0.000478 -10.750429
v 4.731185 2.522538 -10.750429
v 3.678211 31.734834 -10.750432
v 3.678211 30.064135 -10.750436
v 3.678211 30.720059 -10.750432
v 4.731185 31.734834 -10.750432
v 4.731185 30.720059 -10.750432
v -0.000000 0.000478 -7.072219
v -0.000000 3.357547 -7.072216
v -0.000000 3.357543 -8.573884
v -0.000000 11.792411 -8.573884
v -0.000000 2.522538 -7.072216
v -0.000000 0.000478 -6.019243
v -0.000000 2.522538 -6.019245
v -0.000000 31.734834 -7.072223
v -0.000000 30.064135 -7.072223
v -0.000000 30.064135 -8.573887
v -0.000000 19.942905 -8.573887
v -0.000000 30.720059 -7.072219
v -0.000000 31.734841 -6.019251
v -0.000000 30.720066 -6.019248
v -0.000000 31.734834 -10.750432
v -0.000000 0.000478 -10.750429
v 2.176546 25.003520 -10.750432
v -0.000000 25.003513 -7.696242
v 3.054194 22.473213 -7.696238
v -2.176546 22.473213 -8.573884
v -0.000000 22.473213 -8.573884
v 3.054194 22.473213 -10.750432
v 3.054194 25.003520 -10.750432
v 2.176546 25.003520 -8.573887
v -0.000000 25.003520 -8.573887
v -0.000000 22.473213 -7.696238
v -3.730775 24.251836 -7.019658
v 3.730774 23.224890 -10.750432
v 3.730774 24.251836 -10.750432
v -0.000000 23.224890 -7.019658
v -0.000000 24.251836 -7.019658
v 3.730774 23.224890 -7.019658
v 2.176546 24.251836 -10.750432
v -3.054194 24.251836 -10.750432
v 3.054194 23.224890 -10.750432
v 3.054194 24.251836 -7.696238
v -0.000000 24.251830 -7.696238
v -3.054194 24.251830 -7.696238
v -0.000000 23.224890 -7.696238
v -3.054194 23.224890 -7.696238
v -4.731185 0.000482 6.019245
v -2.176546 3.357547 8.573881
v -3.678211 3.357547 7.072218
v 2.176546 11.792414 8.573881
v -4.731185 2.522541 6.019243
v -3.678211 0.000478 7.072218
v -3.678211 2.522538 7.072216
v -4.731185 31.734834 6.019238
v -2.176546 30.064135 8.573878
v 2.176546 30.064135 8.573878
v -3.678211 30.064141 7.072213
v 2.176546 19.942905 8.573879
v -4.731185 30.720059 6.019238
v -3.678211 31.734841 7.072211
v -3.678211 30.720066 7.072213
v -3.678211 0.000482 10.750429
v -3.678211 3.357547 10.750428
v 2.176546 3.357547 10.750428
v -2.176546 11.792414 10.750427
v 2.176546 11.792414 10.750427
v -3.678211 2.522541 10.750429
v -4.731185 0.000482 10.750429
v -4.731185 2.522541 10.750429
v -3.678211 31.734834 10.750424
v -3.678211 30.064141 10.750424
v 2.176546 30.064141 10.750424
v -2.176546 19.942905 10.750426
v 2.176546 19.942905 10.750426
v -3.678211 30.720066 10.750424
v -4.731185 31.734834 10.750424
v -4.731185 30.720066 10.750424
v -2.176546 25.003520 10.750425
v 2.176546 22.473213 8.573880
v -2.176546 22.473213 10.750426
v 2.176546 22.473213 10.750426
v -3.054194 22.473213 10.750426
v 3.054194 22.473213 10.750426
v -2.176546 25.003520 8.573879
v 3.054194 25.003520 10.750425
v 2.176546 25.003520 8.573879
v -2.176546 22.473213 8.573880
v 3.054194 22.473219 7.696232
v 3.730774 23.224896 7.019652
v -3.730775 24.251836 10.750424
v 3.730774 24.251836 10.750424
v -3.730775 23.224896 7.019652
v -2.176546 23.224896 10.750425
v 2.176546 23.224896 10.750425
v 2.176546 24.251836 10.750425
v 3.054194 24.251836 10.750425
v -3.054194 23.224896 10.750425
v -3.054194 24.251836 10.750425
v -3.054194 24.251843 7.696232
v 4.731185 0.000482 6.019245
v 2.176546 3.357547 8.573881
v 3.678211 3.357547 7.072218
v -2.176546 11.792414 8.573881
v 4.731185 2.522541 6.019243
v 3.678211 0.000478 7.072218
v 3.678211 2.522538 7.072216
v 4.731185 31.734834 6.019238
v 3.678211 30.064141 7.072213
v -2.176546 19.942905 8.573879
v 4.731185 30.720059 6.019238
v 3.678211 31.734841 7.072211
v 3.678211 30.720066 7.072213
v 3.678211 0.000482 10.750429
v 3.678211 3.357547 10.750428
v -2.176546 3.357547 10.750428
v 3.678211 2.522541 10.750429
v 4.731185 0.000482 10.750429
v 4.731185 2.522541 10.750429
v 3.678211 31.734834 10.750424
v 3.678211 30.064141 10.750424
v -2.176546 30.064141 10.750424
v 3.678211 30.720066 10.750424
v 4.731185 31.734834 10.750424
v 4.731185 30.720066 10.750424
v -0.000000 0.000478 7.072218
v -0.000000 3.357547 7.072218
v -0.000000 3.357547 8.573881
v -0.000000 11.792414 8.573881
v -0.000000 2.522538 7.072216
v -0.000000 0.000482 6.019245
v -0.000000 2.522541 6.019243
v -0.000000 31.734841 7.072211
v -0.000000 30.064141 7.072213
v -0.000000 30.064135 8.573878
v -0.000000 19.942905 8.573879
v -0.000000 30.720066 7.072213
v -0.000000 31.734834 6.019238
v -0.000000 30.720059 6.019238
v -0.000000 31.734834 10.750424
v -0.000000 0.000482 10.750429
v -3.054194 25.003520 7.696230
v 3.054194 25.003520 7.696230
v 2.176546 25.003520 10.750425
v -0.000000 25.003520 7.696230
v -0.000000 22.473213 8.573880
v -3.054194 25.003520 10.750425
v -0.000000 25.003520 8.573879
v -0.000000 22.473219 7.696232
v -3.054194 22.473219 7.696232
v -3.730775 24.251836 7.019652
v 3.730774 23.224890 10.750424
v -3.730774 23.224890 10.750424
v -0.000000 23.224896 7.019652
v -0.000000 24.251836 7.019650
v 3.730774 24.251843 7.019652
v -2.176546 24.251836 10.750425
v 3.054194 23.224896 10.750425
v 3.054194 24.251843 7.696232
v 3.054194 23.224896 7.696232
v -0.000000 24.251843 7.696232
v -0.000000 23.224896 7.696232
v -3.054194 23.224896 7.696232
v -2.354534 23.258058 -10.750426
v -2.354534 23.258065 -0.000003
v -2.354534 23.258065 -0.000003
v -2.354534 23.258065 -0.000003
v -2.354534 23.258065 -0.000003
v -1.739465 24.132561 -0.000003
v -1.739465 24.132561 -0.000003
v -1.739465 24.132561 -0.000003
v -1.739465 24.132561 -0.000003
v -2.354534 24.132561 -0.000003
v -2.354534 24.132561 -0.000003
v -2.354534 24.132561 -0.000003
v -2.354534 24.132561 -0.000003
v -1.739465 2.138573 -10.750423
v -1.739465 2.138576 0.000000
v -2.354534 2.138573 -10.750423
v -2.354534 2.138576 0.000000
v -1.739465 23.258065 10.750419
v -1.739465 23.258065 -0.000003
v -1.739465 23.258065 -0.000003
v -1.739465 23.258065 -0.000003
v -1.739465 23.258065 -0.000003
v -2.354534 24.132567 10.750419
v 1.236983 31.092033 -10.750429
v 1.236983 31.092040 -0.000005
v 2.354534 2.138573 -10.750423
v 2.354534 2.138576 0.000000
v 2.354534 1.221985 -10.750423
v 2.354534 1.221988 0.000000
v 1.739465 23.258065 10.750419
v 1.739465 23.258065 -0.000003
v 1.739465 23.258065 -0.000003
v 1.739465 23.258065 -0.000003
v 1.739465 23.258065 -0.000003
v 1.236983 31.092040 10.750418
v 2.354534 1.221988 10.750423
v -1.739465 24.132567 10.750419
v -1.739465 22.641450 -10.750429
v -1.739465 22.641457 -0.000003
v -1.739465 22.641457 -0.000003
v -1.739465 22.641457 -0.000003
v -1.739465 22.641457 -0.000003
v -1.063747 31.265271 -0.000005
v -1.063747 31.265271 -10.750429
v -1.063747 31.265277 10.750418
v -1.236983 31.092033 -10.750429
v -1.236983 31.092040 -0.000005
v -3.465545 1.221985 -10.750423
v -3.465545 1.221988 0.000000
v -3.465545 1.221988 10.750423
v 1.739465 24.749168 -0.000003
v 1.739465 24.749168 -0.000003
v 1.739465 24.749168 -0.000003
v 1.739465 24.749168 -0.000003
v 1.739465 24.749168 -10.750426
v 1.739465 22.641457 -0.000003
v 1.739465 22.641457 -0.000003
v 1.739465 22.641457 -0.000003
v 1.739465 22.641457 -0.000003
v 2.354534 23.258058 -10.750426
v 2.354534 23.258065 -0.000003
v 2.354534 23.258065 -0.000003
v 2.354534 23.258065 -0.000003
v 2.354534 23.258065 -0.000003
v 2.354534 24.132567 10.750419
v 2.354534 24.132561 -0.000003
v 2.354534 24.132561 -0.000003
v 2.354534 24.132561 -0.000003
v 2.354534 24.132561 -0.000003
v 1.063747 31.265271 -0.000005
v 1.063747 31.265271 -10.750429
v 1.739465 2.755181 0.000000
v 1.739465 2.755178 -10.750423
v 3.465545 1.221988 10.750423
v 3.465545 1.221988 0.000000
v 1.739465 2.138573 -10.750423
v 1.739465 2.138576 0.000000
v -3.678211 2.522538 -7.072216
v -3.678211 2.522538 -7.072216
v -3.678211 3.357547 -7.072216
v -3.678211 3.357547 -7.072216
v -0.000000 3.357547 -7.072216
v -4.731185 0.000478 -6.019243
v -4.731185 0.000478 -6.019243
v -4.731185 2.522538 -6.019245
v -4.731185 2.522538 -6.019245
v -0.000000 2.522538 -7.072216
v -4.731185 0.000478 -10.750429
v -0.000000 2.522538 -6.019245
v -3.678211 30.720059 -7.072219
v -3.678211 30.720059 -7.072219
v -3.678211 30.064135 -7.072223
v -3.678211 30.064135 -7.072223
v -0.000000 30.064135 -7.072223
v -0.000000 30.064135 -8.573887
v -2.176546 30.064135 -8.573887
v -2.176546 30.064135 -8.573887
v -4.731185 31.734841 -6.019251
v -4.731185 31.734841 -6.019251
v -4.731185 30.720066 -6.019248
v -4.731185 30.720066 -6.019248
v -0.000000 30.720059 -7.072219
v -4.731185 31.734834 -10.750432
v -0.000000 30.720066 -6.019248
v -3.678211 3.357543 -10.750429
v -3.678211 2.522538 -10.750429
v -4.731185 2.522538 -10.750429
v -3.678211 30.064135 -10.750436
v -2.176546 30.064135 -10.750436
v -3.678211 30.720059 -10.750432
v -4.731185 30.720059 -10.750432
v -0.000000 0.000478 -6.019243
v -0.000000 31.734841 -6.019251
v -2.176546 25.003520 -8.573887
v -2.176546 25.003520 -8.573887
v -0.000000 25.003520 -8.573887
v -2.176546 25.003520 -10.750432
v -2.176546 25.003520 -10.750432
v 2.176546 22.473213 -8.573884
v 2.176546 22.473213 -8.573884
v 2.176546 22.473213 -10.750432
v 2.176546 22.473213 -10.750432
v -0.000000 22.473213 -8.573884
v -3.054194 25.003513 -7.696242
v -3.054194 25.003513 -7.696242
v -0.000000 25.003513 -7.696242
v 3.054194 25.003513 -7.696242
v 3.054194 25.003513 -7.696242
v -3.054194 25.003520 -10.750432
v -3.054194 25.003520 -10.750432
v -3.054194 22.473213 -7.696238
v -3.054194 22.473213 -7.696238
v -0.000000 22.473213 -7.696238
v -3.054194 22.473213 -10.750432
v -3.054194 22.473213 -10.750432
v -2.176546 22.473213 -10.750432
v -2.176546 22.473213 -10.750432
v -3.054194 23.224890 -10.750432
v -3.054194 23.224890 -10.750432
v -0.000000 23.224890 -7.696238
v 3.054194 23.224890 -7.696238
v 3.054194 23.224890 -7.696238
v -3.730775 23.224890 -10.750432
v -3.730775 23.224890 -7.019658
v -3.730775 23.224890 -7.019658
v -0.000000 24.251836 -7.019658
v 3.730774 24.251836 -7.019658
v 3.730774 24.251836 -7.019658
v -0.000000 23.224890 -7.019658
v 3.678211 2.522538 -7.072216
v 3.678211 2.522538 -7.072216
v 3.678211 3.357547 -7.072216
v 3.678211 3.357547 -7.072216
v -0.000000 3.357543 -8.573884
v 2.176546 3.357543 -8.573884
v 2.176546 3.357543 -8.573884
v 4.731185 0.000478 -6.019243
v 4.731185 0.000478 -6.019243
v 4.731185 2.522538 -6.019245
v 4.731185 2.522538 -6.019245
v 4.731185 0.000478 -10.750429
v 3.678211 30.720059 -7.072219
v 3.678211 30.720059 -7.072219
v 3.678211 30.064135 -7.072223
v 3.678211 30.064135 -7.072223
v 2.176546 30.064135 -8.573887
v 2.176546 30.064135 -8.573887
v 4.731185 31.734841 -6.019251
v 4.731185 31.734841 -6.019251
v 4.731185 30.720066 -6.019248
v 4.731185 30.720066 -6.019248
v 4.731185 31.734834 -10.750432
v 3.678211 3.357543 -10.750429
v 3.678211 2.522538 -10.750429
v 4.731185 2.522538 -10.750429
v 3.678211 30.064135 -10.750436
v 3.678211 30.720059 -10.750432
v 4.731185 30.720059 -10.750432
v -2.176546 3.357543 -8.573884
v -2.176546 3.357543 -8.573884
v 2.176546 25.003520 -8.573887
v 2.176546 25.003520 -8.573887
v 2.176546 25.003520 -10.750432
v 2.176546 25.003520 -10.750432
v -2.176546 19.942905 -8.573887
v -2.176546 22.473213 -8.573884
v -2.176546 22.473213 -8.573884
v 3.054194 22.473213 -7.696238
v 3.054194 22.473213 -7.696238
v 3.054194 22.473213 -10.750432
v 3.054194 22.473213 -10.750432
v 3.054194 25.003520 -10.750432
v 3.054194 25.003520 -10.750432
v 3.054194 23.224890 -10.750432
v 3.054194 23.224890 -10.750432
v -0.000000 24.251830 -7.696238
v -3.054194 24.251830 -7.696238
v -3.054194 24.251830 -7.696238
v -3.054194 23.224890 -7.696238
v -3.054194 23.224890 -7.696238
v -3.054194 24.251836 -10.750432
v -3.054194 24.251836 -10.750432
v 3.054194 24.251836 -7.696238
v 3.054194 24.251836 -7.696238
v 3.730774 23.224890 -10.750432
v 3.730774 23.224890 -7.019658
v 3.730774 23.224890 -7.019658
v -3.730775 24.251836 -7.019658
v -3.730775 24.251836 -7.019658
v -3.678211 2.522538 7.072216
v -3.678211 2.522538 7.072216
v -3.678211 3.357547 7.072218
v -3.678211 3.357547 7.072218
v -0.000000 3.357547 7.072218
v -0.000000 3.357547 8.573881
v -2.176546 3.357547 8.573881
v -2.176546 3.357547 8.573881
v -4.731185 0.000482 6.019245
v -4.731185 0.000482 6.019245
v -4.731185 2.522541 6.019243
v -4.731185 2.522541 6.019243
v -0.000000 2.522538 7.072216
v -4.731185 0.000482 10.750429
v -0.000000 2.522541 6.019243
v -3.678211 30.720066 7.072213
v -3.678211 30.720066 7.072213
v -3.678211 30.064141 7.072213
v -3.678211 30.064141 7.072213
v -0.000000 30.064141 7.072213
v 2.176546 30.064141 10.750424
v 2.176546 30.064135 8.573878
v 2.176546 30.064135 8.573878
v -0.000000 30.064135 8.573878
v -2.176546 30.064135 8.573878
v -2.176546 30.064135 8.573878
v 2.176546 25.003520 8.573879
v 2.176546 25.003520 8.573879
v -4.731185 31.734834 6.019238
v -4.731185 31.734834 6.019238
v -4.731185 30.720059 6.019238
v -4.731185 30.720059 6.019238
v -0.000000 30.720066 7.072213
v -4.731185 31.734834 10.750424
v -0.000000 30.720059 6.019238
v 2.176546 11.792414 8.573881
v 2.176546 19.942905 8.573879
v -3.678211 3.357547 10.750428
v -3.678211 2.522541 10.750429
v -4.731185 2.522541 10.750429
v -3.678211 30.064141 10.750424
v -3.678211 30.720066 10.750424
v -4.731185 30.720066 10.750424
v -0.000000 0.000482 6.019245
v -0.000000 31.734834 6.019238
v -2.176546 25.003520 8.573879
v -2.176546 25.003520 8.573879
v 3.054194 24.251836 10.750425
v 3.054194 24.251836 10.750425
v 3.054194 25.003520 10.750425
v 3.054194 25.003520 10.750425
v -0.000000 25.003520 8.573879
v -2.176546 25.003520 10.750425
v -2.176546 25.003520 10.750425
v 2.176546 22.473213 8.573880
v 2.176546 22.473213 8.573880
v -2.176546 22.473213 8.573880
v -2.176546 22.473213 8.573880
v -0.000000 22.473213 8.573880
v 2.176546 22.473213 10.750426
v 2.176546 22.473213 10.750426
v -2.176546 22.473213 10.750426
v -2.176546 22.473213 10.750426
v 3.054194 22.473219 7.696232
v 3.054194 22.473219 7.696232
v 3.054194 22.473213 10.750426
v 3.054194 22.473213 10.750426
v -0.000000 22.473219 7.696232
v -3.054194 22.473213 10.750426
v -3.054194 22.473213 10.750426
v -3.054194 23.224896 10.750425
v -3.054194 23.224896 10.750425
v -3.054194 24.251836 10.750425
v -3.054194 24.251836 10.750425
v -3.054194 24.251843 7.696232
v -3.054194 24.251843 7.696232
v -0.000000 24.251843 7.696232
v -0.000000 23.224896 7.019652
v 3.730774 23.224896 7.019652
v 3.730774 23.224896 7.019652
v -3.730775 23.224896 7.019652
v -3.730775 23.224896 7.019652
v 3.678211 2.522538 7.072216
v 3.678211 2.522538 7.072216
v 3.678211 3.357547 7.072218
v 3.678211 3.357547 7.072218
v 2.176546 3.357547 8.573881
v 2.176546 3.357547 8.573881
v 4.731185 0.000482 6.019245
v 4.731185 0.000482 6.019245
v 4.731185 2.522541 6.019243
v 4.731185 2.522541 6.019243
v 4.731185 0.000482 10.750429
v 3.678211 30.720066 7.072213
v 3.678211 30.720066 7.072213
v 3.678211 30.064141 7.072213
v 3.678211 30.064141 7.072213
v 4.731185 31.734834 6.019238
v 4.731185 31.734834 6.019238
v 4.731185 30.720059 6.019238
v 4.731185 30.720059 6.019238
v 4.731185 31.734834 10.750424
v -2.176546 11.792414 8.573881
v -2.176546 19.942905 8.573879
v 3.678211 3.357547 10.750428
v 3.678211 2.522541 10.750429
v 4.731185 2.522541 10.750429
v 3.678211 30.064141 10.750424
v 3.678211 30.720066 10.750424
v 4.731185 30.720066 10.750424
v 3.054194 25.003520 7.696230
v 3.054194 25.003520 7.696230
v -0.000000 25.003520 7.696230
v -3.054194 25.003520 7.696230
v -3.054194 25.003520 7.696230
v -3.054194 25.003520 10.750425
v -3.054194 25.003520 10.750425
v -3.054194 22.473219 7.696232
v -3.054194 22.473219 7.696232
v -3.054194 23.224896 7.696232
v -3.054194 23.224896 7.696232
v 3.054194 24.251843 7.696232
v 3.054194 24.251843 7.696232
v 3.054194 23.224896 10.750425
v 3.054194 23.224896 10.750425
v 3.054194 23.224896 7.696232
v 3.054194 23.224896 7.696232
v -0.000000 23.224896 7.696232
v -0.000000 24.251836 7.019650
v -3.730775 24.251836 7.019652
v -3.730775 24.251836 7.019652
v 3.730774 24.251843 7.019652
v 3.730774 24.251843 7.019652
v -1.739465 24.749168 -0.000003
v -1.739465 24.749168 -0.000003
v -1.739465 24.749168 -0.000003
v -1.739465 24.749168 -0.000003
v -1.739465 24.749168 -10.750426
v -1.236983 22.641457 -0.000003
v -1.236983 22.641457 -0.000003
v -1.236983 24.749168 -0.000003
v -1.236983 24.749168 -0.000003
v -1.739465 23.258058 -10.750426
v -1.739465 24.132561 -10.750429
v -2.354534 24.132561 -10.750429
v -1.739465 2.755181 0.000000
v -1.739465 2.755178 -10.750423
v -2.354534 1.221985 -10.750423
v -2.354534 1.221988 0.000000
v -1.739465 22.641457 10.750419
v -1.739465 24.749168 10.750419
v -2.354534 23.258065 10.750419
v -1.236983 31.092040 10.750418
v -1.739465 2.755181 10.750423
v -1.739465 2.138576 10.750422
v -2.354534 2.138576 10.750422
v -2.354534 1.221988 10.750423
v 1.739465 24.132561 -0.000003
v 1.739465 24.132561 -0.000003
v 1.739465 24.132561 -0.000003
v 1.739465 24.132561 -0.000003
v 1.739465 22.641450 -10.750429
v 1.236983 22.641457 -0.000003
v 1.236983 22.641457 -0.000003
v 1.236983 24.749168 -0.000003
v 1.236983 24.749168 -0.000003
v 1.739465 23.258058 -10.750426
v 1.739465 24.132561 -10.750429
v 2.354534 24.132561 -10.750429
v 3.465545 1.221985 -10.750423
v 1.739465 22.641457 10.750419
v 1.739465 24.749168 10.750419
v 1.739465 24.132567 10.750419
v 2.354534 23.258065 10.750419
v 1.063747 31.265277 10.750418
v 1.739465 2.755181 10.750423
v 1.739465 2.138576 10.750422
v 2.354534 2.138576 10.750422
v 2.176546 3.357543 -10.750429
v 2.176546 11.792411 -8.573884
v -2.176546 11.792411 -8.573884
v 2.176546 30.064135 -10.750436
v 2.176546 19.942905 -8.573887
v -2.176546 3.357543 -10.750429
v 3.054194 24.251836 -10.750432
v 3.054194 24.251836 -10.750432
v -3.730775 24.251836 -10.750432
v 3.730774 24.251836 -10.750432
v 2.176546 3.357547 10.750428
v -2.176546 3.357547 10.750428
v -2.176546 30.064141 10.750424
v 2.176546 25.003520 10.750425
v 2.176546 25.003520 10.750425
v -3.730775 24.251836 10.750424
v -3.730774 23.224890 10.750424
v 3.730774 24.251836 10.750424
v 3.730774 23.224890 10.750424
vt 0.740911 0.443260
vt 0.651088 0.963193
vt 0.687525 0.067625
vt 0.745160 0.574631
vt 0.801212 0.000000
vt 0.759458 0.971858
vt 0.710383 0.528967
vt 0.521493 0.961559
vt 0.297729 0.856476
vt 0.745160 0.000000
vt 0.618875 0.710302
vt 0.527368 0.000000
vt 0.527368 0.836747
vt 0.912945 0.710302
vt 0.828463 0.287315
vt 0.353040 0.920066
vt 0.826428 0.583856
vt 0.353040 0.920066
vt 0.478166 0.798306
vt 0.887519 0.287315
vt 0.722707 0.550736
vt 0.719604 0.936456
vt 0.602280 0.610593
vt 0.389914 0.920066
vt 0.932853 0.000000
vt 0.987675 0.574631
vt 0.722707 0.510885
vt 0.222817 0.798306
vt 0.775547 0.873554
vt 0.917767 0.574631
vt 0.932853 0.000000
vt 0.745160 0.000000
vt 0.618875 0.510885
vt 0.222817 0.798306
vt 0.222817 0.821762
vt 0.222817 0.933556
vt 0.975350 0.000000
vt 0.634139 0.285455
vt 0.580753 0.510885
vt 0.316166 0.896610
vt 0.675979 0.836747
vt 0.527368 0.000000
vt 0.975350 0.000000
vt 0.872395 0.287315
vt 0.334603 0.896610
vt 0.710383 0.710302
vt 0.710383 0.583856
vt 0.963026 0.287315
vt 0.902643 0.287315
vt 0.297729 0.896610
vt 0.527368 0.285455
vt 0.503056 0.879932
vt 0.850945 0.287315
vt 0.263684 0.798306
vt 0.975350 0.287315
vt 0.351115 0.856476
vt 0.353040 0.896610
vt 0.834371 0.710302
vt 0.651088 0.963193
vt 0.872395 0.000000
vt 0.408351 0.896610
vt 0.478166 0.924752
vt 0.854852 0.845552
vt 0.733631 0.808606
vt 0.745160 0.574631
vt 0.687525 0.510885
vt 0.553195 0.710302
vt 0.527368 0.067625
vt 0.687525 0.000000
vt 0.759458 0.710302
vt 0.771251 0.574631
vt 0.759458 0.710302
vt 0.828509 0.955181
vt 0.643413 0.710302
vt 0.222817 0.961559
vt 0.828463 0.574631
vt 0.887519 0.574631
vt 0.521493 0.879932
vt 0.276203 0.879932
vt 0.387948 0.798306
vt 0.932853 0.287315
vt 0.887519 0.287315
vt 0.334603 0.978236
vt 0.687525 0.285455
vt 0.090218 0.826448
vt 0.963026 0.287315
vt 0.987675 0.287315
vt 0.850945 0.000000
vt 0.634139 0.285455
vt 0.527368 0.285455
vt 0.634139 0.510885
vt 0.875332 0.845552
vt 0.351115 0.856476
vt 0.744793 0.836747
vt 0.634139 0.067625
vt 0.222817 0.933556
vt 0.875332 0.943856
vt 0.791635 0.873554
vt 0.263684 0.000000
vt 0.812844 0.791928
vt 0.090218 0.826448
vt 0.675979 0.963193
vt 0.694415 0.918374
vt 0.932853 0.287315
vt 0.618875 0.610593
vt 0.710383 0.583856
vt 0.297729 0.879932
vt 0.643413 0.836747
vt 0.987675 0.287315
vt 0.828463 0.287315
vt 0.694415 0.918374
vt 0.643413 0.808606
vt 0.334603 0.920066
vt 0.917767 0.000000
vt 0.850945 0.287315
vt 0.887519 0.287315
vt 0.651088 0.836747
vt 0.834371 0.845552
vt 0.759458 0.873554
vt 0.975350 0.000000
vt 0.887519 0.000000
vt 0.854852 0.845552
vt 0.759458 0.873554
vt 0.297729 0.961559
vt 0.643413 0.836747
vt 0.987675 0.287315
vt 0.775547 0.873554
vt 0.634139 0.000000
vt 0.775547 0.873554
vt 0.887757 0.810010
vt 0.801212 0.574631
vt 0.635470 0.528967
vt 0.635470 0.692220
vt 0.733631 0.808606
vt 0.441333 0.896610
vt 0.527368 0.510885
vt 0.828463 0.287315
vt 0.947939 0.287315
vt 0.759458 0.836747
vt 0.589228 0.963193
vt 0.334603 0.896610
vt 0.745160 0.000000
vt 0.987675 0.287315
vt 0.791635 0.955181
vt 0.854852 0.943856
vt 0.834371 0.943856
vt 0.887519 0.000000
vt 0.694415 0.936456
vt 0.116045 0.933556
vt 0.810072 0.873554
vt 0.169431 0.933556
vt 0.947939 0.000000
vt 0.527368 0.067625
vt 0.090218 0.924752
vt 0.316166 0.978236
vt 0.389914 0.920066
vt 0.389914 0.896610
vt 0.872395 0.574631
vt 0.932853 0.287315
vt 0.389914 0.896610
vt 0.553195 0.710302
vt 0.116045 0.798306
vt 0.987675 0.000000
vt 0.850945 0.287315
vt 0.643413 0.836747
vt 0.736210 0.611998
vt 0.351115 0.856476
vt 0.745160 0.287315
vt 0.771251 0.287315
vt 0.850945 0.574631
vt 0.687525 0.443260
vt 0.810072 0.873554
vt 0.675979 0.963193
vt 0.963026 0.000000
vt 0.872395 0.000000
vt 0.810072 0.955181
vt 0.791635 0.873554
vt 0.387948 0.838440
vt 0.387948 0.896610
vt 0.828463 0.000000
vt 0.826428 0.710302
vt 0.169431 0.798306
vt 0.000000 0.826448
vt 0.854852 0.943856
vt 0.826428 0.710302
vt 0.503056 0.879932
vt 0.759458 0.850098
vt 0.222817 0.938103
vt 0.722707 0.510885
vt 0.917767 0.000000
vt 0.810072 0.955181
vt 0.791635 0.955181
vt 0.000000 0.798306
vt 0.947939 0.000000
vt 0.947939 0.287315
vt 0.602280 0.692220
vt 0.875332 0.845552
vt 0.478166 0.798306
vt 0.947939 0.287315
vt 0.932853 0.574631
vt 0.902643 0.287315
vt 0.687525 0.067625
vt 0.710383 0.583856
vt 0.527368 0.836747
vt 0.503056 0.924752
vt 0.975350 0.287315
vt 0.553195 0.808606
vt 0.353040 0.896610
vt 0.222817 0.798306
vt 0.478166 0.798306
vt 0.740911 0.287315
vt 0.675979 0.836747
vt 0.371477 0.920066
vt 0.759458 0.971858
vt 0.297729 0.896610
vt 0.527367 0.000000
vt 0.694415 0.836747
vt 0.116045 0.798306
vt 0.527368 0.510885
vt 0.634139 0.510885
vt 0.850945 0.287315
vt 0.902643 0.287315
vt 0.912945 0.909719
vt 0.710383 0.692220
vt 0.634139 0.000000
vt 0.947939 0.000000
vt 0.737794 0.527364
vt 0.963026 0.287315
vt 0.759458 0.733758
vt 0.651088 0.836747
vt 0.932853 0.574631
vt 0.771251 0.287315
vt 0.872395 0.000000
vt 0.875332 0.845552
vt 0.826428 0.575052
vt 0.371477 0.920066
vt 0.503056 0.798306
vt 0.828463 0.574631
vt 0.759458 0.873554
vt 0.580753 0.000000
vt 0.651088 0.836747
vt 0.687525 0.510885
vt 0.801212 0.287315
vt 1.000000 0.287315
vt 0.635470 0.610593
vt 0.387948 0.896610
vt 0.090218 0.924752
vt 0.589228 0.963193
vt 0.801212 0.574631
vt 0.828463 0.574631
vt 0.634139 0.285455
vt 0.854852 0.943856
vt 0.527368 0.528967
vt 0.917767 0.287315
vt 0.917767 0.287315
vt 0.975350 0.287315
vt 0.276203 0.938103
vt 0.828509 0.873554
vt 0.527368 0.285455
vt 0.854852 0.943856
vt 0.740911 0.000000
vt 0.389914 0.920066
vt 0.527368 0.836747
vt 0.618875 0.510885
vt 0.116045 0.798306
vt 0.740911 0.574631
vt 0.353040 0.896610
vt 0.116045 0.924752
vt 0.675979 0.918374
vt 0.408351 0.896610
vt 0.834371 0.710302
vt 0.000000 0.000000
vt 0.527368 0.710302
vt 0.710383 0.692220
vt 0.169431 0.798306
vt 0.791635 0.971858
vt 0.887519 0.574631
vt 0.737794 0.527364
vt 0.791635 0.873554
vt 0.651088 0.963193
vt 0.503056 0.924752
vt 0.932853 0.000000
vt 0.887519 0.287315
vt 0.297729 0.961559
vt 0.553195 0.808606
vt 0.719604 0.836747
vt 0.759458 0.971858
vt 0.987675 0.287315
vt 0.828463 0.000000
vt 0.353040 0.896610
vt 0.478166 0.798306
vt 0.740911 0.225430
vt 0.351115 0.798306
vt 0.801212 0.000000
vt 0.710383 0.710302
vt 1.000000 0.287315
vt 0.527368 0.963193
vt 0.297729 0.896610
vt 0.736210 0.611998
vt 0.675979 0.918374
vt 0.902643 0.000000
vt 0.521493 0.961559
vt 0.887757 0.710302
vt 0.634139 0.067625
vt 0.389914 0.896610
vt 0.902643 0.000000
vt 0.854852 0.943856
vt 0.812844 0.791928
vt 0.643413 0.808606
vt 0.975350 0.574631
vt 0.740911 0.574631
vt 0.503056 0.961559
vt 0.527368 0.836747
vt 0.826428 0.710302
vt 0.850945 0.287315
vt 0.872395 0.287315
vt 0.963026 0.287315
vt 0.759458 0.873554
vt 0.116045 0.798306
vt 0.775547 0.873554
vt 0.478166 0.924752
vt 0.947939 0.574631
vt 0.826428 0.611998
vt 0.334603 0.896610
vt 0.651088 0.836747
vt 0.000000 0.826448
vt 0.872395 0.287315
vt 0.719604 0.936456
vt 0.687525 0.510885
vt 0.854852 0.845552
vt 0.744793 0.936456
vt 0.801212 0.287315
vt 0.408351 0.920066
vt 0.791635 0.971858
vt 0.618875 0.610593
vt 0.834371 0.943856
vt 0.850945 0.000000
vt 0.902643 0.287315
vt 0.912945 0.710302
vt 0.635470 0.528967
vt 0.675979 0.836747
vt 0.947939 0.574631
vt 0.987675 0.287315
vt 0.963026 0.000000
vt 0.371477 0.920066
vt 0.733631 0.808606
vt 0.589228 0.963193
vt 0.932853 0.287315
vt 0.872395 0.000000
vt 0.527368 0.836747
vt 0.116045 0.798306
vt 0.371477 0.896610
vt 0.834371 0.845552
vt 0.917767 0.574631
vt 0.826428 0.575052
vt 0.675979 0.836747
vt 0.389914 0.896610
vt 0.736210 0.710302
vt 0.740911 0.510885
vt 0.917767 0.574631
vt 0.694415 0.836747
vt 0.527368 0.836747
vt 0.116045 0.924752
vt 0.651088 0.963193
vt 0.801212 0.287315
vt 0.963026 0.287315
vt 0.387948 0.798306
vt 0.527368 0.963193
vt 0.503056 0.961559
vt 0.947939 0.287315
vt 0.745160 0.574631
vt 0.902643 0.574631
vt 0.775547 0.971858
vt 0.503056 0.798306
vt 0.736210 0.611998
vt 0.854852 0.845552
vt 0.850945 0.287315
vt 0.353040 0.920066
vt 0.759458 0.836747
vt 0.710383 0.710302
vt 0.826428 0.583856
vt 0.987675 0.000000
vt 0.719604 0.836747
vt 0.387948 0.798306
vt 0.387948 0.798306
vt 0.527368 0.692220
vt 0.521493 0.879932
vt 0.745160 0.574631
vt 0.643413 0.710302
vt 0.503056 0.961559
vt 0.733631 0.710302
vt 0.775547 0.971858
vt 0.917767 0.287315
vt 0.887519 0.287315
vt 0.834371 0.710302
vt 0.834371 0.791928
vt 0.478166 0.924752
vt 0.828463 0.287315
vt 0.963026 0.287315
vt 0.316166 0.978236
vt 0.826428 0.611998
vt 0.912945 0.909719
vt 0.710383 0.567216
vt 0.917767 0.287315
vt 0.722707 0.527364
vt 0.589228 0.963193
vt 0.854852 0.845552
vt 0.589228 0.836747
vt 0.222817 0.798306
vt 0.887519 0.000000
vt 0.710383 0.510885
vt 0.875332 0.943856
vt 0.643413 0.836747
vt 0.651088 0.963193
vt 0.643413 0.836747
vt 0.710383 0.527364
vt 0.834371 0.791928
vt 0.887757 0.909719
vt 0.553195 0.808606
vt 0.694415 0.836747
vt 0.963026 0.574631
vt 0.722707 0.550736
vt 0.527368 0.510885
vt 0.719604 0.936456
vt 0.441333 0.838440
vt 0.771251 0.287315
vt 0.917767 0.000000
vt 0.527368 0.528967
vt 0.775547 0.873554
vt 0.634139 0.067625
vt 0.000000 0.798306
vt 0.527368 0.067625
vt 0.737794 0.550736
vt 0.675979 0.836747
vt 0.826428 0.583856
vt 0.297729 0.856476
vt 0.745160 0.287315
vt 0.850945 0.574631
vt 0.387948 0.838440
vt 0.169431 0.933556
vt 0.791635 0.873554
vt 0.297729 0.896610
vt 0.987675 0.574631
vt 0.887757 0.710302
vt 0.634139 0.000000
vt 0.589228 0.836747
vt 0.912945 0.810010
vt 0.801212 0.000000
vt 0.602280 0.528967
vt 0.775547 0.971858
vt 0.618875 0.510885
vt 0.854852 0.943856
vt 0.801212 0.287315
vt 0.740911 0.000000
vt 0.643413 0.836747
vt 0.635470 0.692220
vt 0.635470 0.528967
vt 0.316166 0.978236
vt 0.527368 0.798306
vt 0.722707 0.567216
vt 0.371477 0.896610
vt 0.387948 0.896610
vt 0.634139 0.285455
vt 0.090218 0.826448
vt 0.828463 0.000000
vt 0.297729 0.798306
vt 0.351115 0.856476
vt 0.812844 0.733758
vt 0.887757 0.845552
vt 1.000000 0.574631
vt 0.687525 0.510885
vt 0.478166 0.896610
vt 0.222817 0.938103
vt 0.353040 0.920066
vt 0.580753 0.000000
vt 1.000000 0.574631
vt 0.872395 0.287315
vt 0.222817 0.961559
vt 0.387948 0.798306
vt 0.826428 0.583856
vt 0.963026 0.287315
vt 0.722707 0.527364
vt 0.000000 0.798306
vt 0.875332 0.943856
vt 0.879814 0.575052
vt 0.737794 0.550736
vt 0.000000 0.798306
vt 0.850945 0.574631
vt 0.675979 0.963193
vt 0.719604 0.936456
vt 0.651088 0.963193
vt 0.710383 0.583856
vt 0.963026 0.574631
vt 0.527368 0.692220
vt 0.643413 0.836747
vt 0.826428 0.611998
vt 0.791635 0.971858
vt 0.828463 0.574631
vt 0.740911 0.000000
vt 0.580753 0.067625
vt 0.000000 0.798306
vt 0.589228 0.963193
vt 1.000000 0.000000
vt 0.521493 0.798306
vt 0.975350 0.574631
vt 0.521493 0.961559
vt 0.694415 1.000000
vt 0.887757 0.810010
vt 0.759458 0.710302
vt 0.334603 0.896610
vt 0.975350 0.287315
vt 0.917767 0.287315
vt 0.759458 0.710302
vt 0.527368 0.000000
vt 0.643413 0.836747
vt 0.527368 0.798306
vt 0.947939 0.574631
vt 0.810072 0.873554
vt 0.387948 0.838440
vt 0.834371 0.943856
vt 0.963026 0.000000
vt 0.872395 0.287315
vt 0.902643 0.287315
vt 0.854852 0.943856
vt 0.441333 0.838440
vt 0.643413 0.808606
vt 0.527368 0.836747
vt 0.710383 0.510885
vt 0.775547 0.971858
vt 0.503056 0.798306
vt 0.775547 0.971858
vt 0.387948 0.798306
vt 0.850945 0.000000
vt 0.810072 0.873554
vt 0.834371 0.943856
vt 0.826428 0.611998
vt 0.744793 0.836747
vt 0.710383 0.527364
vt 0.527368 0.710302
vt 0.589228 0.963193
vt 0.710383 0.510885
vt 0.879814 0.710302
vt 0.872395 0.287315
vt 0.828463 0.000000
vt 0.694415 0.836747
vt 0.408351 0.920066
vt 0.276203 0.938103
vt 0.771251 0.574631
vt 0.947939 0.287315
vt 0.618875 0.510885
vt 0.276203 0.821762
vt 0.618875 0.710302
vt 0.791635 0.971858
vt 0.740911 0.443260
vt 0.975350 0.287315
vt 0.987675 0.000000
vt 0.589228 0.836747
vt 0.879814 0.575052
vt 0.759458 0.733758
vt 0.643413 0.808606
vt 0.932853 0.574631
vt 0.651088 0.836747
vt 0.740911 0.510885
vt 0.643413 0.808606
vt 0.694415 0.836747
vt 0.801212 0.574631
vt 1.000000 0.287315
vt 0.602280 0.610593
vt 0.503056 0.924752
vt 0.478166 0.896610
vt 0.580753 0.510885
vt 0.801212 0.000000
vt 0.963026 0.574631
vt 0.634139 0.067625
vt 0.602280 0.692220
vt 0.527368 0.067625
vt 0.759458 0.873554
vt 0.710383 0.567216
vt 0.745160 0.287315
vt 0.710383 0.510885
vt 0.812844 0.733758
vt 0.828509 0.955181
vt 0.527368 0.963193
vt 0.478166 0.798306
vt 0.687525 0.225430
vt 0.719604 0.836747
vt 0.879814 0.710302
vt 0.527368 0.710302
vt 0.834371 0.845552
vt 0.947939 0.574631
vt 0.810072 0.955181
vt 0.580753 0.285455
vt 0.675979 0.836747
vt 0.710383 0.528967
vt 0.810072 0.955181
vt 0.902643 0.574631
vt 0.932853 0.287315
vt 0.316166 0.896610
vt 0.580753 0.067625
vt 0.733631 0.808606
vt 0.872395 0.574631
vt 0.947939 0.287315
vt 0.643413 0.808606
vt 0.834371 0.710302
vt 0.527368 0.836747
vt 0.932853 0.574631
vt 0.771251 0.574631
vt 0.872395 0.574631
vt 0.759458 0.971858
vt 0.887757 0.710302
vt 0.775547 0.971858
vt 0.963026 0.287315
vt 0.740911 0.000000
vt 0.635470 0.692220
vt 0.687525 0.225430
vt 0.387948 0.838440
vt 0.775547 0.971858
vt 0.987675 0.000000
vt 0.297729 0.856476
vt 1.000000 0.287315
vt 0.736210 0.611998
vt 0.643413 0.808606
vt 0.634139 0.510885
vt 0.371477 0.896610
vt 0.710383 0.550736
vt 0.527368 0.510885
vt 0.759458 0.850098
vt 0.719604 0.836747
vt 0.826428 0.710302
vt 1.000000 0.000000
vt 0.687525 0.000000
vt 0.975350 0.574631
vt 0.902643 0.287315
vt 0.478166 0.798306
vt 0.222817 0.798306
vt 0.000000 0.826448
vt 0.917767 0.574631
vt 0.740911 0.287315
vt 0.297729 0.978236
vt 0.740911 0.225430
vt 0.854852 0.943856
vt 0.745160 0.287315
vt 0.932853 0.287315
vt 0.987675 0.574631
vt 0.297729 0.856476
vt 0.589228 0.963193
vt 0.887757 0.710302
vt 0.759458 0.836747
vt 0.902643 0.574631
vt 0.675979 0.963193
vt 0.834371 0.845552
vt 0.675979 0.836747
vt 0.000000 0.798306
vt 0.527367 0.000000
vt 0.297729 0.879932
vt 0.887757 0.845552
vt 0.875332 0.845552
vt 0.887757 0.909719
vt 0.263684 0.000000
vt 0.618875 0.610593
vt 0.651088 0.963193
vt 0.618875 0.610593
vt 0.090218 0.826448
vt 0.987675 0.574631
vt 0.902643 0.000000
vt 0.912945 0.810010
vt 0.635470 0.610593
vt 0.316166 0.896610
vt 0.963026 0.574631
vt 0.947939 0.287315
vt 0.887519 0.287315
vt 0.222817 0.821762
vt 0.775547 0.971858
vt 0.975350 0.574631
vt 0.771251 0.000000
vt 0.902643 0.000000
vt 0.643413 0.808606
vt 0.351115 0.798306
vt 0.276203 0.821762
vt 0.589228 0.836747
vt 0.887519 0.574631
vt 0.736210 0.710302
vt 0.687525 0.000000
vt 0.759458 0.873554
vt 0.371477 0.920066
vt 0.887519 0.574631
vt 0.872395 0.574631
vt 0.478166 0.924752
vt 0.580753 0.285455
vt 0.441333 0.838440
vt 0.801212 0.574631
vt 0.902643 0.287315
vt 0.000000 0.826448
vt 0.634139 0.510885
vt 0.297729 0.978236
vt 0.963026 0.000000
vt 0.745160 0.000000
vt 0.675979 1.000000
vt 0.902643 0.574631
vt 0.812844 0.850098
vt 0.316166 0.978236
vt 0.875332 0.943856
vt 0.589228 0.963193
vt 0.917767 0.000000
vt 0.618875 0.710302
vt 0.503056 0.924752
vt 0.618875 0.710302
vt 0.651088 0.836747
vt 0.000000 0.000000
vt 0.694415 0.936456
vt 0.710383 0.710302
vt 0.389914 0.920066
vt 0.602280 0.528967
vt 0.834371 0.873554
vt 0.947939 0.000000
vt 0.733631 0.710302
vt 0.828509 0.873554
vt 0.527368 0.710302
vt 0.387948 0.896610
vt 0.850945 0.574631
vt 0.947939 0.287315
vt 0.834371 0.873554
vt 0.297729 0.798306
vt 0.759458 0.836747
vt 0.975350 0.000000
vt 0.771251 0.000000
vt 0.371477 0.896610
vt 0.854852 0.845552
vt 0.618875 0.710302
vt 0.553195 0.808606
vt 0.618875 0.510885
vt 0.722707 0.567216
vt 0.887519 0.000000
vt 0.687525 0.000000
vt 0.441333 0.896610
vt 0.687525 0.285455
vt 0.775547 0.873554
vt 0.975350 0.287315
vt 0.334603 0.920066
vt 0.651088 0.963193
vt 0.589228 0.836747
vt 0.527368 0.963193
vt 0.334603 0.978236
vt 0.932853 0.000000
vt 0.276203 0.879932
vt 0.744793 0.936456
vt 0.687525 0.443260
vt 0.316166 0.896610
vt 0.710383 0.550736
vt 0.902643 0.287315
vt 0.441333 0.838440
vt 0.222817 0.933556
vt 0.297729 0.896610
vt 0.771251 0.000000
vt 0.917767 0.287315
vt 0.297729 0.896610
vt 0.589228 0.836747
vt 0.812844 0.850098
vt 0.263684 0.798306
vt 0.850945 0.000000
vn -1.000000 0.000000 -0.000000
vn -1.000000 0.000000 -0.000000
vn -1.000000 0.000000 -0.000000
vn -1.000000 0.000000 -0.000000
vn 0.000000 -1.000000 0.000000
vn 0.000000 -1.000000 0.000000
vn 0.000000 -1.000000 0.000000
vn 0.000000 -1.000000 0.000000
vn 0.000000 1.000000 -0.000000
vn 0.000000 1.000000 -0.000000
vn 0.000000 1.000000 -0.000000
vn 0.000000 1.000000 -0.000000
vn -1.000000 0.000000 -0.000000
vn -1.000000 0.000000 -0.000000
vn -1.000000 0.000000 -0.000000
vn -1.000000 0.000000 -0.000000
vn 0.000000 1.000000 -0.000000
vn 0.000000 1.000000 -0.000000
vn 0.000000 1.000000 -0.000000
vn 0.000000 1.000000 -0.000000
vn -1.000000 0.000000 -0.000000
vn -1.000000 0.000000 -0.000000
vn -1.000000 0.000000 -0.000000
vn -1.000000 0.000000 -0.000000
vn 0.000000 -1.000000 0.000000
vn 0.000000 -1.000000 0.000000
vn 0.000000 -1.000000 0.000000
vn 0.000000 -1.000000 0.000000
vn 0.000000 1.000000 -0.000000
vn 0.000000 1.000000 -0.000000
vn 0.000000 1.000000 -0.000000
vn 0.000000 1.000000 -0.000000
vn -0.707107 0.707107 -0.000000
vn -0.707107 0.707107 -0.000000
vn -0.707107 0.707107 -0.000000
vn -0.707107 0.707107 -0.000000
vn -1.000000 0.000000 -0.000000
vn -1.000000 0.000000 -0.000000
vn -1.000000 0.000000 -0.000000
vn -1.000000 0.000000 -0.000000
vn -1.000000 0.000000 -0.000000
vn -1.000000 0.000000 -0.000000
vn -1.000000 0.000000 -0.000000
vn -1.000000 0.000000 -0.000000
vn 0.000000 1.000000 -0.000000
vn 0.000000 1.000000 -0.000000
vn 0.000000 1.000000 -0.000000
vn 0.000000 1.000000 -0.000000
vn 0.000000 1.000000 -0.000000
vn 0.000000 1.000000 -0.000000
vn 0.000000 1.000000 -0.000000
vn 0.000000 1.000000 -0.000000
vn 0.000000 1.000000 -0.000000
vn 0.000000 1.000000 -0.000000
vn 0.000000 1.000000 -0.000000
vn 0.000000 1.000000 -0.000000
vn -1.000000 0.000000 -0.000000
vn -1.000000 0.000000 -0.000000
vn -1.000000 0.000000 -0.000000
vn -1.000000 0.000000 -0.000000
vn -1.000000 0.000000 -0.000000
vn -1.000000 0.000000 -0.000000
vn -1.000000 0.000000 -0.000000
vn -1.000000 0.000000 -0.000000
vn 0.000000 -1.000000 0.000000
vn 0.000000 -1.000000 0.000000
vn 0.000000 -1.000000 0.000000
vn 0.000000 -1.000000 0.000000
vn 0.000000 1.000000 -0.000000
vn 0.000000 1.000000 -0.000000
vn 0.000000 1.000000 -0.000000
vn 0.000000 1.000000 -0.000000
vn 0.000000 0.000000 1.000000
vn 0.000000 0.000000 1.000000
vn 0.000000 0.000000 1.000000
vn 0.000000 0.000000 1.000000
vn 0.000000 0.000000 1.000000
vn 0.000000 0.000000 1.000000
vn 0.000000 0.000000 1.000000
vn 0.000000 0.000000 1.000000
vn 0.000000 0.000000 1.000000
vn 0.000000 0.000000 1.000000
vn 0.000000 0.000000 1.000000
vn 0.000000 0.000000 1.000000
vn -1.000000 0.000000 -0.000000
vn -1.000000 0.000000 -0.000000
vn -1.000000 0.000000 -0.000000
vn -1.000000 0.000000 -0.000000
vn 0.000000 1.000000 -0.000000
vn 0.000000 1.000000 -0.000000
vn 0.000000 1.000000 -0.000000
vn 0.000000 1.000000 -0.000000
vn -1.000000 0.000000 -0.000000
vn -1.000000 0.000000 -0.000000
vn -1.000000 0.000000 -0.000000
vn -1.000000 0.000000 -0.000000
vn 0.000000 -1.000000 0.000000
vn 0.000000 -1.000000 0.000000
vn 0.000000 -1.000000 0.000000
vn 0.000000 -1.000000 0.000000
vn 0.000000 0.000000 1.000000
vn 0.000000 0.000000 1.000000
vn 0.000000 0.000000 1.000000
vn 0.000000 0.000000 1.000000
vn 0.000000 1.000000 -0.000000
vn 0.000000 1.000000 -0.000000
vn 0.000000 1.000000 -0.000000
vn 0.000000 1.000000 -0.000000
vn -0.707107 0.707107 -0.000000
vn -0.707107 0.707107 -0.000000
vn -0.707107 0.707107 -0.000000
vn -0.707107 0.707107 -0.000000
vn -1.000000 0.000000 -0.000000
vn -1.000000 0.000000 -0.000000
vn -1.000000 0.000000 -0.000000
vn -1.000000 0.000000 -0.000000
vn -1.000000 0.000000 -0.000000
vn -1.000000 0.000000 -0.000000
vn -1.000000 0.000000 -0.000000
vn -1.000000 0.000000 -0.000000
vn 0.000000 1.000000 -0.000000
vn 0.000000 1.000000 -0.000000
vn 0.000000 1.000000 -0.000000
vn 0.000000 1.000000 -0.000000
vn 0.000000 1.000000 -0.000000
vn 0.000000 1.000000 -0.000000
vn 0.000000 1.000000 -0.000000
vn 0.000000 1.000000 -0.000000
vn 0.000000 1.000000 -0.000000
vn 0.000000 1.000000 -0.000000
vn 0.000000 1.000000 -0.000000
vn 0.000000 1.000000 -0.000000
vn -1.000000 0.000000 -0.000000
vn -1.000000 0.000000 -0.000000
vn -1.000000 0.000000 -0.000000
vn -1.000000 0.000000 -0.000000
vn -1.000000 0.000000 -0.000000
vn -1.000000 0.000000 -0.000000
vn -1.000000 0.000000 -0.000000
vn -1.000000 0.000000 -0.000000
vn -1.000000 0.000000 -0.000000
vn -1.000000 0.000000 -0.000000
vn -1.000000 0.000000 -0.000000
vn -1.000000 0.000000 -0.000000
vn 1.000000 0.000000 0.000000
vn 1.000000 0.000000 0.000000
vn 1.000000 0.000000 0.000000
vn 1.000000 0.000000 0.000000
vn 0.000000 -1.000000 0.000000
vn 0.000000 -1.000000 0.000000
vn 0.000000 -1.000000 0.000000
vn 0.000000 -1.000000 0.000000
vn 0.000000 1.000000 -0.000000
vn 0.000000 1.000000 -0.000000
vn 0.000000 1.000000 -0.000000
vn 0.000000 1.000000 -0.000000
vn 1.000000 0.000000 0.000000
vn 1.000000 0.000000 0.000000
vn 1.000000 0.000000 0.000000
vn 1.000000 0.000000 0.000000
vn 0.000000 1.000000 -0.000000
vn 0.000000 1.000000 -0.000000
vn 0.000000 1.000000 -0.000000
vn 0.000000 1.000000 -0.000000
vn 1.000000 0.000000 0.000000
vn 1.000000 0.000000 0.000000
vn 1.000000 0.000000 0.000000
vn 1.000000 0.000000 0.000000
vn 0.000000 -1.000000 0.000000
vn 0.000000 -1.000000 0.000000
vn 0.000000 -1.000000 0.000000
vn 0.000000 -1.000000 0.000000
vn 0.000000 1.000000 -0.000000
vn 0.000000 1.000000 -0.000000
vn 0.000000 1.000000 -0.000000
vn 0.000000 1.000000 -0.000000
vn 0.707107 0.707107 -0.000000
vn 0.707107 0.707107 -0.000000
vn 0.707107 0.707107 -0.000000
vn 0.707107 0.707107 -0.000000
vn 1.000000 0.000000 0.000000
vn 1.000000 0.000000 0.000000
vn 1.000000 0.000000 0.000000
vn 1.000000 0.000000 0.000000
vn 1.000000 0.000000 0.000000
vn 1.000000 0.000000 0.000000
vn 1.000000 0.000000 0.000000
vn 1.000000 0.000000 0.000000
vn 0.000000 1.000000 -0.000000
vn 0.000000 1.000000 -0.000000
vn 0.000000 1.000000 -0.000000
vn 0.000000 1.000000 -0.000000
vn 0.000000 1.000000 -0.000000
vn 0.000000 1.000000 -0.000000
vn 0.000000 1.000000 -0.000000
vn 0.000000 1.000000 -0.000000
vn 0.000000 1.000000 -0.000000
vn 0.000000 1.000000 -0.000000
vn 0.000000 1.000000 -0.000000
vn 0.000000 1.000000 -0.000000
vn 1.000000 0.000000 0.000000
vn 1.000000 0.000000 0.000000
vn 1.000000 0.000000 0.000000
vn 1.000000 0.000000 0.000000
vn 1.000000 0.000000 0.000000
vn 1.000000 0.000000 0.000000
vn 1.000000 0.000000 0.000000
vn 1.000000 0.000000 0.000000
vn 0.000000 -1.000000 0.000000
vn 0.000000 -1.000000 0.000000
vn 0.000000 -1.000000 0.000000
vn 0.000000 -1.000000 0.000000
vn 0.000000 1.000000 -0.000000
vn 0.000000 1.000000 -0.000000
vn 0.000000 1.000000 -0.000000
vn 0.000000 1.000000 -0.000000
vn 0.000000 0.000000 1.000000
vn 0.000000 0.000000 1.000000
vn 0.000000 0.000000 1.000000
vn 0.000000 0.000000 1.000000
vn 0.000000 0.000000 1.000000
vn 0.000000 0.000000 1.000000
vn 0.000000 0.000000 1.000000
vn 0.000000 0.000000 1.000000
vn 0.000000 0.000000 1.000000
vn 0.000000 0.000000 1.000000
vn 0.000000 0.000000 1.000000
vn 0.000000 0.000000 1.000000
vn 1.000000 0.000000 0.000000
vn 1.000000 0.000000 0.000000
vn 1.000000 0.000000 0.000000
vn 1.000000 0.000000 0.000000
vn 0.000000 1.000000 -0.000000
vn 0.000000 1.000000 -0.000000
vn 0.000000 1.000000 -0.000000
vn 0.000000 1.000000 -0.000000
vn 1.000000 0.000000 0.000000
vn 1.000000 0.000000 0.000000
vn 1.000000 0.000000 0.000000
vn 1.000000 0.000000 0.000000
vn 0.000000 -1.000000 0.000000
vn 0.000000 -1.000000 0.000000
vn 0.000000 -1.000000 0.000000
vn 0.000000 -1.000000 0.000000
vn 0.000000 0.000000 1.000000
vn 0.000000 0.000000 1.000000
vn 0.000000 0.000000 1.000000
vn 0.000000 0.000000 1.000000
vn 0.000000 1.000000 -0.000000
vn 0.000000 1.000000 -0.000000
vn 0.000000 1.000000 -0.000000
vn 0.000000 1.000000 -0.000000
vn 0.707107 0.707107 -0.000000
vn 0.707107 0.707107 -0.000000
vn 0.707107 0.707107 -0.000000
vn 0.707107 0.707107 -0.000000
vn 1.000000 0.000000 0.000000
vn 1.000000 0.000000 0.000000
vn 1.000000 0.000000 0.000000
vn 1.000000 0.000000 0.000000
vn 1.000000 0.000000 0.000000
vn 1.000000 0.000000 0.000000
vn 1.000000 0.000000 0.000000
vn 1.000000 0.000000 0.000000
vn 0.000000 1.000000 -0.000000
vn 0.000000 1.000000 -0.000000
vn 0.000000 1.000000 -0.000000
vn 0.000000 1.000000 -0.000000
vn 0.000000 1.000000 -0.000000
vn 0.000000 1.000000 -0.000000
vn 0.000000 1.000000 -0.000000
vn 0.000000 1.000000 -0.000000
vn 0.000000 1.000000 -0.000000
vn 0.000000 1.000000 -0.000000
vn 0.000000 1.000000 -0.000000
vn 0.000000 1.000000 -0.000000
vn 1.000000 0.000000 0.000000
vn 1.000000 0.000000 0.000000
vn 1.000000 0.000000 0.000000
vn 1.000000 0.000000 0.000000
vn 1.000000 0.000000 0.000000
vn 1.000000 0.000000 0.000000
vn 1.000000 0.000000 0.000000
vn 1.000000 0.000000 0.000000
vn 1.000000 0.000000 0.000000
vn 1.000000 0.000000 0.000000
vn 1.000000 0.000000 0.000000
vn 1.000000 0.000000 0.000000
vn 0.000000 0.000000 1.000000
vn 0.000000 0.000000 1.000000
vn 0.000000 0.000000 1.000000
vn 0.000000 0.000000 1.000000
vn 0.000000 1.000000 -0.000000
vn 0.000000 1.000000 -0.000000
vn 0.000000 1.000000 -0.000000
vn 0.000000 1.000000 -0.000000
vn -1.000000 0.000000 -0.000000
vn -1.000000 0.000000 -0.000000
vn -1.000000 0.000000 -0.000000
vn -1.000000 0.000000 -0.000000
vn 0.000000 0.000000 1.000000
vn 0.000000 0.000000 1.000000
vn 0.000000 0.000000 1.000000
vn 0.000000 0.000000 1.000000
vn 0.000000 0.000000 1.000000
vn 0.000000 0.000000 1.000000
vn 0.000000 0.000000 1.000000
vn 0.000000 0.000000 1.000000
vn 0.000000 -1.000000 0.000000
vn 0.000000 -1.000000 0.000000
vn 0.000000 -1.000000 0.000000
vn 0.000000 -1.000000 0.000000
vn 0.000000 1.000000 -0.000000
vn 0.000000 1.000000 -0.000000
vn 0.000000 1.000000 -0.000000
vn 0.000000 1.000000 -0.000000
vn 0.000000 0.000000 1.000000
vn 0.000000 0.000000 1.000000
vn 0.000000 0.000000 1.000000
vn 0.000000 0.000000 1.000000
vn 0.000000 -1.000000 0.000000
vn 0.000000 -1.000000 0.000000
vn 0.000000 -1.000000 0.000000
vn 0.000000 -1.000000 0.000000
vn -1.000000 0.000000 -0.000000
vn -1.000000 0.000000 -0.000000
vn -1.000000 0.000000 -0.000000
vn -1.000000 0.000000 -0.000000
vn 0.000000 0.000000 1.000000
vn 0.000000 0.000000 1.000000
vn 0.000000 0.000000 1.000000
vn 0.000000 0.000000 1.000000
vn 0.000000 0.000000 1.000000
vn 0.000000 0.000000 1.000000
vn 0.000000 0.000000 1.000000
vn 0.000000 0.000000 1.000000
vn 0.000000 1.000000 -0.000000
vn 0.000000 1.000000 -0.000000
vn 0.000000 1.000000 -0.000000
vn 0.000000 1.000000 -0.000000
vn -0.000002 -1.000000 0.000000
vn -0.000002 -1.000000 0.000000
vn -0.000002 -1.000000 0.000000
vn -0.000002 -1.000000 0.000000
vn 0.000000 0.000000 1.000000
vn 0.000000 0.000000 1.000000
vn 0.000000 0.000000 1.000000
vn 0.000000 0.000000 1.000000
vn 1.000000 -0.000000 -0.000000
vn 1.000000 -0.000000 -0.000000
vn 1.000000 -0.000000 -0.000000
vn 1.000000 -0.000000 -0.000000
vn -1.000000 0.000000 -0.000000
vn -1.000000 0.000000 -0.000000
vn -1.000000 0.000000 -0.000000
vn -1.000000 0.000000 -0.000000
vn 0.000000 1.000000 -0.000000
vn 0.000000 1.000000 -0.000000
vn 0.000000 1.000000 -0.000000
vn 0.000000 1.000000 -0.000000
vn -1.000000 0.000000 -0.000000
vn -1.000000 0.000000 -0.000000
vn -1.000000 0.000000 -0.000000
vn -1.000000 0.000000 -0.000000
vn 1.000000 -0.000000 -0.000000
vn 1.000000 -0.000000 -0.000000
vn 1.000000 -0.000000 -0.000000
vn 1.000000 -0.000000 -0.000000
vn 0.000000 -1.000000 0.000000
vn 0.000000 -1.000000 0.000000
vn 0.000000 -1.000000 0.000000
vn 0.000000 -1.000000 0.000000
vn -1.000000 0.000000 -0.000000
vn -1.000000 0.000000 -0.000000
vn -1.000000 0.000000 -0.000000
vn -1.000000 0.000000 -0.000000
vn 0.000000 -1.000000 0.000000
vn 0.000000 -1.000000 0.000000
vn 0.000000 -1.000000 0.000000
vn 0.000000 -1.000000 0.000000
vn -1.000000 0.000000 -0.000000
vn -1.000000 0.000000 -0.000000
vn -1.000000 0.000000 -0.000000
vn -1.000000 0.000000 -0.000000
vn 1.000000 -0.000000 -0.000000
vn 1.000000 -0.000000 -0.000000
vn 1.000000 -0.000000 -0.000000
vn 1.000000 -0.000000 -0.000000
vn 0.000000 1.000000 -0.000000
vn 0.000000 1.000000 -0.000000
vn 0.000000 1.000000 -0.000000
vn 0.000000 1.000000 -0.000000
vn -1.000000 0.000000 -0.000000
vn -1.000000 0.000000 -0.000000
vn -1.000000 0.000000 -0.000000
vn -1.000000 0.000000 -0.000000
vn 0.000000 0.000000 1.000000
vn 0.000000 0.000000 1.000000
vn 0.000000 0.000000 1.000000
vn 0.000000 0.000000 1.000000
vn 0.000000 -1.000000 0.000000
vn 0.000000 -1.000000 0.000000
vn 0.000000 -1.000000 0.000000
vn 0.000000 -1.000000 0.000000
vn 0.000000 1.000000 -0.000000
vn 0.000000 1.000000 -0.000000
vn 0.000000 1.000000 -0.000000
vn 0.000000 1.000000 -0.000000
vn 0.000000 1.000000 -0.000000
vn 0.000000 1.000000 -0.000000
vn 0.000000 1.000000 -0.000000
vn 0.000000 1.000000 -0.000000
vn 0.000000 0.000000 1.000000
vn 0.000000 0.000000 1.000000
vn 0.000000 0.000000 1.000000
vn 0.000000 0.000000 1.000000
vn 0.000000 -1.000000 0.000000
vn 0.000000 -1.000000 0.000000
vn 0.000000 -1.000000 0.000000
vn 0.000000 -1.000000 0.000000
vn 0.000000 0.000000 1.000000
vn 0.000000 0.000000 1.000000
vn 0.000000 0.000000 1.000000
vn 0.000000 0.000000 1.000000
vn 1.000000 0.000000 -0.000000
vn 1.000000 0.000000 -0.000000
vn 1.000000 0.000000 -0.000000
vn 1.000000 0.000000 -0.000000
vn -1.000000 0.000000 -0.000000
vn -1.000000 0.000000 -0.000000
vn -1.000000 0.000000 -0.000000
vn -1.000000 0.000000 -0.000000
vn 0.000000 0.000000 1.000000
vn 0.000000 0.000000 1.000000
vn 0.000000 0.000000 1.000000
vn 0.000000 0.000000 1.000000
vn 1.000000 0.000000 0.000000
vn 1.000000 0.000000 0.000000
vn 1.000000 0.000000 0.000000
vn 1.000000 0.000000 0.000000
vn 0.000000 0.000000 1.000000
vn 0.000000 0.000000 1.000000
vn 0.000000 0.000000 1.000000
vn 0.000000 0.000000 1.000000
vn -1.000000 0.000000 -0.000000
vn -1.000000 0.000000 -0.000000
vn -1.000000 0.000000 -0.000000
vn -1.000000 0.000000 -0.000000
vn 0.000000 -0.000000 -1.000000
vn 0.000000 -0.000000 -1.000000
vn 0.000000 -0.000000 -1.000000
vn 0.000000 -0.000000 -1.000000
vn 0.000000 -0.000000 -1.000000
vn 0.000000 -0.000000 -1.000000
vn 0.000000 -0.000000 -1.000000
vn 0.000000 -0.000000 -1.000000
vn 0.000000 1.000000 -0.000000
vn 0.000000 1.000000 -0.000000
vn 0.000000 1.000000 -0.000000
vn 0.000000 1.000000 -0.000000
vn 0.000000 1.000000 -0.000000
vn 0.000000 1.000000 -0.000000
vn 0.000000 1.000000 -0.000000
vn 0.000000 1.000000 -0.000000
vn 0.000000 1.000000 -0.000000
vn 0.000000 1.000000 -0.000000
vn 0.000000 1.000000 -0.000000
vn 0.000000 1.000000 -0.000000
vn 0.000000 1.000000 -0.000000
vn 0.000000 1.000000 -0.000000
vn 0.000000 1.000000 -0.000000
vn 0.000000 1.000000 -0.000000
vn 0.000000 -1.000000 0.000000
vn 0.000000 -1.000000 0.000000
vn 0.000000 -1.000000 0.000000
vn 0.000000 -1.000000 0.000000
vn 0.000000 -1.000000 0.000000
vn 0.000000 -1.000000 0.000000
vn 0.000000 -1.000000 0.000000
vn 0.000000 -1.000000 0.000000
vn 0.000000 -1.000000 0.000000
vn 0.000000 -1.000000 0.000000
vn 0.000000 -1.000000 0.000000
vn 0.000000 -1.000000 0.000000
vn 0.000000 -1.000000 0.000000
vn 0.000000 -1.000000 0.000000
vn 0.000000 -1.000000 0.000000
vn 0.000000 -1.000000 0.000000
vn 0.000000 -0.000000 -1.000000
vn 0.000000 -0.000000 -1.000000
vn 0.000000 -0.000000 -1.000000
vn 0.000000 -0.000000 -1.000000
vn 0.000000 -0.000000 -1.000000
vn 0.000000 -0.000000 -1.000000
vn 0.000000 -0.000000 -1.000000
vn 0.000000 -0.000000 -1.000000
vn -1.000000 -0.000000 0.000000
vn -1.000000 -0.000000 0.000000
vn -1.000000 -0.000000 0.000000
vn -1.000000 -0.000000 0.000000
vn -1.000000 -0.000000 -0.000000
vn -1.000000 -0.000000 -0.000000
vn -1.000000 -0.000000 -0.000000
vn -1.000000 -0.000000 -0.000000
vn 0.000000 0.000000 1.000000
vn 0.000000 0.000000 1.000000
vn 0.000000 0.000000 1.000000
vn 0.000000 0.000000 1.000000
vn 0.000000 0.000000 1.000000
vn 0.000000 0.000000 1.000000
vn 0.000000 0.000000 1.000000
vn 0.000000 0.000000 1.000000
vn 1.000000 -0.000000 0.000000
vn 1.000000 -0.000000 0.000000
vn 1.000000 -0.000000 0.000000
vn 1.000000 -0.000000 0.000000
vn 1.000000 -0.000000 -0.000000
vn 1.000000 -0.000000 -0.000000
vn 1.000000 -0.000000 -0.000000
vn 1.000000 -0.000000 -0.000000
vn 0.000000 0.000000 1.000000
vn 0.000000 0.000000 1.000000
vn 0.000000 0.000000 1.000000
vn 0.000000 0.000000 1.000000
vn -0.000000 0.000000 1.000000
vn -0.000000 0.000000 1.000000
vn -0.000000 0.000000 1.000000
vn -0.000000 0.000000 1.000000
vn -0.000003 1.000000 -0.000000
vn -0.000003 1.000000 -0.000000
vn -0.000003 1.000000 -0.000000
vn -0.000003 1.000000 -0.000000
vn 0.000003 -1.000000 0.000000
vn 0.000003 -1.000000 0.000000
vn 0.000003 -1.000000 0.000000
vn 0.000003 -1.000000 0.000000
vn 0.000000 1.000000 0.000002
vn 0.000000 1.000000 0.000002
vn 0.000000 1.000000 0.000002
vn 0.000000 1.000000 0.000002
vn -0.000001 -1.000000 0.000000
vn -0.000001 -1.000000 0.000000
vn -0.000001 -1.000000 0.000000
vn -0.000001 -1.000000 0.000000
vn 0.000003 1.000000 -0.000001
vn 0.000003 1.000000 -0.000001
vn 0.000003 1.000000 -0.000001
vn 0.000003 1.000000 -0.000001
vn -0.000003 -1.000000 0.000000
vn -0.000003 -1.000000 0.000000
vn -0.000003 -1.000000 0.000000
vn -0.000003 -1.000000 0.000000
vn 0.000001 -1.000000 0.000000
vn 0.000001 -1.000000 0.000000
vn 0.000001 -1.000000 0.000000
vn 0.000001 -1.000000 0.000000
vn 0.000000 0.000000 1.000000
vn 0.000000 0.000000 1.000000
vn 0.000000 0.000000 1.000000
vn 0.000000 0.000000 1.000000
vn 0.000000 1.000000 -0.000000
vn 0.000000 1.000000 -0.000000
vn 0.000000 1.000000 -0.000000
vn 0.000000 1.000000 -0.000000
vn 0.000000 0.000000 1.000000
vn 0.000000 0.000000 1.000000
vn 0.000000 0.000000 1.000000
vn 0.000000 0.000000 1.000000
vn 0.000000 -1.000000 0.000000
vn 0.000000 -1.000000 0.000000
vn 0.000000 -1.000000 0.000000
vn 0.000000 -1.000000 0.000000
vn -0.000000 1.000000 -0.000000
vn -0.000000 1.000000 -0.000000
vn -0.000000 1.000000 -0.000000
vn -0.000000 1.000000 -0.000000
vn 0.000000 0.000000 1.000000
vn 0.000000 0.000000 1.000000
vn 0.000000 0.000000 1.000000
vn 0.000000 0.000000 1.000000
vn 0.000000 -1.000000 0.000000
vn 0.000000 -1.000000 0.000000
vn 0.000000 -1.000000 0.000000
vn 0.000000 -1.000000 0.000000
vn 0.000000 0.000000 1.000000
vn 0.000000 0.000000 1.000000
vn 0.000000 0.000000 1.000000
vn 0.000000 0.000000 1.000000
vn 0.000000 0.000000 1.000000
vn 0.000000 0.000000 1.000000
vn 0.000000 0.000000 1.000000
vn 0.000000 0.000000 1.000000
vn 0.000000 1.000000 -0.000000
vn 0.000000 1.000000 -0.000000
vn 0.000000 1.000000 -0.000000
vn 0.000000 1.000000 -0.000000
vn 0.000002 -1.000000 0.000000
vn 0.000002 -1.000000 0.000000
vn 0.000002 -1.000000 0.000000
vn 0.000002 -1.000000 0.000000
vn 0.000000 1.000000 -0.000000
vn 0.000000 1.000000 -0.000000
vn 0.000000 1.000000 -0.000000
vn 0.000000 1.000000 -0.000000
vn 1.000000 0.000000 0.000000
vn 1.000000 0.000000 0.000000
vn 1.000000 0.000000 0.000000
vn 1.000000 0.000000 0.000000
vn 0.000000 -1.000000 0.000000
vn 0.000000 -1.000000 0.000000
vn 0.000000 -1.000000 0.000000
vn 0.000000 -1.000000 0.000000
vn 1.000000 0.000000 0.000000
vn 1.000000 0.000000 0.000000
vn 1.000000 0.000000 0.000000
vn 1.000000 0.000000 0.000000
vn 0.000000 -1.000000 0.000000
vn 0.000000 -1.000000 0.000000
vn 0.000000 -1.000000 0.000000
vn 0.000000 -1.000000 0.000000
vn 1.000000 0.000000 0.000000
vn 1.000000 0.000000 0.000000
vn 1.000000 0.000000 0.000000
vn 1.000000 0.000000 0.000000
vn 0.000000 1.000000 -0.000000
vn 0.000000 1.000000 -0.000000
vn 0.000000 1.000000 -0.000000
vn 0.000000 1.000000 -0.000000
vn 1.000000 0.000000 0.000000
vn 1.000000 0.000000 0.000000
vn 1.000000 0.000000 0.000000
vn 1.000000 0.000000 0.000000
vn 0.000000 -1.000000 0.000000
vn 0.000000 -1.000000 0.000000
vn 0.000000 -1.000000 0.000000
vn 0.000000 -1.000000 0.000000
vn 0.000000 1.000000 -0.000000
vn 0.000000 1.000000 -0.000000
vn 0.000000 1.000000 -0.000000
vn 0.000000 1.000000 -0.000000
vn 0.000000 1.000000 -0.000000
vn 0.000000 1.000000 -0.000000
vn 0.000000 1.000000 -0.000000
vn 0.000000 1.000000 -0.000000
vn 0.000000 -1.000000 0.000000
vn 0.000000 -1.000000 0.000000
vn 0.000000 -1.000000 0.000000
vn 0.000000 -1.000000 0.000000
vn 0.000000 0.000000 1.000000
vn 0.000000 0.000000 1.000000
vn 0.000000 0.000000 1.000000
vn 0.000000 0.000000 1.000000
vn 0.000000 1.000000 -0.000000
vn 0.000000 1.000000 -0.000000
vn 0.000000 1.000000 -0.000000
vn 0.000000 1.000000 -0.000000
vn 0.000000 -0.000000 -1.000000
vn 0.000000 -0.000000 -1.000000
vn 0.000000 -0.000000 -1.000000
vn 0.000000 -0.000000 -1.000000
vn 0.000000 1.000000 -0.000000
vn 0.000000 1.000000 -0.000000
vn 0.000000 1.000000 -0.000000
vn 0.000000 1.000000 -0.000000
vn -1.000000 -0.000000 0.000000
vn -1.000000 -0.000000 0.000000
vn -1.000000 -0.000000 0.000000
vn -1.000000 -0.000000 0.000000
vn 0.000000 -0.000000 -1.000000
vn 0.000000 -0.000000 -1.000000
vn 0.000000 -0.000000 -1.000000
vn 0.000000 -0.000000 -1.000000
vn 0.000000 -0.000000 -1.000000
vn 0.000000 -0.000000 -1.000000
vn 0.000000 -0.000000 -1.000000
vn 0.000000 -0.000000 -1.000000
vn 0.000000 -1.000000 0.000000
vn 0.000000 -1.000000 0.000000
vn 0.000000 -1.000000 0.000000
vn 0.000000 -1.000000 0.000000
vn 0.000000 1.000000 -0.000000
vn 0.000000 1.000000 -0.000000
vn 0.000000 1.000000 -0.000000
vn 0.000000 1.000000 -0.000000
vn 0.000000 -0.000000 -1.000000
vn 0.000000 -0.000000 -1.000000
vn 0.000000 -0.000000 -1.000000
vn 0.000000 -0.000000 -1.000000
vn 0.000000 -1.000000 0.000000
vn 0.000000 -1.000000 0.000000
vn 0.000000 -1.000000 0.000000
vn 0.000000 -1.000000 0.000000
vn -1.000000 0.000000 -0.000000
vn -1.000000 0.000000 -0.000000
vn -1.000000 0.000000 -0.000000
vn -1.000000 0.000000 -0.000000
vn 0.000000 -0.000000 -1.000000
vn 0.000000 -0.000000 -1.000000
vn 0.000000 -0.000000 -1.000000
vn 0.000000 -0.000000 -1.000000
vn 0.000000 -0.000000 -1.000000
vn 0.000000 -0.000000 -1.000000
vn 0.000000 -0.000000 -1.000000
vn 0.000000 -0.000000 -1.000000
vn 0.000000 1.000000 -0.000000
vn 0.000000 1.000000 -0.000000
vn 0.000000 1.000000 -0.000000
vn 0.000000 1.000000 -0.000000
vn -0.000002 -1.000000 0.000000
vn -0.000002 -1.000000 0.000000
vn -0.000002 -1.000000 0.000000
vn -0.000002 -1.000000 0.000000
vn 1.000000 0.000000 0.000000
vn 1.000000 0.000000 0.000000
vn 1.000000 0.000000 0.000000
vn 1.000000 0.000000 0.000000
vn -1.000000 0.000000 -0.000000
vn -1.000000 0.000000 -0.000000
vn -1.000000 0.000000 -0.000000
vn -1.000000 0.000000 -0.000000
vn 0.000000 1.000000 -0.000000
vn 0.000000 1.000000 -0.000000
vn 0.000000 1.000000 -0.000000
vn 0.000000 1.000000 -0.000000
vn -1.000000 0.000000 -0.000000
vn -1.000000 0.000000 -0.000000
vn -1.000000 0.000000 -0.000000
vn -1.000000 0.000000 -0.000000
vn 1.000000 0.000000 0.000000
vn 1.000000 0.000000 0.000000
vn 1.000000 0.000000 0.000000
vn 1.000000 0.000000 0.000000
vn 0.000000 -1.000000 0.000000
vn 0.000000 -1.000000 0.000000
vn 0.000000 -1.000000 0.000000
vn 0.000000 -1.000000 0.000000
vn -1.000000 0.000000 -0.000000
vn -1.000000 0.000000 -0.000000
vn -1.000000 0.000000 -0.000000
vn -1.000000 0.000000 -0.000000
vn 0.000000 -1.000000 0.000000
vn 0.000000 -1.000000 0.000000
vn 0.000000 -1.000000 0.000000
vn 0.000000 -1.000000 0.000000
vn -1.000000 0.000000 -0.000000
vn -1.000000 0.000000 -0.000000
vn -1.000000 0.000000 -0.000000
vn -1.000000 0.000000 -0.000000
vn 1.000000 0.000000 0.000000
vn 1.000000 0.000000 0.000000
vn 1.000000 0.000000 0.000000
vn 1.000000 0.000000 0.000000
vn 0.000000 1.000000 -0.000000
vn 0.000000 1.000000 -0.000000
vn 0.000000 1.000000 -0.000000
vn 0.000000 1.000000 -0.000000
vn -1.000000 0.000000 -0.000000
vn -1.000000 0.000000 -0.000000
vn -1.000000 0.000000 -0.000000
vn -1.000000 0.000000 -0.000000
vn 0.000000 -0.000000 -1.000000
vn 0.000000 -0.000000 -1.000000
vn 0.000000 -0.000000 -1.000000
vn 0.000000 -0.000000 -1.000000
vn 0.000000 -1.000000 0.000000
vn 0.000000 -1.000000 0.000000
vn 0.000000 -1.000000 0.000000
vn 0.000000 -1.000000 0.000000
vn 0.000000 -0.000000 -1.000000
vn 0.000000 -0.000000 -1.000000
vn 0.000000 -0.000000 -1.000000
vn 0.000000 -0.000000 -1.000000
vn 0.000000 1.000000 -0.000000
vn 0.000000 1.000000 -0.000000
vn 0.000000 1.000000 -0.000000
vn 0.000000 1.000000 -0.000000
vn 0.000000 1.000000 -0.000000
vn 0.000000 1.000000 -0.000000
vn 0.000000 1.000000 -0.000000
vn 0.000000 1.000000 -0.000000
vn 0.000000 -0.000000 -1.000000
vn 0.000000 -0.000000 -1.000000
vn 0.000000 -0.000000 -1.000000
vn 0.000000 -0.000000 -1.000000
vn 0.000000 -1.000000 0.000000
vn 0.000000 -1.000000 0.000000
vn 0.000000 -1.000000 0.000000
vn 0.000000 -1.000000 0.000000
vn 0.000000 -0.000000 -1.000000
vn 0.000000 -0.000000 -1.000000
vn 0.000000 -0.000000 -1.000000
vn 0.000000 -0.000000 -1.000000
vn 1.000000 0.000000 -0.000000
vn 1.000000 0.000000 -0.000000
vn 1.000000 0.000000 -0.000000
vn 1.000000 0.000000 -0.000000
vn 0.000000 -0.000000 -1.000000
vn 0.000000 -0.000000 -1.000000
vn 0.000000 -0.000000 -1.000000
vn 0.000000 -0.000000 -1.000000
vn -1.000000 0.000000 -0.000000
vn -1.000000 0.000000 -0.000000
vn -1.000000 0.000000 -0.000000
vn -1.000000 0.000000 -0.000000
vn 1.000000 -0.000000 0.000000
vn 1.000000 -0.000000 0.000000
vn 1.000000 -0.000000 0.000000
vn 1.000000 -0.000000 0.000000
vn 0.000000 -0.000000 -1.000000
vn 0.000000 -0.000000 -1.000000
vn 0.000000 -0.000000 -1.000000
vn 0.000000 -0.000000 -1.000000
vn -1.000000 0.000000 -0.000000
vn -1.000000 0.000000 -0.000000
vn -1.000000 0.000000 -0.000000
vn -1.000000 0.000000 -0.000000
vn 0.000000 0.000000 1.000000
vn 0.000000 0.000000 1.000000
vn 0.000000 0.000000 1.000000
vn 0.000000 0.000000 1.000000
vn 0.000000 0.000000 1.000000
vn 0.000000 0.000000 1.000000
vn 0.000000 0.000000 1.000000
vn 0.000000 0.000000 1.000000
vn 0.000000 1.000000 -0.000000
vn 0.000000 1.000000 -0.000000
vn 0.000000 1.000000 -0.000000
vn 0.000000 1.000000 -0.000000
vn 0.000000 1.000000 -0.000000
vn 0.000000 1.000000 -0.000000
vn 0.000000 1.000000 -0.000000
vn 0.000000 1.000000 -0.000000
vn 0.000000 1.000000 -0.000000
vn 0.000000 1.000000 -0.000000
vn 0.000000 1.000000 -0.000000
vn 0.000000 1.000000 -0.000000
vn 0.000001 1.000000 -0.000000
vn 0.000001 1.000000 -0.000000
vn 0.000001 1.000000 -0.000000
vn 0.000001 1.000000 -0.000000
vn 0.000000 -1.000000 0.000000
vn 0.000000 -1.000000 0.000000
vn 0.000000 -1.000000 0.000000
vn 0.000000 -1.000000 0.000000
vn 0.000000 -1.000000 0.000000
vn 0.000000 -1.000000 0.000000
vn 0.000000 -1.000000 0.000000
vn 0.000000 -1.000000 0.000000
vn 0.000000 -1.000000 0.000000
vn 0.000000 -1.000000 0.000000
vn 0.000000 -1.000000 0.000000
vn 0.000000 -1.000000 0.000000
vn 0.000000 -1.000000 0.000000
vn 0.000000 -1.000000 0.000000
vn 0.000000 -1.000000 0.000000
vn 0.000000 -1.000000 0.000000
vn 0.000000 0.000000 1.000000
vn 0.000000 0.000000 1.000000
vn 0.000000 0.000000 1.000000
vn 0.000000 0.000000 1.000000
vn 0.000000 0.000000 1.000000
vn 0.000000 0.000000 1.000000
vn 0.000000 0.000000 1.000000
vn 0.000000 0.000000 1.000000
vn -1.000000 0.000000 0.000000
vn -1.000000 0.000000 0.000000
vn -1.000000 0.000000 0.000000
vn -1.000000 0.000000 0.000000
vn -1.000000 -0.000000 0.000000
vn -1.000000 -0.000000 0.000000
vn -1.000000 -0.000000 0.000000
vn -1.000000 -0.000000 0.000000
vn 0.000000 -0.000000 -1.000000
vn 0.000000 -0.000000 -1.000000
vn 0.000000 -0.000000 -1.000000
vn 0.000000 -0.000000 -1.000000
vn 1.000000 0.000000 0.000000
vn 1.000000 0.000000 0.000000
vn 1.000000 0.000000 0.000000
vn 1.000000 0.000000 0.000000
vn 1.000000 0.000000 0.000000
vn 1.000000 0.000000 0.000000
vn 1.000000 0.000000 0.000000
vn 1.000000 0.000000 0.000000
vn 0.000000 -0.000000 -1.000000
vn 0.000000 -0.000000 -1.000000
vn 0.000000 -0.000000 -1.000000
vn 0.000000 -0.000000 -1.000000
vn -0.000000 -0.000000 -1.000000
vn -0.000000 -0.000000 -1.000000
vn -0.000000 -0.000000 -1.000000
vn -0.000000 -0.000000 -1.000000
vn -0.000002 1.000000 0.000000
vn -0.000002 1.000000 0.000000
vn -0.000002 1.000000 0.000000
vn -0.000002 1.000000 0.000000
vn 0.000002 -1.000000 0.000000
vn 0.000002 -1.000000 0.000000
vn 0.000002 -1.000000 0.000000
vn 0.000002 -1.000000 0.000000
vn -0.000001 -1.000000 0.000000
vn -0.000001 -1.000000 0.000000
vn -0.000001 -1.000000 0.000000
vn -0.000001 -1.000000 0.000000
vn 0.000002 1.000000 0.000001
vn 0.000002 1.000000 0.000001
vn 0.000002 1.000000 0.000001
vn 0.000002 1.000000 0.000001
vn -0.000003 -1.000000 0.000000
vn -0.000003 -1.000000 0.000000
vn -0.000003 -1.000000 0.000000
vn -0.000003 -1.000000 0.000000
vn 0.000000 1.000000 -0.000002
vn 0.000000 1.000000 -0.000002
vn 0.000000 1.000000 -0.000002
vn 0.000000 1.000000 -0.000002
vn 0.000001 -1.000000 0.000000
vn 0.000001 -1.000000 0.000000
vn 0.000001 -1.000000 0.000000
vn 0.000001 -1.000000 0.000000
vn 0.000000 -0.000000 -1.000000
vn 0.000000 -0.000000 -1.000000
vn 0.000000 -0.000000 -1.000000
vn 0.000000 -0.000000 -1.000000
vn 0.000000 1.000000 -0.000000
vn 0.000000 1.000000 -0.000000
vn 0.000000 1.000000 -0.000000
vn 0.000000 1.000000 -0.000000
vn 0.000000 -0.000000 -1.000000
vn 0.000000 -0.000000 -1.000000
vn 0.000000 -0.000000 -1.000000
vn 0.000000 -0.000000 -1.000000
vn 0.000000 -1.000000 0.000000
vn 0.000000 -1.000000 0.000000
vn 0.000000 -1.000000 0.000000
vn 0.000000 -1.000000 0.000000
vn -0.000000 1.000000 -0.000000
vn -0.000000 1.000000 -0.000000
vn -0.000000 1.000000 -0.000000
vn -0.000000 1.000000 -0.000000
vn 0.000000 -0.000000 -1.000000
vn 0.000000 -0.000000 -1.000000
vn 0.000000 -0.000000 -1.000000
vn 0.000000 -0.000000 -1.000000
vn 0.000000 -1.000000 0.000000
vn 0.000000 -1.000000 0.000000
vn 0.000000 -1.000000 0.000000
vn 0.000000 -1.000000 0.000000
vn 0.000000 -0.000000 -1.000000
vn 0.000000 -0.000000 -1.000000
vn 0.000000 -0.000000 -1.000000
vn 0.000000 -0.000000 -1.000000
vn 0.000000 1.000000 -0.000000
vn 0.000000 1.000000 -0.000000
vn 0.000000 1.000000 -0.000000
vn 0.000000 1.000000 -0.000000
vn 0.000002 -1.000000 0.000000
vn 0.000002 -1.000000 0.000000
vn 0.000002 -1.000000 0.000000
vn 0.000002 -1.000000 0.000000
vn 0.000000 1.000000 -0.000000
vn 0.000000 1.000000 -0.000000
vn 0.000000 1.000000 -0.000000
vn 0.000000 1.000000 -0.000000
vn 1.000000 0.000000 0.000000
vn 1.000000 0.000000 0.000000
vn 1.000000 0.000000 0.000000
vn 1.000000 0.000000 0.000000
vn 0.000000 -1.000000 0.000000
vn 0.000000 -1.000000 0.000000
vn 0.000000 -1.000000 0.000000
vn 0.000000 -1.000000 0.000000
vn 1.000000 0.000000 0.000000
vn 1.000000 0.000000 0.000000
vn 1.000000 0.000000 0.000000
vn 1.000000 0.000000 0.000000
vn 0.000000 -1.000000 0.000000
vn 0.000000 -1.000000 0.000000
vn 0.000000 -1.000000 0.000000
vn 0.000000 -1.000000 0.000000
vn 1.000000 0.000000 0.000000
vn 1.000000 0.000000 0.000000
vn 1.000000 0.000000 0.000000
vn 1.000000 0.000000 0.000000
vn 0.000000 1.000000 -0.000000
vn 0.000000 1.000000 -0.000000
vn 0.000000 1.000000 -0.000000
vn 0.000000 1.000000 -0.000000
vn 1.000000 0.000000 0.000000
vn 1.000000 0.000000 0.000000
vn 1.000000 0.000000 0.000000
vn 1.000000 0.000000 0.000000
vn 0.000000 -0.000000 -1.000000
vn 0.000000 -0.000000 -1.000000
vn 0.000000 -0.000000 -1.000000
vn 0.000000 -0.000000 -1.000000
vn 0.000000 -1.000000 0.000000
vn 0.000000 -1.000000 0.000000
vn 0.000000 -1.000000 0.000000
vn 0.000000 -1.000000 0.000000
vn 0.000000 1.000000 -0.000000
vn 0.000000 1.000000 -0.000000
vn 0.000000 1.000000 -0.000000
vn 0.000000 1.000000 -0.000000
vn 0.000000 1.000000 -0.000000
vn 0.000000 1.000000 -0.000000
vn 0.000000 1.000000 -0.000000
vn 0.000000 1.000000 -0.000000
vn 0.000000 -1.000000 0.000000
vn 0.000000 -1.000000 0.000000
vn 0.000000 -1.000000 0.000000
vn 0.000000 -1.000000 0.000000
vn 0.000000 -0.000000 -1.000000
vn 0.000000 -0.000000 -1.000000
vn 0.000000 -0.000000 -1.000000
vn 0.000000 -0.000000 -1.000000
vn 0.000000 -0.000000 -1.000000
vn 0.000000 -0.000000 -1.000000
vn 0.000000 -0.000000 -1.000000
vn 0.000000 -0.000000 -1.000000
vn -0.000001 1.000000 -0.000001
vn -0.000001 1.000000 -0.000001
vn -0.000001 1.000000 -0.000001
vn -0.000001 1.000000 -0.000001
s off
g Wall_1FBXASC046204
usemtl Wall_1FBXASC046204SG
f 356/49/1 691/671/2 2/681/3 700/699/4
f 385/26/5 3/470/6 695/620/7 386/343/8
f 80/48/9 16/738/10 4/37/11 694/344/12
f 81/254/13 368/750/14 699/372/15 1/354/16
f 84/696/17 6/152/18 359/721/19 79/481/20
f 349/477/21 86/53/22 701/488/23 348/687/24
f 83/370/25 352/159/26 87/606/27 5/590/28
f 391/371/29 390/579/30 65/426/31 47/71/32
f 88/168/33 9/65/34 8/266/35 26/211/36
f 24/99/37 394/54/38 393/487/39 7/709/40
f 362/394/41 28/327/42 703/608/43 361/77/44
f 702/55/45 29/126/46 10/382/47 89/725/48
f 11/180/49 13/294/50 34/332/51 92/398/52
f 90/282/53 363/190/54 364/512/55 91/81/56
f 705/377/57 33/15/58 12/498/59 704/170/60
f 354/692/61 19/301/62 15/410/63 690/116/64
f 14/618/65 387/143/66 696/296/67 17/503/68
f 692/228/69 707/493/70 18/505/71 697/256/72
f 355/482/73 21/416/74 698/580/75 693/27/76
f 388/460/77 82/578/78 20/625/79 367/422/80
f 367/422/81 20/625/82 21/416/83 355/482/84
f 389/255/85 706/704/86 365/306/87 366/633/88
f 384/573/89 353/366/90 357/602/91 370/517/92
f 350/44/93 708/60/94 23/533/95 358/164/96
f 369/195/97 93/194/98 22/744/99 351/597/100
f 355/482/101 360/278/102 85/486/103 367/422/104
f 27/10/105 66/754/106 65/426/107 390/579/108
f 88/168/109 26/211/110 709/613/111 392/697/112
f 24/99/113 25/654/114 94/516/115 394/54/116
f 362/394/117 711/733/118 710/175/119 28/327/120
f 702/55/121 95/310/122 30/443/123 29/126/124
f 31/238/125 92/398/126 34/332/127 35/131/128
f 32/561/129 91/81/130 364/512/131 96/637/132
f 705/377/133 713/88/134 712/289/135 33/15/136
f 395/607/137 38/566/138 37/243/139 396/169/140
f 396/169/141 37/243/142 36/448/143 397/726/144
f 716/523/145 724/649/146 40/686/147 398/283/148
f 718/644/149 404/288/150 719/567/151 41/476/152
f 401/612/153 402/174/154 42/43/155 56/511/156
f 54/393/157 39/360/158 43/596/159 380/338/160
f 100/521/161 97/86/162 415/670/163 45/715/164
f 408/522/165 44/158/166 725/438/167 101/315/168
f 99/199/169 723/322/170 407/200/171 62/104/172
f 48/388/173 47/71/174 65/426/175 102/642/176
f 417/437/177 372/638/178 371/311/179 418/4/180
f 63/659/181 46/272/182 103/431/183 104/759/184
f 71/20/185 52/277/186 49/601/187 67/543/188
f 419/555/189 420/120/190 50/163/191 68/109/192
f 375/544/193 376/110/194 74/453/195 726/5/196
f 423/31/197 424/348/198 374/755/199 373/427/200
f 70/221/201 51/720/202 53/76/203 73/137/204
f 715/201/205 399/82/206 728/121/207 729/676/208
f 727/556/209 57/630/210 720/244/211 405/87/212
f 400/399/213 721/206/214 58/632/215 107/669/216
f 714/405/217 55/189/218 722/528/219 61/538/220
f 403/732/221 379/21/222 60/749/223 98/403/224
f 379/21/225 714/405/226 61/538/227 60/749/228
f 406/404/229 378/222/230 377/665/231 106/114/232
f 59/421/233 110/342/234 413/549/235 717/317/236
f 409/316/237 414/115/238 412/760/239 730/233/240
f 381/138/241 410/643/242 109/25/243 108/226/244
f 714/405/245 379/21/246 411/433/247 416/227/248
f 731/32/249 102/642/250 65/426/251 66/754/252
f 417/437/253 111/142/254 382/454/255 372/638/256
f 63/659/257 104/759/258 112/459/259 64/216/260
f 71/20/261 67/543/262 732/349/263 733/147/264
f 419/555/265 68/109/266 69/664/267 113/674/268
f 383/250/269 75/249/270 74/453/271 376/110/272
f 114/231/273 115/30/274 374/755/275 424/348/276
f 70/221/277 73/137/278 734/465/279 72/337/280
f 105/548/281 422/232/282 77/365/283 78/691/284
f 422/232/285 421/675/286 76/572/287 77/365/288
f 434/589/289 429/376/290 427/260/291 425/146/292
f 194/135/293 526/425/294 428/584/295 193/570/296
f 740/471/297 527/220/298 118/463/299 133/736/300
f 501/571/301 502/136/302 119/259/303 195/689/304
f 459/680/305 436/708/306 432/59/307 430/703/308
f 197/46/309 431/492/310 121/375/311 192/358/312
f 454/653/313 433/265/314 426/464/315 453/326/316
f 449/98/317 437/497/318 439/617/319 441/737/320
f 442/293/321 200/479/322 440/179/323 443/93/324
f 483/631/325 142/3/326 178/304/327 533/225/328
f 470/475/329 202/599/330 739/153/331 467/42/332
f 460/237/333 445/205/334 447/321/335 451/210/336
f 204/718/337 199/161/338 127/730/339 446/527/340
f 458/125/341 457/560/342 438/64/343 448/648/344
f 202/599/345 532/430/346 737/38/347 195/689/348
f 143/554/349 177/747/350 736/585/351 134/292/352
f 178/304/353 142/3/354 133/736/355 118/463/356
f 446/527/357 127/730/358 138/526/359 450/415/360
f 123/491/361 145/325/362 146/652/363 126/173/364
f 466/242/365 177/747/366 143/554/367 468/359/368
f 443/93/369 440/179/370 455/442/371 456/9/372
f 128/287/373 144/119/374 139/320/375 125/611/376
f 431/492/377 435/381/378 129/496/379 121/375/380
f 116/347/381 120/583/382 137/204/383 136/408/384
f 168/69/385 735/261/386 134/292/387 736/585/388
f 526/425/389 131/616/390 452/532/391 428/584/392
f 122/702/393 117/145/394 130/63/395 135/92/396
f 739/153/397 202/599/398 195/689/399 119/259/400
f 448/648/401 438/64/402 203/391/403 205/509/404
f 138/526/405 127/730/406 199/161/407 206/74/408
f 433/265/409 198/363/410 196/247/411 426/464/412
f 169/623/413 501/571/414 195/689/415 737/38/416
f 129/496/417 207/629/418 192/358/419 121/375/420
f 444/409/421 461/36/422 463/151/423 201/275/424
f 514/485/425 528/542/426 530/314/427 738/355/428
f 140/647/429 464/469/430 462/353/431 124/58/432
f 546/507/433 478/698/434 480/300/435 487/103/436
f 489/215/437 536/668/438 537/458/439 541/695/440
f 487/103/441 480/300/442 535/341/443 488/420/444
f 485/748/445 481/510/446 479/743/447 547/701/448
f 549/57/449 477/624/450 465/685/451 162/474/452
f 226/546/453 538/24/454 469/157/455 163/270/456
f 471/271/457 209/396/458 216/308/459 156/468/460
f 474/714/461 539/577/462 208/187/463 529/758/464
f 209/396/465 474/714/466 529/758/467 216/308/468
f 476/70/469 471/271/470 156/468/471 149/559/472
f 217/107/473 150/124/474 534/547/475 212/79/476
f 213/635/477 210/723/478 151/679/479 153/35/480
f 210/723/481 217/107/482 212/79/483 151/679/484
f 150/124/485 482/75/486 484/188/487 534/547/488
f 540/141/489 741/267/490 224/18/491 531/113/492
f 154/352/493 486/305/494 161/156/495 152/236/496
f 155/150/497 548/258/498 545/582/499 472/595/500
f 743/383/501 490/537/502 491/331/503 218/424/504
f 473/387/505 543/52/506 550/374/507 475/504/508
f 493/447/509 496/130/510 554/610/511 494/14/512
f 147/441/513 551/172/514 742/591/515 214/192/516
f 495/565/517 553/286/518 552/490/519 744/710/520
f 148/8/521 544/369/522 543/52/523 473/387/524
f 555/402/525 492/658/526 496/130/527 493/447/528
f 159/380/529 556/729/530 229/456/531 225/224/532
f 160/707/533 158/588/534 165/386/535 231/575/536
f 222/662/537 157/264/538 227/340/539 228/667/540
f 223/451/541 221/335/542 230/23/543 166/713/544
f 157/264/545 220/541/546 164/594/547 227/340/548
f 219/219/549 223/451/550 166/713/551 542/253/552
f 221/335/553 160/707/554 231/575/555 230/23/556
f 434/589/557 497/336/558 499/452/559 429/376/560
f 194/135/561 193/570/562 500/19/563 503/690/564
f 459/680/565 504/248/566 506/364/567 436/708/568
f 197/46/569 192/358/570 172/299/571 505/47/572
f 522/193/573 521/636/574 498/663/575 507/162/576
f 449/98/577 441/737/578 511/392/579 509/276/580
f 442/293/581 513/167/582 512/719/583 200/479/584
f 470/475/585 211/514/586 532/432/587 202/599/588
f 460/237/589 451/210/590 517/397/591 515/281/592
f 204/718/593 516/605/594 180/419/595 199/161/596
f 525/108/597 518/724/598 510/600/599 524/309/600
f 516/605/601 519/515/602 187/564/603 180/419/604
f 174/414/605 179/102/606 191/41/607 190/241/608
f 513/167/609 141/436/610 523/753/611 512/719/612
f 181/214/613 176/531/614 188/129/615 189/684/616
f 505/47/617 172/299/618 182/536/619 508/480/620
f 167/502/621 185/446/622 186/13/623 171/742/624
f 503/690/625 500/19/626 520/80/627 132/178/628
f 173/97/629 184/657/630 183/330/631 170/184/632
f 518/724/633 205/509/634 203/391/635 510/600/636
f 187/564/637 206/74/638 199/161/639 180/419/640
f 507/162/641 498/663/642 196/247/643 198/363/644
f 182/536/645 172/299/646 192/358/647 207/629/648
f 175/209/649 201/275/650 463/151/651 215/752/652
f 222/662/653 228/667/654 229/457/655 556/731/656
f 569/118/657 557/520/658 559/641/659 561/407/660
f 562/735/661 311/472/662 560/198/663 563/525/664
f 746/66/665 250/84/666 659/251/667 564/91/668
f 312/39/669 313/592/670 235/51/671 643/423/672
f 600/741/673 565/646/674 567/2/675 571/230/676
f 315/711/677 310/682/678 237/166/679 566/203/680
f 596/501/681 595/183/682 558/85/683 568/319/684
f 589/177/685 576/29/686 574/673/687 572/553/688
f 580/678/689 581/467/690 575/462/691 318/384/692
f 618/683/693 614/445/694 294/95/695 258/202/696
f 615/240/697 611/12/698 593/68/699 320/500/700
f 601/530/701 591/291/702 587/62/703 585/706/704
f 322/273/705 586/263/706 245/285/707 317/67/708
f 599/413/709 588/379/710 573/346/711 598/622/712
f 259/1/713 251/640/714 592/615/715 243/171/716
f 294/95/717 659/251/718 250/84/719 258/202/720
f 586/263/721 590/495/722 255/112/723 245/285/724
f 239/280/725 244/489/726 262/434/727 261/117/728
f 612/329/729 616/563/730 259/1/731 243/171/732
f 581/467/733 747/619/734 597/298/735 575/462/736
f 246/609/737 242/373/738 256/429/739 260/318/740
f 566/203/741 237/166/742 247/401/743 570/435/744
f 232/140/745 253/757/746 254/313/747 236/368/748
f 286/734/749 592/615/750 251/640/751 745/499/752
f 563/525/753 560/198/754 594/385/755 300/439/756
f 238/484/757 252/197/758 248/728/759 234/252/760
f 593/68/761 235/51/762 313/592/763 320/500/764
f 588/379/765 323/72/766 321/716/767 573/346/768
f 613/128/769 615/240/770 320/500/771 660/574/772
f 255/112/773 324/389/774 317/67/775 245/285/776
f 568/319/777 558/85/778 314/154/779 316/268/780
f 233/694/781 288/89/782 313/592/783 312/39/784
f 247/401/785 237/166/786 310/682/787 325/185/788
f 582/34/789 319/182/790 608/440/791 602/96/792
f 578/558/793 577/235/794 748/181/795 583/587/796
f 319/182/797 579/351/798 584/149/799 608/440/800
f 306/444/801 240/604/802 603/651/803 609/656/804
f 682/756/805 680/639/806 622/155/807 620/40/808
f 684/111/809 683/545/810 621/593/811 624/269/812
f 627/598/813 676/400/814 675/83/815 626/45/816
f 283/290/817 341/16/818 610/213/819 673/727/820
f 342/333/821 279/61/822 617/357/823 623/712/824
f 670/395/825 269/581/826 332/100/827 329/417/828
f 667/722/829 271/700/830 328/627/831 607/123/832
f 329/417/833 332/100/834 271/700/835 667/722/836
f 672/513/837 263/229/838 269/581/839 670/395/840
f 333/655/841 330/745/842 272/257/843 674/284/844
f 268/28/845 266/672/846 264/551/847 273/466/848
f 273/466/849 264/551/850 330/745/851 333/655/852
f 674/284/853 272/257/854 619/473/855 625/478/856
f 606/324/857 749/739/858 280/378/859 604/208/860
f 267/461/861 265/345/862 278/262/863 628/160/864
f 331/534/865 671/191/866 631/73/867 629/717/868
f 275/586/869 687/22/870 638/746/871 751/94/872
f 685/666/873 688/339/874 635/303/875 634/508/876
f 668/279/877 270/144/878 281/176/879 678/518/880
f 340/217/881 276/148/882 336/328/883 636/628/884
f 326/506/885 669/78/886 633/186/887 632/390/888
f 686/223/889 685/666/890 634/508/891 637/418/892
f 750/295/893 630/274/894 284/614/895 335/11/896
f 277/705/897 677/196/898 282/494/899 337/539/900
f 274/33/901 344/449/902 346/568/903 338/105/904
f 689/550/905 343/132/906 605/7/907 752/411/908
f 753/626/909 681/428/910 344/449/911 274/33/912
f 335/11/913 284/614/914 345/245/915 339/660/916
f 338/105/917 346/568/918 677/196/919 277/705/920
f 569/118/921 561/407/922 641/307/923 639/535/924
f 562/735/925 644/751/926 642/634/927 311/472/928
f 600/741/929 571/230/930 647/661/931 645/540/932
f 315/711/933 646/106/934 290/621/935 310/682/936
f 663/483/937 648/218/938 640/101/939 662/693/940
f 589/177/941 650/334/942 652/450/943 576/29/944
f 580/678/945 318/384/946 653/246/947 241/56/948
f 601/530/949 654/569/950 656/688/951 591/291/952
f 322/273/953 317/67/954 296/207/955 655/362/956
f 666/165/957 665/603/958 651/134/959 657/139/960
f 655/362/961 296/207/962 304/677/963 658/455/964
f 292/740/965 308/562/966 309/356/967 295/650/968
f 241/56/969 653/246/970 664/50/971 257/645/972
f 297/6/973 307/239/974 305/127/975 293/529/976
f 646/106/977 649/17/978 298/323/979 290/621/980
f 285/406/981 289/297/982 303/350/983 302/557/984
f 644/751/985 249/519/986 661/367/987 642/634/988
f 291/412/989 287/524/990 299/122/991 301/234/992
f 660/576/993 320/500/994 313/592/995 288/90/996
f 657/139/997 651/134/998 321/716/999 323/72/1000
f 304/677/1001 296/207/1002 317/67/1003 324/389/1004
f 648/218/1005 316/268/1006 314/154/1007 640/101/1008
f 298/323/1009 325/185/1010 310/682/1011 290/621/1012
f 684/111/1013 624/269/1014 334/212/1015 347/361/1016
f 327/302/1017 679/312/1018 633/186/1019 669/78/1020
f 689/552/1021 339/660/1022 345/245/1023 343/133/1024
